<?xml version="1.0" encoding="utf-8"?>
<!-- Generator: Adobe Illustrator 25.4.1, SVG Export Plug-In . SVG Version: 6.00 Build 0)  -->
<svg version="1.1" id="Layer_1" xmlns="http://www.w3.org/2000/svg" xmlns:xlink="http://www.w3.org/1999/xlink" x="0px" y="0px"
	 viewBox="0 0 750 630.5" style="enable-background:new 0 0 750 630.5;" xml:space="preserve">
<style type="text/css">
	.st0{fill:url(#SVGID_1_);}
	.st1{fill:#0D0808;}
	.st2{fill:#141414;}
	.st3{fill:#120B0B;}
	.st4{fill:#242424;}
	.st5{fill:#292929;}
	.st6{fill:#191919;}
	.st7{fill:#1C1C1C;}
	.st8{fill:#171717;}
	.st9{fill:#0F0F0F;}
	.st10{fill:#1A1A1A;}
	.st11{fill:#1A1615;}
	.st12{fill:#0A0A0A;}
	.st13{fill:none;stroke:#000000;stroke-width:0.9994;stroke-miterlimit:9.9939;}
	.st14{fill:#D60011;}
	.st15{fill:#F40002;}
	.st16{fill:#080808;}
	.st17{fill:none;stroke:#140C0C;stroke-width:1.9988;stroke-miterlimit:9.9939;}
	.st18{fill:none;stroke:#120B0B;stroke-width:1.9988;stroke-miterlimit:9.9939;}
	.st19{fill:#0D0D0D;}
	.st20{fill:#E8787C;}
	.st21{fill:#620C0D;}
	.st22{fill:#961B1E;}
</style>
<g id="Layer_2_00000152976315546784887620000015305880368849904787_">
</g>
<g>
	<path d="M664.2,214c-6.7-16.7-20.5-20.9-21.8-22c-11.7-10.3-2.5-21.2-19.9-30.7c-18.3-9.9-71.9-37-114.2-31.4
		c-9.2,1.2-27.8,17.6-41.2,17.6c-21.9,0-92.1,0-92.1,0s-70.3,0-92.1,0c-13.4,0-32-16.4-41.2-17.6c-42.2-5.6-95.9,21.4-114.2,31.4
		c-17.5,9.5-8.2,20.3-19.9,30.7c-1.3,1.1-15.1,5.3-21.8,22C23.1,370-1.5,469,0.3,529c2.9,94.4,76.5,101.3,76.5,101.3
		c37-8.6,111.5-129.1,168.4-129.1c31.1,0,129.7,0,129.7,0s98.6,0,129.7,0c57,0,131.4,120.4,168.4,129.1c0,0,73.6-6.9,76.5-101.3
		C751.5,469,726.9,370,664.2,214z"/>
	<linearGradient id="SVGID_1_" gradientUnits="userSpaceOnUse" x1="-3.0328" y1="641.5319" x2="645.8839" y2="266.8796">
		<stop  offset="0" style="stop-color:#000000"/>
		<stop  offset="5.997470e-02" style="stop-color:#0A0101"/>
		<stop  offset="0.3225" style="stop-color:#300606"/>
		<stop  offset="0.5652" style="stop-color:#4B090A"/>
		<stop  offset="0.7784" style="stop-color:#5C0B0C"/>
		<stop  offset="0.9394" style="stop-color:#620C0D"/>
	</linearGradient>
	<path class="st0" d="M664.2,214c-3.3-8.3-8.4-13.5-12.9-16.8c-3-2.2-5.7-3.6-7.4-4.4c-0.8-0.4-1.3-0.6-1.5-0.8
		c-33.5-18-97.4-38.1-117.4-34.3c-26,5-65.5,79.7-88.9,79.7c-15.1,0-60.5,0-60.5,0s-45.4,0-60.5,0c-23.4,0-62.9-74.6-88.9-79.7
		c-19.6-3.8-85.5,16.4-118.7,34.3c-0.2,0.2-0.6,0.4-1.2,0.6c-1.8,0.8-5.1,2.4-8.7,5.3c-4.2,3.3-8.8,8.3-11.9,16
		C23.1,370-1.5,469,0.3,529c2.9,94.4,76.5,101.3,76.5,101.3c37-8.6,111.5-129.1,168.4-129.1c31.1,0,129.7,0,129.7,0s98.6,0,129.7,0
		c57,0,131.4,120.4,168.4,129.1c0,0,73.6-6.9,76.5-101.3C751.5,469,726.9,370,664.2,214L664.2,214z"/>
	<path d="M277.7,462c-33.4,0-60.6-27.2-60.6-60.6c0-33.4,27.2-60.6,60.6-60.6c33.4,0,60.6,27.2,60.6,60.6
		C338.3,434.8,311.1,462,277.7,462z"/>
	<path class="st1" d="M277.7,341.8c32.9,0,59.6,26.7,59.6,59.6c0,32.9-26.7,59.6-59.6,59.6c-32.9,0-59.6-26.7-59.6-59.6
		C218.1,368.6,244.9,341.8,277.7,341.8 M277.7,339.8c-34,0-61.6,27.6-61.6,61.6c0,34,27.6,61.6,61.6,61.6c34,0,61.6-27.6,61.6-61.6
		C339.3,367.4,311.7,339.8,277.7,339.8z"/>
	<path class="st2" d="M277.7,452.6c-7.1,0-12.7-1.3-13-3.1l0-0.1c0-0.1,0-15.5,0-34.4c0-0.3-0.2-0.5-0.5-0.5h-34.4
		c-1.8,0-3.2-5.7-3.2-13s1.4-13,3.2-13h34.4c0.3,0,0.5-0.2,0.5-0.5v-34.4l0-0.1l0.1-0.2l0.1-0.1c0.5-0.8,2.1-1.5,4.5-2
		c0.3-0.1,0.6-0.1,0.9-0.2c0.4-0.1,0.7-0.1,1-0.1l0.2,0c0.3,0,0.6-0.1,0.9-0.1c0.3,0,0.7-0.1,1-0.1c0.4,0,0.7-0.1,1-0.1l2.4-0.1
		c0.4,0,0.7,0,1,0c7.3,0,13.1,1.4,13.1,3.2c0,0.2,0,16,0,34.4c0,0.3,0.2,0.5,0.5,0.5h34.4c1.8,0,3.2,5.7,3.2,13s-1.4,13-3.2,13
		h-34.4c-0.3,0-0.5,0.2-0.5,0.5v34.4l0,0.2C290.5,451.3,284.9,452.6,277.7,452.6z"/>
	<path class="st3" d="M277.7,350.8c8.1,0,12.6,1.6,12.6,2.7l0,0v34.4c0,0.6,0.4,1,1,1h34.4c1.1,0,2.7,4.8,2.7,12.5
		c0,7.8-1.6,12.5-2.7,12.5h-34.4c-0.6,0-1,0.4-1,1v34.4l0,0.1c-0.2,1.1-4.7,2.7-12.6,2.7c-7.9,0-12.4-1.5-12.5-2.7l0-0.1V415
		c0-0.6-0.4-1-1-1h-34.4c-1.1,0-2.7-4.8-2.7-12.5s1.6-12.6,2.7-12.6h34.4c0.6,0,1-0.4,1-1v-34.4l0,0l0,0l0,0l0-0.1l0-0.1
		c0.2-0.2,0.9-1.1,4.2-1.8l0.1,0c0.3-0.1,0.6-0.1,0.8-0.2l0.1,0c0.3-0.1,0.6-0.1,0.8-0.1l0.2,0c0.3,0,0.6-0.1,0.9-0.1l0,0
		c0.3,0,0.7-0.1,1-0.1l0,0c0.3,0,0.6-0.1,1-0.1l0.1,0c0.2,0,0.4,0,0.6,0l0.4,0l0.2,0c0.3,0,0.7,0,1,0l0.1,0
		C277,350.8,277.4,350.8,277.7,350.8 M277.7,349.8c-0.3,0-0.7,0-1.1,0l-0.1,0c-0.3,0-0.7,0-1,0l-0.2,0c-0.3,0-0.7,0-1,0l-0.1,0
		c-0.3,0-0.7,0-1,0.1l0,0c-0.3,0-0.7,0.1-1,0.1h0c-0.3,0-0.7,0.1-1,0.1l-0.1,0c-0.3,0-0.6,0.1-0.9,0.1l-0.1,0
		c-0.3,0.1-0.6,0.1-0.9,0.2l0,0c-2.4,0.5-4.2,1.2-4.9,2.2l-0.1,0.2l0,0l0,0.2l0,0l0,0.1l0,0.2c0,7.7,0,20.6,0,34.4
		c-19,0-34.4,0-34.4,0h0c-5,0-5,27.1,0,27.1c7.8,0,20.6,0,34.4,0c0,19,0,34.4,0,34.4l0,0.2c0.4,2.3,7,3.5,13.5,3.5
		c6.6,0,13.1-1.2,13.5-3.5l0-0.2c0-7.7,0-20.6,0-34.4c18.9,0,34.4,0,34.4,0c5,0,5-27.1,0-27.1c-7.8,0-20.6,0-34.4,0
		c0-19,0-34.4,0-34.4h0v0C291.3,351,284.5,349.8,277.7,349.8z"/>
	<path class="st4" d="M264.2,387.9l-3.6-3.6h-30.8c-0.9,0-1.8,0.2-2.8,0.8l2.8,2.8C229.8,387.9,245.2,387.9,264.2,387.9z"/>
	<path class="st5" d="M229.8,387.9L229.8,387.9l-2.8-2.8c-1.4,0.9-2.7,2.7-3.5,6.1c-0.7,2.7-1,6.4-1,10.2c0,3.8,0.4,7.4,1,10.2
		c0.8,3.4,2.2,5.2,3.5,6.1l2.8-2.8C224.8,415,224.8,387.9,229.8,387.9z"/>
	<path class="st4" d="M269.3,350.5L269.3,350.5c0.3-0.1,0.6-0.1,0.9-0.2l0.1,0c0.3-0.1,0.6-0.1,0.9-0.1l0.1,0c0.3,0,0.7-0.1,1-0.1h0
		c0.3,0,0.7-0.1,1-0.1l0,0c0.3,0,0.7-0.1,1-0.1l0.1,0c0.3,0,0.6,0,1,0l0.2,0c0.3,0,0.7,0,1,0l0.1,0c0.3,0,0.7,0,1.1,0
		c6.8,0,13.6,1.2,13.6,3.7l2.8-2.8c-0.9-1.4-2.7-2.7-6.1-3.5c-2.7-0.7-6.4-1-10.2-1c-3.8,0-7.5,0.4-10.2,1c-2.9,0.7-4.7,1.8-5.7,3
		l2.6,2.6C265,351.7,266.8,351,269.3,350.5z"/>
	<path class="st6" d="M325.7,387.9l2.8-2.8c-0.9-0.6-1.9-0.8-2.8-0.8h-30.8l-3.6,3.6C305.1,387.9,317.9,387.9,325.7,387.9z"/>
	<path class="st7" d="M291.3,353.5L291.3,353.5c0,0,0,15.4,0,34.4l3.6-3.6v-30.8c0-0.9-0.2-1.8-0.8-2.8L291.3,353.5z"/>
	<path class="st5" d="M264.2,353.5l0-0.2l0-0.1l0,0l0-0.2l0,0l0.1-0.2l-2.6-2.6c-1,1.1-1.3,2.3-1.3,3.3v30.8l3.6,3.6
		C264.2,374.1,264.2,361.2,264.2,353.5z"/>
	<path class="st8" d="M325.7,415L325.7,415c0,0-15.5,0-34.4,0l3.6,3.6h30.8h1.5l0.3-0.3c0.3-0.1,0.6-0.3,0.9-0.5L325.7,415z"/>
	<path class="st9" d="M291.3,449.4l2.8,2.8c0.6-0.9,0.8-1.9,0.8-2.8v-30.8l-3.6-3.6C291.3,428.8,291.3,441.7,291.3,449.4z"/>
	<path class="st9" d="M332,391.3c-0.8-3.4-2.2-5.2-3.6-6.1l-2.8,2.8c5,0,5,27.1,0,27.1l2.8,2.8c1.4-0.9,2.7-2.7,3.5-6.1
		c0.7-2.7,1-6.4,1-10.2C333,397.6,332.7,394,332,391.3z"/>
	<path class="st8" d="M291.3,449.6c-0.4,2.3-7,3.5-13.5,3.5s-13.1-1.2-13.5-3.5l0-0.2l-2.8,2.8c0.9,1.4,2.7,2.7,6.2,3.5
		c2.7,0.7,6.3,1,10.2,1c3.8,0,7.4-0.4,10.2-1c3.4-0.8,5.2-2.2,6.1-3.5l-2.8-2.8L291.3,449.6z"/>
	<path class="st7" d="M264.2,449.4L264.2,449.4c0,0,0-15.4,0-34.4l-3.6,3.6v30.8v0.8l0.1,0.2c0.1,0.5,0.3,1.1,0.7,1.7L264.2,449.4z"
		/>
	<path class="st10" d="M229.8,415l-2.8,2.8c1,0.6,1.9,0.8,2.8,0.8h30.8l3.6-3.6C250.4,415,237.5,415,229.8,415z"/>
	<path class="st11" d="M448.9,280.4c0,10.4-8.4,18.8-18.8,18.8c-10.4,0-18.8-8.4-18.8-18.8c0-10.4,8.4-18.8,18.8-18.8
		C440.5,261.6,448.9,270,448.9,280.4z"/>
	<path class="st12" d="M446.2,280.4c0,8.9-7.2,16.1-16.1,16.1c-8.9,0-16.1-7.2-16.1-16.1c0-8.9,7.2-16.1,16.1-16.1
		C439,264.3,446.2,271.5,446.2,280.4z"/>
	<path class="st13" d="M446.2,280.4c0,8.9-7.2,16.1-16.1,16.1c-8.9,0-16.1-7.2-16.1-16.1c0-8.9,7.2-16.1,16.1-16.1
		C439,264.3,446.2,271.5,446.2,280.4z"/>
	<rect x="422.9" y="275.8" class="st14" width="14.4" height="1.6"/>
	<rect x="422.9" y="279.7" class="st14" width="14.4" height="1.6"/>
	<rect x="422.9" y="283.5" class="st14" width="14.4" height="1.5"/>
	<path class="st11" d="M341,280.4c0,10.4-8.4,18.8-18.8,18.8c-10.4,0-18.8-8.4-18.8-18.8c0-10.4,8.4-18.8,18.8-18.8
		C332.5,261.6,341,270,341,280.4z"/>
	<path class="st12" d="M338.2,280.4c0,8.9-7.2,16.1-16.1,16.1c-8.9,0-16.1-7.2-16.1-16.1c0-8.9,7.2-16.1,16.1-16.1
		C331,264.3,338.2,271.5,338.2,280.4z"/>
	<path class="st13" d="M338.2,280.4c0,8.9-7.2,16.1-16.1,16.1c-8.9,0-16.1-7.2-16.1-16.1c0-8.9,7.2-16.1,16.1-16.1
		C331,264.3,338.2,271.5,338.2,280.4z"/>
	<polygon class="st15" points="319.6,280.3 316.6,280.3 316.6,276.5 322.1,276.5 322.1,277.8 323.9,277.8 323.9,274.8 315,274.8 
		315,282.2 319.6,282.2 	"/>
	<path class="st15" d="M320.4,278.4v7.6h9v-7.6H320.4z M327.5,284.2h-5.5v-3.9h5.5V284.2z"/>
	<path class="st16" d="M185.6,351.5c-37.3,0-67.7-30.3-67.7-67.6s30.3-67.6,67.7-67.6c37.3,0,67.7,30.3,67.7,67.6
		S222.9,351.5,185.6,351.5z"/>
	<path class="st17" d="M185.6,351.5c-37.3,0-67.7-30.3-67.7-67.6s30.3-67.6,67.7-67.6c37.3,0,67.7,30.3,67.7,67.6
		S222.9,351.5,185.6,351.5z"/>
	<path d="M241.7,279.9c0,31-25.1,56-56.1,56c-31,0-56.1-25.1-56.1-56c0-31,25.1-56.1,56.1-56.1C216.6,223.8,241.7,248.9,241.7,279.9
		z"/>
	<path class="st18" d="M241.7,279.9c0,31-25.1,56-56.1,56c-31,0-56.1-25.1-56.1-56c0-31,25.1-56.1,56.1-56.1
		C216.6,223.8,241.7,248.9,241.7,279.9z"/>
	<path class="st16" d="M473,465.4c-37.3,0-67.6-30.3-67.6-67.6c0-37.3,30.3-67.7,67.6-67.7c37.3,0,67.7,30.4,67.7,67.7
		C540.6,435,510.3,465.4,473,465.4z"/>
	<path class="st17" d="M473,465.4c-37.3,0-67.6-30.3-67.6-67.6c0-37.3,30.3-67.7,67.6-67.7c37.3,0,67.7,30.4,67.7,67.7
		C540.6,435,510.3,465.4,473,465.4z"/>
	<path d="M529.1,393.8c0,31-25.1,56.1-56.1,56.1c-31,0-56-25.1-56-56.1c0-31,25.1-56.1,56-56.1C504,337.7,529.1,362.8,529.1,393.8z"
		/>
	<path class="st18" d="M529.1,393.8c0,31-25.1,56.1-56.1,56.1c-31,0-56-25.1-56-56.1c0-31,25.1-56.1,56-56.1
		C504,337.7,529.1,362.8,529.1,393.8z"/>
	<path class="st12" d="M566.6,355.2c-13.9,0-25.2-11.3-25.2-25.2c0-13.9,11.3-25.2,25.2-25.2c13.9,0,25.2,11.3,25.2,25.2
		C591.8,343.9,580.5,355.2,566.6,355.2z"/>
	<path class="st11" d="M566.6,306.4c13.1,0,23.7,10.6,23.7,23.7c0,13.1-10.6,23.7-23.7,23.7c-13.1,0-23.7-10.6-23.7-23.7
		C543,317,553.6,306.4,566.6,306.4 M566.6,303.4c-14.7,0-26.7,12-26.7,26.7c0,14.7,12,26.7,26.7,26.7c14.7,0,26.7-12,26.7-26.7
		C593.3,315.4,581.4,303.4,566.6,303.4z"/>
	<path class="st12" d="M566.6,254.2c-13.9,0-25.2-11.3-25.2-25.2c0-13.9,11.3-25.2,25.2-25.2c13.9,0,25.2,11.3,25.2,25.2
		C591.8,242.9,580.5,254.2,566.6,254.2z"/>
	<path class="st11" d="M566.6,205.4c13.1,0,23.7,10.6,23.7,23.7c0,13.1-10.6,23.7-23.7,23.7c-13.1,0-23.7-10.6-23.7-23.7
		C543,216,553.6,205.4,566.6,205.4 M566.6,202.4c-14.7,0-26.7,12-26.7,26.7c0,14.7,12,26.7,26.7,26.7c14.7,0,26.7-12,26.7-26.7
		C593.3,214.3,581.4,202.4,566.6,202.4z"/>
	<path class="st12" d="M617.2,304.7c-13.9,0-25.2-11.3-25.2-25.2c0-13.9,11.3-25.2,25.2-25.2c13.9,0,25.2,11.3,25.2,25.2
		C642.3,293.4,631,304.7,617.2,304.7z"/>
	<path class="st11" d="M617.2,255.9c13.1,0,23.7,10.6,23.7,23.7c0,13.1-10.6,23.7-23.7,23.7c-13.1,0-23.7-10.6-23.7-23.7
		C593.5,266.5,604.1,255.9,617.2,255.9 M617.2,252.9c-14.7,0-26.7,12-26.7,26.7c0,14.7,12,26.7,26.7,26.7c14.7,0,26.7-12,26.7-26.7
		C643.8,264.8,631.9,252.9,617.2,252.9z"/>
	<path class="st12" d="M516.1,304.7c-13.9,0-25.2-11.3-25.2-25.2c0-13.9,11.3-25.2,25.2-25.2c13.9,0,25.2,11.3,25.2,25.2
		C541.3,293.4,530,304.7,516.1,304.7z"/>
	<path class="st11" d="M516.1,255.9c13.1,0,23.7,10.6,23.7,23.7c0,13.1-10.6,23.7-23.7,23.7c-13.1,0-23.7-10.6-23.7-23.7
		C492.5,266.5,503.1,255.9,516.1,255.9 M516.1,252.9c-14.7,0-26.7,12-26.7,26.7c0,14.7,12,26.7,26.7,26.7c14.7,0,26.7-12,26.7-26.7
		C542.8,264.8,530.8,252.9,516.1,252.9z"/>
	<path class="st10" d="M375.6,156.6c0,0-88.9-1.1-100.5-3l-16.4,30.5c20.2,23.3,41.6,53.3,56.4,53.3c15.1,0,60.5,0,60.5,0
		s45.4,0,60.5,0c14.9,0,36.2-30,56.4-53.3l-16.4-30.5C464.5,155.5,375.6,156.6,375.6,156.6z"/>
	<path class="st19" d="M476.1,153.6l-3.6-6.8c-1.9,0.5-3.7,0.7-5.4,0.7c-21.9,0-92.1,0-92.1,0s-70.3,0-92.1,0
		c-1.4,0-2.8-0.2-4.3-0.5l-3.5,6.5c11.6,1.9,100.5,3,100.5,3S464.5,155.5,476.1,153.6z"/>
	<path class="st10" d="M642.4,192c-9-7.9-5.6-16.2-11.5-23.8c0.2,0.3,0.5,0.7,0.7,1c0,0-96.5-42-120.7-34.5
		c-15.6,4.9-27.2,15.3-32.8,18.2l15.9,29.6c11.2-12.7,21.9-23,31-24.7C545,153.9,608.9,174,642.4,192L642.4,192z"/>
	<path class="st19" d="M510.9,134.7c24.3-7.6,120.7,34.4,120.7,34.5c-0.2-0.3-0.5-0.7-0.7-1l-0.1-0.1c-0.1-0.1-0.2-0.2-0.3-0.4
		l-0.1-0.2c-0.1-0.1-0.2-0.2-0.3-0.3l-0.2-0.2c-0.1-0.1-0.2-0.2-0.3-0.3l-0.2-0.2c-0.1-0.1-0.2-0.2-0.3-0.3l-0.2-0.2
		c-0.1-0.1-0.2-0.2-0.3-0.3l-0.2-0.2c-0.1-0.1-0.2-0.2-0.3-0.3l-0.2-0.2c-0.1-0.1-0.2-0.2-0.3-0.3l-0.3-0.2
		c-0.1-0.1-0.2-0.2-0.3-0.3c-0.1-0.1-0.2-0.1-0.3-0.2c-0.1-0.1-0.2-0.2-0.4-0.3c-0.1,0-0.2-0.1-0.3-0.2c-0.1-0.1-0.3-0.2-0.4-0.3
		c-0.1-0.1-0.2-0.1-0.3-0.2c-0.1-0.1-0.3-0.2-0.4-0.3c-0.1-0.1-0.2-0.1-0.3-0.2c-0.2-0.1-0.3-0.2-0.5-0.3c-0.1-0.1-0.2-0.1-0.3-0.2
		c-0.2-0.1-0.4-0.2-0.5-0.3c-0.1-0.1-0.2-0.1-0.3-0.2c-0.3-0.2-0.6-0.3-0.8-0.5c-18.3-9.9-71.9-37-114.2-31.4
		c-7.6,1-21.6,12.3-33.8,16.3l3.6,6.7C483.7,150,495.3,139.6,510.9,134.7z"/>
	<path class="st19" d="M241.7,130c-42.2-5.6-95.9,21.4-114.2,31.4c-0.3,0.2-0.6,0.3-0.8,0.5c-0.1,0.1-0.2,0.1-0.2,0.2
		c-0.2,0.1-0.4,0.2-0.5,0.3c-0.1,0.1-0.2,0.1-0.3,0.2c-0.1,0.1-0.3,0.2-0.5,0.3c-0.1,0-0.2,0.1-0.3,0.2c-0.1,0.1-0.3,0.2-0.4,0.3
		c-0.1,0.1-0.2,0.1-0.3,0.2c-0.1,0.1-0.3,0.2-0.4,0.3c-0.1,0.1-0.2,0.1-0.3,0.2c-0.1,0.1-0.3,0.2-0.4,0.3l-0.2,0.2
		c-0.1,0.1-0.2,0.2-0.4,0.3l-0.2,0.2c-0.1,0.1-0.2,0.2-0.3,0.3l-0.2,0.2c-0.1,0.1-0.2,0.2-0.3,0.3l-0.2,0.2
		c-0.1,0.1-0.2,0.2-0.3,0.3l-0.2,0.2c-0.1,0.1-0.2,0.2-0.3,0.3l-0.1,0.2c-0.1,0.1-0.2,0.2-0.3,0.3l-0.1,0.1
		c-0.1,0.1-0.2,0.3-0.3,0.4l-0.1,0.1c-0.1,0.1-0.2,0.3-0.3,0.4l-0.1,0.1c-0.1,0.1-0.2,0.3-0.3,0.4l0,0c-0.1,0.2-0.2,0.3-0.3,0.5
		c0,0,97.6-41.9,121.9-34.4c15.5,4.9,27.2,15.3,32.8,18.2l3.4-6.3C264.2,143,249.5,131,241.7,130z"/>
	<path class="st10" d="M273.6,153.2c0.2,0.1,0.3,0.1,0.5,0.2C273.9,153.3,273.8,153.3,273.6,153.2z"/>
	<path class="st10" d="M273.2,152.9c-5.6-2.9-17.3-13.3-32.8-18.2c-24.2-7.5-121.2,34.1-121.9,34.4c-5,7.4-2.2,15.3-10.8,23l-0.1,0
		c33.1-17.9,99.1-38.1,118.7-34.3c9.1,1.8,19.9,12.1,31.1,24.7L273.2,152.9L273.2,152.9z"/>
	<path d="M273.2,152.9c0.2,0.1,0.3,0.2,0.5,0.2C273.5,153.1,273.3,153,273.2,152.9z"/>
	<path d="M258,183.3c0.2,0.3,0.5,0.6,0.7,0.8l16.4-30.5l3.5-6.5c-0.3-0.1-0.7-0.1-1-0.2c-0.3-0.1-0.7-0.2-1-0.3l-3.4,6.3l-15.8,29.6
		C257.5,182.8,257.8,183,258,183.3"/>
	<path d="M478.1,152.9l-3.6-6.7c-0.3,0.1-0.7,0.2-1,0.3c-0.3,0.1-0.7,0.2-1,0.3l3.6,6.8l16.4,30.5c0.2-0.3,0.5-0.5,0.7-0.8
		c0.2-0.3,0.5-0.5,0.7-0.8L478.1,152.9z"/>
	<path class="st10" d="M357,169.4L357,169.4L357,169.4z"/>
	<path class="st10" d="M549,5.7c-0.4-0.3-0.8-0.6-1.2-0.9l-2.3,109.9l53.2,7.2C586.6,5.2,555.7,10.9,549,5.7z"/>
	<path class="st2" d="M522,0.3c-10.8,0.4-12.1,11.4-12.2,15.2v1.2c0,0,2.9,40.7,0,93c9.9,2.3,38.5,5.3,38.5,5.3s0-20.9,0.7-50.6
		c0.8-37.5-1.2-59.8-1.2-59.8C541.4,0.3,534.2-0.1,522,0.3z"/>
	<path class="st10" d="M201.1,5.7c0.4-0.3,0.8-0.6,1.2-0.9l2.3,109.9l-53.2,7.2C163.5,5.2,194.4,10.9,201.1,5.7z"/>
	<path class="st2" d="M228.1,0.3c10.8,0.4,12.1,11.4,12.2,15.2v1.2c0,0-2.9,40.7,0,93c-9.9,2.3-38.5,5.3-38.5,5.3
		s-0.1-20.9-0.7-50.6c-0.8-37.5,1.2-59.8,1.2-59.8C208.7,0.3,215.9-0.1,228.1,0.3z"/>
	<path class="st20" d="M330.9,169.3L330.9,169.3L330.9,169.3l-0.1,0.1l-0.1,0.1l0,0l-0.1,0.1l0,0l-0.1,0.1l0,0l-0.1,0.1l0,0
		l-0.1,0.1l0,0l-0.1,0.1l0,0l-0.1,0.1l0,0l0,0.1l0,0l-0.1,0l0,0l-0.1,0.1l0,0l0,0.1l0,0l-0.1,0.1l0,0l-0.1,0.1l0,0l0,0.1l0,0l-0.1,0
		l0,0l-0.1,0.1l0,0l0,0.1l0,0l0,0.1l0,0l0,0.1l0,0.1l-0.1,0.1l0,0l0,0.1l0,0l-0.1,0.1l0,0l0,0.1l0,0l0,0.1l0,0
		c-0.3,0.7-0.2,1.4-0.1,2.1c0,0.2,0.1,0.4,0.2,0.6l0,0l0,0.1l0,0l0.1,0.1l0,0l0,0.1c0.4,0.9,1,1.5,1.7,2.1l0.1,0l0,0l0.1,0l0,0
		l0.1,0.1l0,0h0l0.1,0l0,0l0.1,0l0,0l0.1,0l0,0l0,0l0.1,0l0,0l0,0l0.1,0l0,0l0.1,0l0.1,0l0.1,0l0.1,0c0.3,0.1,0.6,0.2,0.9,0.2
		c0.9,0.1,1.3,0.4,1.5,1.2c0.1,0.3,0.1,0.5,0.2,0.8c0.4,1.9,0.8,3.7,1.2,5.6c0.4,2.1,0.9,4.2,1.3,6.3c0.4,1.8,0.7,3.5,1.1,5.3
		c0.4,2.1,0.9,4.2,1.3,6.3c0.4,2.1,0.9,4.1,1.3,6.2c0.2,0.7,0.4,1.4,0.5,2.2c0,0.1,0.1,0.2,0.1,0.3c0,0.4,0.2,0.4,0.5,0.4
		c0.4,0.1,0.7,0.2,1.1,0.2c21,0,42,0,63,0c0.4,0,0.8-0.1,1.2-0.2c0.2,0,0.4,0,0.4-0.3c0-0.2,0.1-0.4,0.1-0.6
		c0.2-0.9,0.4-1.8,0.6-2.7c0.3-1.3,0.5-2.6,0.8-4c0.2-1.1,0.5-2.2,0.7-3.3c0.2-1.2,0.5-2.3,0.7-3.5c0.3-1.3,0.5-2.6,0.8-3.9
		c0.3-1.6,0.7-3.3,1-4.9c0.3-1.5,0.6-3.1,1-4.6c0.3-1.4,0.6-2.8,0.9-4.2c0.1-0.5,0.2-1,0.3-1.5l0.1-0.1c0.1-0.6,0.6-0.9,1.1-1
		c0.2,0,0.4,0,0.7-0.1c2.5-0.4,4.3-2.8,3.9-5.3c-0.4-2.6-2.8-4.5-5.4-4c-1.8,0.3-3.1,1.4-3.7,3.1c-0.6,1.7-0.3,3.4,1,4.8
		c0,0.1,0,0.2,0,0.3c0.3,0.5,0.1,1-0.3,1.4c-0.6,0.7-1.2,1.5-1.8,2.2c-1.1,1.3-2.1,2.5-3.2,3.8c-0.9,1-1.8,2-2.7,3
		c-1.7,1.7-3.4,3.3-5.1,4.9c-1.3,1.2-2.7,2.3-4.2,3.3c-1,0.6-2,1.1-3.1,1.5c-1.2,0.4-2.2,0.1-3.2-0.6c-1.2-0.9-2.1-2.1-2.9-3.3
		c-0.2-0.3-0.5-0.6-0.7-1l0,0c-0.1-0.2-0.3-0.5-0.4-0.7l0,0l-0.1-0.1l0,0c-0.1-0.2-0.2-0.4-0.3-0.6l0,0l-0.1-0.1l0,0
		c0-0.1-0.1-0.2-0.1-0.3c-0.6-1.3-1.2-2.5-1.8-3.7c-0.1-0.3-0.3-0.5-0.4-0.8l0,0c-0.1-0.1-0.1-0.3-0.2-0.4l0,0
		c-0.1-0.2-0.2-0.5-0.3-0.7l0,0c0-0.1,0-0.2-0.1-0.3c-0.6-1.5-1.2-3.1-1.8-4.6c-0.7-2-1.4-4-2-6c-0.4-1.3-0.8-2.6-1.2-4
		c-0.1-0.5-0.1-0.9,0.3-1.3l0.2-0.2l0,0l0.1-0.1l0,0l0.1-0.1l0,0l0.1-0.1l0,0l0.1-0.1c1.4-1,2.1-2.3,2.1-4c0-1.5-0.7-2.8-1.9-3.7
		c-2-1.5-5-1.2-6.5,0.8l-0.1,0.1l-0.1,0.2l-0.1,0.1l0,0l-0.1,0.1l0,0l0,0.1l0,0l-0.1,0.1l0,0l0,0.1l0,0c-0.1,0.1-0.1,0.3-0.2,0.4
		l0,0l-0.1,0.3l0,0c-0.1,0.1-0.1,0.2-0.2,0.3c-0.2,0.9-0.2,1.8,0.1,2.6l0.1,0.2l0,0l0.1,0.1l0,0.1c0.1,0.1,0.1,0.3,0.2,0.4
		c0.4,0.7,0.9,1.3,1.6,1.7l0.1,0.1l0,0l0.2,0.2c0.5,0.4,0.6,0.9,0.5,1.4c-0.1,0.7-0.3,1.4-0.4,2.1c-0.7,3.1-1.7,6.1-2.8,9.1
		c-0.8,2.2-1.7,4.4-2.8,6.5c-0.6,1.1-1.1,2.2-1.8,3.3c-1.1,1.9-2.4,3.8-4,5.3c-0.4,0.4-0.9,0.7-1.4,1c-1.1,0.6-2.2,0.5-3.4,0.1
		c-1.3-0.4-2.4-1.1-3.6-1.8c-1.8-1.2-3.4-2.5-4.9-4c-1.5-1.5-3-3.1-4.5-4.7c-0.7-0.8-1.4-1.6-2.1-2.4c-1.2-1.5-2.3-2.9-3.5-4.4
		c-0.4-0.5-0.7-1-1-1.5c-0.2-0.4-0.2-0.8,0.1-1.2c0.1-0.1,0.1-0.2,0.2-0.4l0,0l0.2-0.2l0,0l0.1-0.2l0,0l0.2-0.1
		c0.7-1.3,0.8-2.7,0.3-4.1c-0.1-0.3-0.3-0.5-0.5-0.7l0,0l-0.1-0.2l0,0l0-0.1l0,0l-0.1-0.2l0,0l0-0.1l0,0l-0.1-0.1l0,0l-0.1-0.1l0,0
		c0-0.2-0.1-0.3-0.4-0.4l0,0l-0.1-0.1l0,0l-0.1-0.1l0,0l-0.1-0.1l0,0l-0.2-0.2l0,0l-0.2-0.1l0,0c-0.1-0.1-0.2-0.1-0.3-0.2l0,0
		l-0.2-0.1l0,0c-0.1-0.1-0.2-0.2-0.3-0.2c-0.9-0.3-1.7-0.3-2.6-0.2c-0.3,0.1-0.6,0.3-1,0.4l0,0l-0.1,0l0,0l-0.1,0l0,0l-0.1,0l0,0
		l-0.1,0.1l0,0l-0.1,0l0,0l-0.1,0l0,0l-0.1,0.1l-0.1,0.1l-0.1,0L330.9,169.3L330.9,169.3z"/>
	<path class="st20" d="M342,223.4c0,0.3,0,0.6,0,0.9c0.8,0.1,65.4,0.1,65.9,0c0-0.3,0-0.6,0-0.8c0-0.1,0.1-0.2,0.1-0.3
		c0-1.6,0-3.2,0-4.8c0-0.1,0-0.2-0.1-0.3c0-0.3,0-0.6,0-0.9c-0.3,0-0.5,0-0.7,0c-0.3,0-0.6-0.1-0.9-0.1c-19.2,0-38.4,0-57.6,0
		c-1.8,0-3.5,0-5.3,0c-0.2,0-0.5,0.1-0.7,0.1c-0.2,0-0.5,0-0.7,0c0,0.3,0,0.6,0,0.9c0,0.1-0.1,0.2-0.1,0.3c0,1.6,0,3.2,0,4.8
		C342,223.2,342,223.3,342,223.4z"/>
	<path class="st21" d="M329.4,174.5L329.4,174.5c-0.1-0.5-0.2-0.9-0.2-1.4c0-0.5,0.1-0.9,0.1-1.4l0,0l0-0.1l0,0l0-0.1l0,0l0.1-0.1
		l0,0l0-0.1l0,0l0.1-0.1l0-0.1l0-0.1l0,0l0-0.1l0,0l0-0.1l0,0l0.1-0.1l0,0l0.1,0l0,0l0-0.1l0,0l0.1-0.1l0,0l0.1-0.1l0,0l0-0.1l0,0
		l0.1-0.1l0,0l0.1,0l0,0l0-0.1l0,0l0.1-0.1l0,0l0.1-0.1l0,0l0.1-0.1l0,0l0.1-0.1l0,0l0.1-0.1l0,0l0.1-0.1l0,0l0.1-0.1l0.1-0.1l0-0.1
		l0,0l0.1-0.1l0,0l0.1,0l0.1-0.1l0.1-0.1l0,0l0.1,0l0,0l0.1,0l0,0l0.1-0.1l0,0l0.1,0l0,0l0.1,0l0,0l0.1,0l0,0l0.2-0.1
		c0.7-0.3,1.4-0.4,2.2-0.3c0.5,0.1,1,0.2,1.5,0.4l0,0l0.2,0.1l0,0c0.1,0.1,0.2,0.1,0.3,0.2l0,0l0.2,0.1l0,0l0.2,0.2l0,0l0.1,0.1l0,0
		l0.1,0.1l0,0l0.1,0.1l0,0c0.1,0.1,0.2,0.2,0.4,0.4l0,0l0.1,0.1l0,0l0.1,0.1l0,0l0,0.1l0,0l0.1,0.2l0,0l0,0.1l0,0l0.1,0.2l0,0
		c0.1,0.1,0.1,0.2,0.2,0.4c0.5,0.9,0.7,2,0.4,3c-0.1,0.6-0.4,1.1-0.6,1.7l0,0l-0.1,0.2l0,0l-0.2,0.2l0,0c-0.3,0.2-0.5,0.5-0.8,0.7
		c-0.2,0.1-0.2,0.2-0.1,0.4c0.3,0.4,0.6,0.8,0.9,1.1c1,1.3,2,2.6,3,3.8c0.9,1.1,1.8,2.2,2.7,3.2c0.8,1,1.7,2,2.6,2.9
		c1.1,1.2,2.3,2.3,3.5,3.5c0.4,0.4,0.8,0.8,1.3,1.1c0.7,0.5,1.3,1.1,2,1.6c1.6,1.1,3.2,2.1,5.2,2.4c0.8,0.1,1.7,0,2.4-0.4
		c0.8-0.5,1.6-1.1,2.2-1.8c1.1-1.2,2-2.5,2.9-3.9c1.2-2,2.2-4,3.1-6.1c0.8-2,1.6-4,2.4-6c0.6-1.8,1.2-3.6,1.7-5.5
		c0.5-1.7,0.8-3.4,1.2-5.1c-0.4-0.2-0.8-0.3-1.1-0.5l0,0l-0.1-0.1c-0.7-0.4-1.2-1-1.6-1.7c-0.1-0.1-0.1-0.3-0.2-0.4l0-0.1l-0.1-0.1
		l0,0l0-0.2c-0.2-0.6-0.3-1.2-0.2-1.9c0.1-0.4,0.1-0.7,0.2-1.1l0,0l0.1-0.3l0,0c0.1-0.1,0.1-0.3,0.2-0.4l0,0l0-0.1l0,0l0.1-0.1l0,0
		l0-0.1l0,0l0.1-0.1l0,0l0.1-0.1l0.1-0.2l0.1-0.1c1.5-2,4.6-2.4,6.5-0.8c1.2,0.9,1.9,2.2,1.9,3.7c0,1.7-0.7,3-2.1,4l-0.1,0.1l0,0
		l-0.1,0.1l0,0l-0.1,0.1l0,0l-0.1,0.1l0,0c-0.3,0.1-0.7,0.3-1,0.4c0.1,0.3,0.2,0.6,0.3,0.9c0.6,2,1.2,4.1,1.9,6.1
		c0.8,2.5,1.7,4.9,2.6,7.3c0.2,0.6,0.5,1.2,0.8,1.8l0,0c0.1,0.2,0.2,0.5,0.3,0.7l0,0c0.1,0.1,0.1,0.3,0.2,0.4l0,0l0,0.1
		c0.7,1.5,1.4,3,2.1,4.5l0.1,0.2l0,0l0.1,0.1l0,0c0.1,0.2,0.2,0.4,0.3,0.6l0,0l0.1,0.1l0,0c0.1,0.2,0.3,0.5,0.4,0.7l0,0
		c0.1,0.1,0.1,0.3,0.2,0.4c0.9,1.4,1.8,2.8,3.1,3.9c1.1,0.9,2.3,1.2,3.7,0.7c1.2-0.4,2.4-1,3.4-1.8c2.3-1.6,4.4-3.4,6.4-5.4
		c1.5-1.5,2.9-3,4.4-4.6c0.6-0.6,1.1-1.2,1.6-1.8c1-1.2,2.1-2.4,3.1-3.6c0.7-0.8,1.4-1.7,2.1-2.6c-0.3-0.2-0.5-0.5-0.8-0.7
		c-1.2-1.4-1.6-3-1-4.8c0.6-1.7,1.9-2.8,3.7-3.1c2.6-0.5,5.1,1.4,5.4,4c0.4,2.5-1.4,4.9-3.9,5.3c-0.2,0-0.4,0-0.7,0.1
		c-0.3,0-0.7-0.1-1-0.1c-0.1,0.4-0.2,0.9-0.2,1.3c-0.1,0.5-0.2,1-0.3,1.5c-0.3,1.4-0.6,2.8-0.9,4.2c-0.3,1.5-0.6,3.1-1,4.6
		c-0.3,1.6-0.7,3.3-1,4.9c-0.3,1.3-0.5,2.6-0.8,3.9c-0.2,1.2-0.5,2.3-0.7,3.5c-0.2,1.1-0.5,2.2-0.7,3.3c-0.3,1.3-0.5,2.6-0.8,4
		c-0.2,0.9-0.4,1.8-0.6,2.7c0,0.2-0.1,0.4-0.1,0.6c0,0.3-0.2,0.3-0.4,0.3c-0.1,0-0.2,0-0.3,0c-21.3,0-42.7,0-64,0c-0.3,0-0.7,0-1,0
		c-0.3,0-0.6,0-0.5-0.4c0-0.1-0.1-0.2-0.1-0.3c0-0.1,0-0.2,0-0.3c-0.2-0.8-0.3-1.6-0.5-2.4c-0.3-1.3-0.5-2.5-0.8-3.8
		c-0.3-1.4-0.6-2.7-0.9-4.1c-0.3-1.3-0.5-2.5-0.8-3.8c-0.3-1.4-0.6-2.7-0.9-4.1c-0.3-1.3-0.5-2.5-0.8-3.8c-0.3-1.3-0.6-2.6-0.9-4
		c-0.2-1-0.4-1.9-0.6-2.9c-0.2-0.8-0.3-1.7-0.5-2.5c-0.2-0.9-0.3-1.7-0.5-2.6c-0.3,0-0.7,0.1-1,0.1c-0.4,0-0.8-0.1-1.3-0.2l-0.1,0
		l-0.1,0l-0.1,0l-0.1,0l0,0l-0.1,0l0,0l0,0l-0.1,0l0,0l0,0l-0.1,0l0,0l-0.1,0l0,0l-0.1,0h0l0,0l-0.1-0.1l0,0l-0.1,0l0,0l-0.1,0
		c-0.7-0.5-1.3-1.2-1.7-2.1l0-0.1l0,0l-0.1-0.1l0,0L329.4,174.5z M375,170l-0.1,0c-0.3,0.5-0.5,1.1-0.7,1.6c-0.5,1.7-0.9,3.4-1.4,5
		c-0.8,2.4-1.6,4.8-2.6,7.1c-0.9,2-1.8,4-2.8,5.8c-1,1.8-2.1,3.6-3.5,5.2c-0.9,1-1.9,2-3.2,2.5c-1,0.5-2.1,0.6-3.3,0.4
		c-1.6-0.3-2.9-1-4.2-1.8c-2-1.2-3.7-2.7-5.4-4.3c-1.4-1.3-2.7-2.7-4-4.1c-0.9-1-1.8-2-2.6-3c-0.8-1-1.6-2-2.5-3
		c-0.3-0.4-0.7-0.7-1.1-1c-0.4-0.3-0.7,0-0.6,0.4c0,0.7,0.1,1.4,0.2,2.1c0.3,1.5,0.6,3,0.9,4.5c0.5,2.3,1,4.6,1.4,6.9
		c0.3,1.6,0.7,3.2,1,4.8c0.3,1.6,0.7,3.2,1,4.8c0.4,1.7,0.7,3.4,1.1,5.1c0.2,1.1,1,2,2.4,2c9.9,0,19.7,0,29.6,0c0.5,0,0.4,0,0.4-0.4
		c0-13.5,0-27,0-40.5C375,170.2,375,170.1,375,170z M337.2,173c0-0.3-0.1-0.6-0.2-0.9c-0.4-1.4-1.8-2.6-3.6-2.4
		c-0.9,0.1-1.7,0.5-2.3,1.3c-1.2,1.5-0.9,3.7,0.8,4.8c0.9,0.6,2,1,3,1.3c0.4,0.1,0.7,0,0.9-0.4c0.3-0.6,0.6-1.1,0.8-1.7
		C337,174.4,337.3,173.7,337.2,173z M374.9,168.4L374.9,168.4c0.1-2.8,0.1-5.5,0.1-8.3l-0.1,0h-0.2c-0.8,0.1-1.5,0.4-2,1
		c-1.1,1.2-1.2,3.1-0.1,4.4c0.6,0.8,1.3,1.5,1.9,2.3C374.5,168,374.7,168.2,374.9,168.4z"/>
	<path class="st22" d="M342.4,212.5c0.3,0,0.7,0,1,0c21.3,0,42.7,0,64,0c0.1,0,0.2,0,0.3,0c-0.4,0.1-0.8,0.2-1.2,0.2
		c-21,0-42,0-63,0C343.2,212.6,342.8,212.5,342.4,212.5z"/>
	<path class="st22" d="M372.6,167.4c0.4,0.2,0.7,0.3,1.1,0.5c-0.4,1.7-0.7,3.4-1.2,5.1c-0.5,1.8-1,3.7-1.7,5.5c-0.7,2-1.5,4-2.4,6
		c-0.9,2.1-1.9,4.1-3.1,6.1c-0.8,1.4-1.8,2.7-2.9,3.9c-0.7,0.7-1.4,1.4-2.2,1.8c-0.8,0.4-1.6,0.5-2.4,0.4c-2-0.3-3.6-1.3-5.2-2.4
		c-0.7-0.5-1.4-1-2-1.6c-0.4-0.4-0.9-0.7-1.3-1.1c-1.2-1.1-2.4-2.3-3.5-3.5c-0.9-0.9-1.7-1.9-2.6-2.9c-0.9-1.1-1.9-2.1-2.7-3.2
		c-1-1.3-2-2.6-3-3.8c-0.3-0.4-0.6-0.8-0.9-1.1c-0.1-0.2-0.1-0.3,0.1-0.4c0.3-0.2,0.5-0.5,0.8-0.7c-0.1,0.1-0.1,0.3-0.2,0.4
		c-0.3,0.4-0.3,0.8-0.1,1.2c0.3,0.5,0.7,1,1,1.5c1.2,1.5,2.3,3,3.5,4.4c0.7,0.8,1.4,1.6,2.1,2.4c1.5,1.6,2.9,3.2,4.5,4.7
		c1.5,1.5,3.1,2.8,4.9,4c1.1,0.7,2.3,1.4,3.6,1.8c1.1,0.4,2.3,0.5,3.4-0.1c0.5-0.3,1-0.6,1.4-1c1.7-1.5,2.9-3.4,4-5.3
		c0.6-1.1,1.2-2.2,1.8-3.3c1.1-2.1,2-4.3,2.8-6.5c1.1-3,2-6,2.8-9.1c0.2-0.7,0.3-1.4,0.4-2.1c0.1-0.6,0-1.1-0.5-1.4L372.6,167.4z"/>
	<path class="st22" d="M412.6,176.2c0.3,0.2,0.5,0.5,0.8,0.7c-0.7,0.9-1.4,1.7-2.1,2.6c-1,1.2-2,2.4-3.1,3.6c-0.5,0.6-1,1.2-1.6,1.8
		c-1.5,1.5-2.9,3.1-4.4,4.6c-2,2-4.1,3.8-6.4,5.4c-1.1,0.7-2.2,1.4-3.4,1.8c-1.4,0.4-2.6,0.2-3.7-0.7c-1.3-1.1-2.3-2.5-3.1-3.9
		c-0.1-0.1-0.1-0.3-0.2-0.4c0.2,0.3,0.5,0.6,0.7,1c0.8,1.2,1.7,2.4,2.9,3.3c1,0.7,2,0.9,3.2,0.6c1.1-0.3,2.1-0.9,3.1-1.5
		c1.5-1,2.9-2,4.2-3.3c1.7-1.6,3.4-3.3,5.1-4.9c1-0.9,1.8-2,2.7-3c1.1-1.2,2.1-2.5,3.2-3.8c0.6-0.7,1.2-1.4,1.8-2.2
		c0.3-0.4,0.5-0.9,0.3-1.4C412.6,176.4,412.7,176.3,412.6,176.2z"/>
	<path class="st22" d="M340,203.4c-0.4-2.1-0.9-4.2-1.3-6.3c-0.4-1.8-0.7-3.5-1.1-5.3c-0.4-2.1-0.9-4.2-1.3-6.3
		c-0.4-1.9-0.8-3.7-1.2-5.6c-0.1-0.3-0.1-0.5-0.2-0.8c-0.2-0.8-0.6-1.2-1.5-1.2c-0.3,0-0.6-0.2-0.9-0.2c0.4,0.1,0.8,0.1,1.3,0.2
		c0.3,0,0.6-0.1,1-0.1c0.2,0.9,0.3,1.7,0.5,2.6c0.2,0.8,0.3,1.7,0.5,2.5c0.2,1,0.4,1.9,0.6,2.9c0.3,1.3,0.6,2.7,0.9,4
		c0.3,1.3,0.5,2.5,0.8,3.8c0.3,1.4,0.6,2.7,0.9,4.1c0.3,1.3,0.5,2.5,0.8,3.8c0.3,1.4,0.6,2.7,0.9,4.1c0.3,1.3,0.5,2.5,0.8,3.8
		c0.2,0.8,0.3,1.6,0.5,2.4c0,0.1,0,0.2,0,0.3c-0.2-0.7-0.4-1.4-0.5-2.2"/>
	<path class="st22" d="M381.8,184.1c-0.3-0.6-0.5-1.2-0.8-1.8c-0.9-2.4-1.8-4.9-2.6-7.3c-0.7-2-1.2-4-1.9-6.1
		c-0.1-0.3-0.2-0.6-0.3-0.9c0.3-0.1,0.7-0.2,1-0.4l-0.2,0.2c-0.5,0.3-0.5,0.8-0.3,1.3c0.4,1.3,0.8,2.7,1.2,4c0.7,2,1.3,4,2,6
		c0.6,1.6,1.2,3.1,1.8,4.6C381.7,183.9,381.8,184,381.8,184.1z"/>
	<path class="st22" d="M337.9,175.5c0.2-0.6,0.5-1.1,0.6-1.7c0.2-1,0.1-2-0.4-3c-0.1-0.1-0.1-0.2-0.2-0.4c0.2,0.2,0.4,0.5,0.5,0.7
		c0.5,1.4,0.4,2.8-0.3,4.1L337.9,175.5z"/>
	<path class="st22" d="M384.6,190.1l-0.1-0.2c-0.7-1.5-1.4-3-2.1-4.5l0-0.1c0.1,0.3,0.3,0.5,0.4,0.8c0.6,1.2,1.2,2.5,1.8,3.7
		C384.5,189.9,384.5,190,384.6,190.1z"/>
	<path class="st22" d="M335.8,168.7c-0.5-0.1-1-0.3-1.5-0.4c-0.8-0.1-1.5,0-2.2,0.3l-0.2,0.1c0.3-0.1,0.6-0.3,1-0.4
		c0.9-0.2,1.8-0.1,2.6,0.2C335.6,168.5,335.7,168.6,335.8,168.7z"/>
	<path class="st22" d="M415,178.9c0.1-0.4,0.2-0.8,0.2-1.3c0.3,0,0.6,0.1,1,0.1c-0.6,0.1-1,0.5-1.1,1L415,178.9z"/>
	<path class="st22" d="M370.6,161.9c-0.1,0.4-0.1,0.7-0.2,1.1c-0.1,0.6,0,1.3,0.2,1.9l0,0.2l-0.1-0.2c-0.3-0.9-0.3-1.7-0.1-2.6
		C370.4,162.1,370.5,162,370.6,161.9z"/>
	<path class="st22" d="M329.3,171.8c0,0.5-0.1,0.9-0.1,1.4c0,0.4,0.1,0.9,0.2,1.3c-0.1-0.2-0.2-0.4-0.2-0.6
		C329,173.1,329,172.4,329.3,171.8z"/>
	<path class="st22" d="M385.4,191.6c-0.1-0.2-0.3-0.5-0.4-0.7C385.1,191.1,385.3,191.4,385.4,191.6z"/>
	<path class="st22" d="M382.1,184.8c-0.1-0.2-0.2-0.5-0.3-0.7C381.9,184.3,382,184.6,382.1,184.8z"/>
	<path class="st22" d="M384.9,190.8c-0.1-0.2-0.2-0.4-0.3-0.6C384.7,190.4,384.8,190.6,384.9,190.8z"/>
	<path class="st22" d="M337.4,169.9c-0.1-0.1-0.2-0.2-0.4-0.4C337.2,169.5,337.4,169.7,337.4,169.9z"/>
	<path class="st22" d="M370.7,165.2c0.1,0.1,0.1,0.3,0.2,0.4C370.9,165.5,370.8,165.4,370.7,165.2z"/>
	<path class="st22" d="M370.9,161.2c-0.1,0.1-0.1,0.3-0.2,0.4C370.8,161.4,370.8,161.3,370.9,161.2z"/>
	<path class="st22" d="M382.3,185.2c-0.1-0.1-0.1-0.3-0.2-0.4C382.1,185,382.2,185.1,382.3,185.2z"/>
	<path class="st22" d="M336.4,169c-0.1-0.1-0.2-0.1-0.3-0.2C336.2,168.9,336.3,169,336.4,169z"/>
	<path class="st22" d="M336.8,169.3l-0.2-0.2L336.8,169.3z"/>
	<path class="st22" d="M337.6,176l0.2-0.2L337.6,176z"/>
	<path class="st22" d="M336.1,168.9l-0.2-0.1L336.1,168.9z"/>
	<path class="st22" d="M370.7,161.6l-0.1,0.3L370.7,161.6z"/>
	<path class="st22" d="M336.6,169.2l-0.2-0.1L336.6,169.2z"/>
	<path class="st22" d="M337.7,170.3l-0.1-0.2L337.7,170.3z"/>
	<path class="st22" d="M337.9,170.5l-0.1-0.2L337.9,170.5z"/>
	<path class="st22" d="M337.7,175.7l0.1-0.2L337.7,175.7z"/>
	<path class="st22" d="M371.1,160.8l-0.1,0.1L371.1,160.8z"/>
	<path class="st22" d="M377.2,167.6l0.1-0.1L377.2,167.6z"/>
	<path class="st22" d="M370.6,165.1l0.1,0.1L370.6,165.1z"/>
	<path class="st22" d="M372.5,167.4l0.1,0.1L372.5,167.4z"/>
	<path class="st22" d="M329.6,171l-0.1,0.1L329.6,171z"/>
	<path class="st22" d="M329.4,171.4l0,0.1L329.4,171.4z"/>
	<path class="st22" d="M329.3,171.6l0,0.1L329.3,171.6z"/>
	<path class="st22" d="M329.4,174.5l0,0.1L329.4,174.5z"/>
	<path class="st22" d="M332.1,177.4l0.1,0L332.1,177.4z"/>
	<path class="st22" d="M332.3,177.5l0.1,0L332.3,177.5z"/>
	<path class="st22" d="M331.6,168.9L331.6,168.9L331.6,168.9z"/>
	<path class="st22" d="M377.6,167.4L377.6,167.4L377.6,167.4z"/>
	<path class="st22" d="M331.5,168.9L331.5,168.9L331.5,168.9z"/>
	<path class="st22" d="M331.4,169L331.4,169L331.4,169z"/>
	<path class="st22" d="M331.3,169L331.3,169L331.3,169z"/>
	<path class="st22" d="M331.2,169.1L331.2,169.1L331.2,169.1z"/>
	<path class="st22" d="M331.1,169.2L331.1,169.2L331.1,169.2z"/>
	<path class="st22" d="M330.2,170L330.2,170L330.2,170z"/>
	<path class="st22" d="M337.5,170.1L337.5,170.1L337.5,170.1z"/>
	<path class="st22" d="M330.1,170.1L330.1,170.1L330.1,170.1z"/>
	<path class="st22" d="M330.1,170.2L330.1,170.2L330.1,170.2z"/>
	<path class="st22" d="M330,170.3L330,170.3L330,170.3z"/>
	<path class="st22" d="M337.7,170.3L337.7,170.3L337.7,170.3z"/>
	<path class="st22" d="M329.9,170.4L329.9,170.4L329.9,170.4z"/>
	<path class="st22" d="M329.9,170.4L329.9,170.4L329.9,170.4z"/>
	<path class="st22" d="M337.5,170L337.5,170L337.5,170z"/>
	<path class="st22" d="M329.8,170.5L329.8,170.5L329.8,170.5z"/>
	<path class="st22" d="M329.8,170.7L329.8,170.7L329.8,170.7z"/>
	<path class="st22" d="M329.7,170.8L329.7,170.8L329.7,170.8z"/>
	<path class="st22" d="M329.7,170.9L329.7,170.9L329.7,170.9z"/>
	<path class="st22" d="M371.2,160.7L371.2,160.7L371.2,160.7z"/>
	<path class="st22" d="M329.5,171.1L329.5,171.1L329.5,171.1z"/>
	<path class="st22" d="M329.5,171.3L329.5,171.3L329.5,171.3z"/>
	<path class="st22" d="M371.1,160.9L371.1,160.9L371.1,160.9z"/>
	<path class="st22" d="M371,161L371,161L371,161z"/>
	<path class="st22" d="M330.3,170L330.3,170L330.3,170z"/>
	<path class="st22" d="M370.9,161.1L370.9,161.1L370.9,161.1z"/>
	<path class="st22" d="M329.4,174.7L329.4,174.7L329.4,174.7z"/>
	<path class="st22" d="M329.5,174.8L329.5,174.8L329.5,174.8z"/>
	<path class="st22" d="M371.4,160.4L371.4,160.4L371.4,160.4z"/>
	<path class="st22" d="M377.4,167.4L377.4,167.4L377.4,167.4z"/>
	<path class="st22" d="M337.4,169.9L337.4,169.9L337.4,169.9z"/>
	<path class="st22" d="M331.2,177L331.2,177L331.2,177z"/>
	<path class="st22" d="M331.3,177L331.3,177L331.3,177z"/>
	<path class="st22" d="M331.4,177.1L331.4,177.1L331.4,177.1z"/>
	<path class="st22" d="M331.5,177.1L331.5,177.1L331.5,177.1z"/>
	<path class="st22" d="M331.6,177.2L331.6,177.2L331.6,177.2z"/>
	<path class="st22" d="M331.8,177.3L331.8,177.3L331.8,177.3z"/>
	<path class="st22" d="M331.9,177.3L331.9,177.3L331.9,177.3z"/>
	<path class="st22" d="M332,177.4L332,177.4L332,177.4z"/>
	<path class="st22" d="M377.3,167.5L377.3,167.5L377.3,167.5z"/>
	<path class="st22" d="M331.8,168.7L331.8,168.7L331.8,168.7z"/>
	<path class="st22" d="M330.3,169.9L330.3,169.9L330.3,169.9z"/>
	<path class="st22" d="M330.4,169.8L330.4,169.8L330.4,169.8z"/>
	<path class="st22" d="M337,169.5L337,169.5L337,169.5z"/>
	<path class="st22" d="M331.7,168.8L331.7,168.8L331.7,168.8z"/>
	<path class="st22" d="M330.4,169.8L330.4,169.8L330.4,169.8z"/>
	<path class="st22" d="M384.6,190.2L384.6,190.2L384.6,190.2z"/>
	<path class="st22" d="M330.5,169.7L330.5,169.7L330.5,169.7z"/>
	<path class="st22" d="M385,190.9L385,190.9L385,190.9z"/>
	<path class="st22" d="M330.6,169.6L330.6,169.6L330.6,169.6z"/>
	<path class="st22" d="M330.6,169.6L330.6,169.6L330.6,169.6z"/>
	<path class="st22" d="M330.7,169.5L330.7,169.5L330.7,169.5z"/>
	<path class="st22" d="M330.8,169.5L330.8,169.5L330.8,169.5z"/>
	<path class="st22" d="M337,169.5L337,169.5L337,169.5z"/>
	<path class="st22" d="M336.9,169.4L336.9,169.4L336.9,169.4z"/>
	<path class="st22" d="M330.9,169.3L330.9,169.3L330.9,169.3z"/>
	<path class="st22" d="M330.9,169.3L330.9,169.3L330.9,169.3z"/>
	<path class="st21" d="M407.2,217.1c0.2,0,0.5,0,0.7,0c0,0.3,0,0.6,0,0.9l-0.1,0.3c0,1.7,0,3.4,0,5.1c0,0.3,0,0.6,0,0.8
		c-0.5,0.1-65.1,0.1-65.9,0c0-0.3,0-0.6,0-0.9c0-1.8,0-3.6,0-5.4c0-0.3,0-0.6,0-0.9c0.3,0,0.5,0,0.7,0l0.2,0c21.1,0,42.2,0,63.3,0
		C406.6,217.1,406.9,217.1,407.2,217.1z M359.9,223.1c4.9,0,9.8,0,14.7,0c0.4,0,0.4,0,0.4-0.4c0-1.3,0-2.6,0-4c0-0.4,0-0.4-0.4-0.4
		c-9.7,0-19.4,0-29,0c-0.3,0-0.5,0-0.8,0.1c-0.4,0.1-0.8,0.3-1.1,0.6c-0.3,0.3-0.4,0.7-0.4,1.1c0,0.6,0,1.1,0.1,1.6
		c0.2,0.8,0.9,1.3,1.8,1.3C350.1,223.1,355,223.1,359.9,223.1z"/>
	<path class="st22" d="M407.2,217.1c-0.3,0-0.6,0-0.9,0c-21.1,0-42.2,0-63.3,0l-0.2,0c0.2,0,0.5-0.1,0.7-0.1c1.8,0,3.5,0,5.3,0
		c19.2,0,38.4,0,57.6,0C406.6,217,406.9,217.1,407.2,217.1z"/>
	<path class="st22" d="M407.9,223.4c0-1.7,0-3.4,0-5.1l0.1-0.3c0,0.1,0.1,0.2,0.1,0.3c0,1.6,0,3.2,0,4.8
		C408,223.2,407.9,223.3,407.9,223.4z"/>
	<path class="st22" d="M342,218c0,1.8,0,3.6,0,5.4c0-0.1-0.1-0.2-0.1-0.3c0-1.6,0-3.2,0-4.8C342,218.2,342,218.1,342,218z"/>
	<path class="st22" d="M375,170c0,0.1,0,0.2,0,0.3c0,13.5,0,27,0,40.5c0,0.5,0.1,0.4-0.4,0.4c-9.9,0-19.7,0-29.6,0
		c-1.4,0-2.2-0.9-2.4-2c-0.3-1.7-0.7-3.4-1.1-5.1c-0.3-1.6-0.7-3.2-1-4.8c-0.3-1.6-0.7-3.2-1-4.8c-0.5-2.3-1-4.6-1.4-6.9
		c-0.3-1.5-0.7-3-0.9-4.5c-0.1-0.7-0.2-1.4-0.2-2.1c0-0.5,0.3-0.7,0.6-0.4c0.4,0.3,0.8,0.6,1.1,1c0.8,1,1.6,2,2.5,3
		c0.9,1,1.7,2.1,2.6,3c1.3,1.4,2.6,2.8,4,4.1c1.7,1.6,3.4,3.1,5.4,4.3c1.3,0.8,2.7,1.5,4.2,1.8c1.1,0.2,2.2,0.1,3.3-0.4
		c1.3-0.6,2.3-1.5,3.2-2.5c1.4-1.6,2.5-3.4,3.5-5.2c1.1-1.9,2-3.9,2.8-5.8c1-2.3,1.9-4.7,2.6-7.1c0.5-1.7,0.9-3.4,1.4-5
		c0.2-0.6,0.4-1.1,0.7-1.6L375,170z"/>
	<path class="st22" d="M337.2,173c0,0.7-0.3,1.4-0.5,2c-0.2,0.6-0.5,1.2-0.8,1.7c-0.2,0.4-0.5,0.5-0.9,0.4c-1.1-0.3-2.1-0.7-3-1.3
		c-1.6-1.1-2-3.3-0.8-4.8c0.6-0.7,1.3-1.2,2.3-1.3c1.7-0.2,3.2,1,3.6,2.4C337.2,172.4,337.2,172.7,337.2,173z"/>
	<path class="st22" d="M374.9,168.4c-0.2-0.2-0.3-0.4-0.5-0.6c-0.6-0.8-1.3-1.5-1.9-2.3c-1-1.3-1-3.1,0.1-4.4c0.5-0.6,1.2-0.9,2-1
		h0.2l0.1,0C374.9,162.9,374.9,165.6,374.9,168.4L374.9,168.4z"/>
	<path class="st22" d="M359.9,223.1c-4.9,0-9.8,0-14.7,0c-0.9,0-1.6-0.4-1.8-1.3c-0.1-0.5-0.1-1.1-0.1-1.6c0-0.4,0.1-0.8,0.4-1.1
		c0.3-0.4,0.6-0.6,1.1-0.6c0.3-0.1,0.5-0.1,0.8-0.1c9.7,0,19.4,0,29,0c0.4,0,0.4,0,0.4,0.4c0,1.3,0,2.6,0,4c0,0.4,0,0.4-0.4,0.4
		C369.7,223.1,364.8,223.1,359.9,223.1z"/>
</g>
</svg>
