<svg id="Layer_1" data-name="Layer 1" xmlns="http://www.w3.org/2000/svg" xmlns:xlink="http://www.w3.org/1999/xlink" width="749.54" height="630.07" viewBox="0 0 749.54 630.07"><defs><linearGradient id="linear-gradient" x1="-3.03" y1="641.53" x2="645.88" y2="266.88" gradientUnits="userSpaceOnUse"><stop offset="0"/><stop offset="0.06" stop-color="#0a0101"/><stop offset="0.32" stop-color="#300606"/><stop offset="0.57" stop-color="#4b090a"/><stop offset="0.78" stop-color="#5c0b0c"/><stop offset="0.94" stop-color="#620c0d"/></linearGradient></defs><path d="M664.19,214c-6.71-16.67-20.53-20.86-21.8-22-11.7-10.33-2.48-21.2-19.94-30.67-18.27-9.91-71.93-37-114.15-31.36-9.22,1.23-27.82,17.6-41.19,17.6H282.9c-13.37,0-32-16.37-41.19-17.6-42.23-5.62-95.88,21.45-114.15,31.36-17.46,9.47-8.24,20.34-19.93,30.67-1.28,1.13-15.1,5.32-21.81,22C23.1,370-1.51,469,.32,529c2.89,94.36,76.54,101.26,76.54,101.26,37-8.61,111.48-129,168.43-129H504.72c56.95,0,131.42,120.44,168.44,129.05,0,0,73.63-6.9,76.51-101.26C751.54,469,726.88,370,664.19,214Z" transform="translate(-0.23 -0.19)"/><path d="M664.19,214a38.13,38.13,0,0,0-12.88-16.78,44.68,44.68,0,0,0-7.39-4.38,11.29,11.29,0,0,1-1.53-.82c-33.54-18-97.4-38.13-117.4-34.28-26,5-65.5,79.66-88.92,79.66H315.16c-23.42,0-62.93-74.64-88.92-79.66-19.57-3.78-85.53,16.44-118.67,34.31a13.2,13.2,0,0,1-1.16.65A44.71,44.71,0,0,0,97.72,198a38.29,38.29,0,0,0-11.9,16C23.1,370-1.51,469,.32,529c2.89,94.36,76.54,101.26,76.54,101.26,37-8.61,111.48-129,168.43-129H504.72c56.95,0,131.42,120.44,168.44,129.05,0,0,73.63-6.9,76.51-101.26,1.87-60-22.79-159-85.48-315Z" transform="translate(-0.23 -0.19)" style="fill:url(#linear-gradient)"/><path d="M277.73,462a60.59,60.59,0,1,1,60.59-60.59A60.66,60.66,0,0,1,277.73,462Z" transform="translate(-0.23 -0.19)"/><path d="M277.73,341.85a59.59,59.59,0,1,1-59.6,59.59,59.65,59.65,0,0,1,59.6-59.59m0-2a61.59,61.59,0,1,0,61.59,61.59A61.59,61.59,0,0,0,277.73,339.85Z" transform="translate(-0.23 -0.19)" style="fill:#0d0808"/><path d="M277.73,452.61c-7.13,0-12.73-1.32-13-3.07V415a.5.5,0,0,0-.5-.5h-34.4c-1.82,0-3.25-5.73-3.25-13.05s1.43-13.05,3.25-13.05h34.4a.5.5,0,0,0,.5-.5V353.34l.06-.22.08-.14c.5-.81,2.11-1.51,4.53-2l.89-.18a9.49,9.49,0,0,1,1-.13l.16,0,.91-.11,1-.11,1-.08,2.37-.08h1c7.32,0,13.06,1.41,13.06,3.22v34.41a.5.5,0,0,0,.5.5h34.4c1.8,0,3.22,5.73,3.22,13.05s-1.42,13.05-3.22,13.05h-34.4a.5.5,0,0,0-.5.5v34.4l0,.15C290.47,451.29,284.86,452.61,277.73,452.61Z" transform="translate(-0.23 -0.19)" style="fill:#141414"/><path d="M277.73,350.76c8.08,0,12.56,1.61,12.56,2.73v34.4a1,1,0,0,0,1,1h34.39c1.14,0,2.73,4.78,2.73,12.55S326.82,414,325.68,414H291.29a1,1,0,0,0-1,1v34.46c-.19,1.12-4.66,2.67-12.55,2.67s-12.35-1.55-12.55-2.66V415a1,1,0,0,0-1-1H229.78c-1.15,0-2.75-4.77-2.75-12.55s1.6-12.55,2.75-12.55h34.39a1,1,0,0,0,1-1V353.45h0l0-.13,0-.06c.15-.25.9-1.11,4.18-1.75l.06,0,.83-.17h.09a6.61,6.61,0,0,1,.79-.11l.19,0c.31-.05.61-.09.92-.12h0l1-.1h0l1-.07h.11l.58,0h.56l1,0h1.15m0-1h-1.18l-1,0h-.17l-1,0h-.14l-1,.08h-.05l-1,.11h0l-1,.13h-.06a7.09,7.09,0,0,0-.94.13h-.07l-.88.18h0c-2.42.48-4.24,1.22-4.86,2.22l-.1.17v0l-.05.18v0l0,.14,0,.22v34.4h-34.4c-5,0-5,27.1,0,27.1h34.4v34.4l0,.24c.41,2.32,7,3.48,13.54,3.48s13.12-1.16,13.53-3.48l0-.24V415h34.4c5,0,5-27.1,0-27.1h-34.4v-34.4h0C291.29,351,284.49,349.76,277.73,349.76Z" transform="translate(-0.23 -0.19)" style="fill:#120b0b"/><path d="M264.18,387.89l-3.6-3.62h-30.8a5.06,5.06,0,0,0-2.78.84l2.78,2.78Z" transform="translate(-0.23 -0.19)" style="fill:#242424"/><path d="M229.78,387.89h0L227,385.12c-1.37.92-2.68,2.73-3.53,6.13a50.87,50.87,0,0,0,0,20.37c.85,3.4,2.16,5.21,3.53,6.14l2.78-2.77C224.78,415,224.78,387.89,229.78,387.89Z" transform="translate(-0.23 -0.19)" style="fill:#292929"/><path d="M269.27,350.5h0l.88-.18h.07a7.09,7.09,0,0,1,.94-.13h.06l1-.13h0l1-.11h0l1-.08h.14l1,0h.16l1,0h1.17c6.77,0,13.56,1.23,13.56,3.73l2.75-2.77c-.9-1.37-2.71-2.71-6.14-3.53a50.72,50.72,0,0,0-20.34,0c-2.94.72-4.71,1.8-5.72,3l2.56,2.57C265,351.72,266.84,351,269.27,350.5Z" transform="translate(-0.23 -0.19)" style="fill:#242424"/><path d="M325.69,387.89l2.75-2.77a4.91,4.91,0,0,0-2.75-.85h-30.8l-3.6,3.62Z" transform="translate(-0.23 -0.19)" style="fill:#191919"/><path d="M291.29,353.49h0v34.4l3.6-3.62V353.49a5,5,0,0,0-.85-2.77Z" transform="translate(-0.23 -0.19)" style="fill:#1c1c1c"/><path d="M264.18,353.49l0-.22,0-.14,0,0,0-.19h0l.11-.17-2.57-2.57a5,5,0,0,0-1.26,3.33v30.79l3.6,3.62Z" transform="translate(-0.23 -0.19)" style="fill:#292929"/><path d="M325.68,415H291.29l3.59,3.62h32.3l.34-.35a5.52,5.52,0,0,0,.92-.5Z" transform="translate(-0.23 -0.19)" style="fill:#171717"/><path d="M291.29,449.39l2.75,2.77a5,5,0,0,0,.84-2.77V418.61L291.29,415Z" transform="translate(-0.23 -0.19)" style="fill:#0f0f0f"/><path d="M332,391.25c-.85-3.4-2.18-5.21-3.55-6.14l-2.75,2.78c5,0,5,27.1,0,27.1l2.75,2.77c1.37-.93,2.71-2.74,3.55-6.14a50.87,50.87,0,0,0,0-20.37Z" transform="translate(-0.23 -0.19)" style="fill:#0f0f0f"/><path d="M291.27,449.62c-.41,2.33-7,3.49-13.54,3.49s-13.12-1.16-13.53-3.49l0-.23-2.79,2.77c.93,1.37,2.74,2.7,6.17,3.52a50.25,50.25,0,0,0,20.34,0c3.43-.82,5.24-2.16,6.14-3.52l-2.75-2.77Z" transform="translate(-0.23 -0.19)" style="fill:#171717"/><path d="M264.18,449.39h0V415l-3.6,3.62v31.63l.09.23a5.09,5.09,0,0,0,.72,1.69Z" transform="translate(-0.23 -0.19)" style="fill:#1c1c1c"/><path d="M229.78,415,227,417.76a5.06,5.06,0,0,0,2.78.85h30.8l3.6-3.62Z" transform="translate(-0.23 -0.19)" style="fill:#1a1a1a"/><path d="M448.87,280.39a18.8,18.8,0,1,1-18.78-18.8A18.79,18.79,0,0,1,448.87,280.39Z" transform="translate(-0.23 -0.19)" style="fill:#1a1615"/><path d="M446.18,280.39a16.09,16.09,0,1,1-16.09-16.1A16.1,16.1,0,0,1,446.18,280.39Z" transform="translate(-0.23 -0.19)" style="fill:#0a0a0a"/><path d="M446.18,280.39a16.09,16.09,0,1,1-16.09-16.1A16.1,16.1,0,0,1,446.18,280.39Z" transform="translate(-0.23 -0.19)" style="fill:none;stroke:#000;stroke-miterlimit:9.993881225585938;stroke-width:0.9993881583213806px"/><rect x="422.67" y="275.57" width="14.35" height="1.55" style="fill:#d60011"/><rect x="422.67" y="279.49" width="14.35" height="1.55" style="fill:#d60011"/><rect x="422.67" y="283.3" width="14.35" height="1.53" style="fill:#d60011"/><path d="M341,280.39a18.8,18.8,0,1,1-18.81-18.8A18.8,18.8,0,0,1,341,280.39Z" transform="translate(-0.23 -0.19)" style="fill:#1a1615"/><path d="M338.24,280.39a16.09,16.09,0,1,1-16.09-16.1A16.08,16.08,0,0,1,338.24,280.39Z" transform="translate(-0.23 -0.19)" style="fill:#0a0a0a"/><path d="M338.24,280.39a16.09,16.09,0,1,1-16.09-16.1A16.08,16.08,0,0,1,338.24,280.39Z" transform="translate(-0.23 -0.19)" style="fill:none;stroke:#000;stroke-miterlimit:9.993881225585938;stroke-width:0.9993881583213806px"/><polygon points="319.41 280.1 316.38 280.1 316.38 276.31 321.85 276.31 321.85 277.63 323.64 277.63 323.64 274.57 314.76 274.57 314.76 281.96 319.41 281.96 319.41 280.1" style="fill:#f40002"/><path d="M320.39,278.45V286h8.95v-7.58Zm7.15,5.78h-5.46v-3.94h5.46Z" transform="translate(-0.23 -0.19)" style="fill:#f40002"/><path d="M185.58,351.47a67.65,67.65,0,1,1,67.67-67.65A67.73,67.73,0,0,1,185.58,351.47Z" transform="translate(-0.23 -0.19)" style="fill:#080808"/><path d="M185.58,351.47a67.65,67.65,0,1,1,67.67-67.65A67.73,67.73,0,0,1,185.58,351.47Z" transform="translate(-0.23 -0.19)" style="fill:none;stroke:#140c0c;stroke-miterlimit:9.993881225585938;stroke-width:1.9987763166427612px"/><path d="M241.65,279.89a56.06,56.06,0,1,1-56.07-56.07A56.05,56.05,0,0,1,241.65,279.89Z" transform="translate(-0.23 -0.19)"/><path d="M241.65,279.89a56.06,56.06,0,1,1-56.07-56.07A56.05,56.05,0,0,1,241.65,279.89Z" transform="translate(-0.23 -0.19)" style="fill:none;stroke:#120b0b;stroke-miterlimit:9.993881225585938;stroke-width:1.9987763166427612px"/><path d="M473,465.37a67.66,67.66,0,1,1,67.67-67.65A67.72,67.72,0,0,1,473,465.37Z" transform="translate(-0.23 -0.19)" style="fill:#080808"/><path d="M473,465.37a67.66,67.66,0,1,1,67.67-67.65A67.72,67.72,0,0,1,473,465.37Z" transform="translate(-0.23 -0.19)" style="fill:none;stroke:#140c0c;stroke-miterlimit:9.993881225585938;stroke-width:1.9987763166427612px"/><path d="M529.06,393.77a56.07,56.07,0,1,1-56.08-56A56.05,56.05,0,0,1,529.06,393.77Z" transform="translate(-0.23 -0.19)"/><path d="M529.06,393.77a56.07,56.07,0,1,1-56.08-56A56.05,56.05,0,0,1,529.06,393.77Z" transform="translate(-0.23 -0.19)" style="fill:none;stroke:#120b0b;stroke-miterlimit:9.993881225585938;stroke-width:1.9987763166427612px"/><path d="M566.64,355.25a25.19,25.19,0,1,1,25.19-25.19A25.21,25.21,0,0,1,566.64,355.25Z" transform="translate(-0.23 -0.19)" style="fill:#0a0a0a"/><path d="M566.64,306.38A23.69,23.69,0,1,1,543,330.06a23.68,23.68,0,0,1,23.67-23.68m0-3a26.68,26.68,0,1,0,26.69,26.68A26.71,26.71,0,0,0,566.64,303.38Z" transform="translate(-0.23 -0.19)" style="fill:#1a1615"/><path d="M566.64,254.23A25.18,25.18,0,1,1,591.83,229,25.21,25.21,0,0,1,566.64,254.23Z" transform="translate(-0.23 -0.19)" style="fill:#0a0a0a"/><path d="M566.64,205.37A23.69,23.69,0,1,1,543,229a23.68,23.68,0,0,1,23.67-23.67m0-3A26.68,26.68,0,1,0,593.33,229,26.71,26.71,0,0,0,566.64,202.37Z" transform="translate(-0.23 -0.19)" style="fill:#1a1615"/><path d="M617.15,304.74a25.18,25.18,0,1,1,25.19-25.19A25.21,25.21,0,0,1,617.15,304.74Z" transform="translate(-0.23 -0.19)" style="fill:#0a0a0a"/><path d="M617.15,255.88a23.68,23.68,0,1,1-23.67,23.67,23.67,23.67,0,0,1,23.67-23.67m0-3a26.68,26.68,0,1,0,26.69,26.67A26.69,26.69,0,0,0,617.15,252.88Z" transform="translate(-0.23 -0.19)" style="fill:#1a1615"/><path d="M516.13,304.74a25.18,25.18,0,1,1,25.2-25.19A25.21,25.21,0,0,1,516.13,304.74Z" transform="translate(-0.23 -0.19)" style="fill:#0a0a0a"/><path d="M516.13,255.88a23.68,23.68,0,1,1-23.67,23.67,23.67,23.67,0,0,1,23.67-23.67m0-3a26.68,26.68,0,1,0,26.7,26.67A26.7,26.7,0,0,0,516.13,252.88Z" transform="translate(-0.23 -0.19)" style="fill:#1a1615"/><path d="M375.61,156.6s-88.86-1.07-100.48-3l-16.38,30.52c20.23,23.26,41.56,53.28,56.41,53.28H436.07c14.87,0,36.18-30,56.43-53.28l-16.37-30.52C464.51,155.53,375.61,156.6,375.61,156.6Z" transform="translate(-0.23 -0.19)" style="fill:#1a1a1a"/><path d="M476.13,153.62l-3.64-6.77a21.51,21.51,0,0,1-5.38.75H282.9a20.62,20.62,0,0,1-4.28-.5l-3.49,6.52c11.62,1.91,100.48,3,100.48,3S464.51,155.53,476.13,153.62Z" transform="translate(-0.23 -0.19)" style="fill:#0d0d0d"/><path d="M642.39,192c-9-7.93-5.64-16.15-11.47-23.83.24.33.49.65.7,1,0,0-96.47-42-120.72-34.46-15.56,4.87-27.23,15.33-32.82,18.22L494,182.5c11.16-12.67,21.93-23,31-24.74C545,153.91,608.85,174,642.4,192Z" transform="translate(-0.23 -0.19)" style="fill:#1a1a1a"/><path d="M510.9,134.73c24.25-7.58,120.69,34.44,120.72,34.45-.21-.33-.46-.65-.7-1l-.09-.11-.29-.38-.13-.16c-.09-.09-.17-.21-.28-.33l-.15-.16a2,2,0,0,0-.28-.3l-.17-.2c-.1-.11-.2-.18-.29-.29l-.2-.2a1.94,1.94,0,0,1-.28-.29l-.23-.18a2.06,2.06,0,0,0-.31-.28l-.22-.21c-.11-.1-.22-.17-.32-.26l-.26-.22-.34-.27a1.34,1.34,0,0,0-.26-.19l-.35-.28a2.43,2.43,0,0,1-.28-.2c-.13-.1-.26-.18-.38-.26a3.15,3.15,0,0,1-.29-.22,2.85,2.85,0,0,1-.41-.26l-.29-.19a3.88,3.88,0,0,1-.45-.29,2.16,2.16,0,0,1-.3-.18,4.74,4.74,0,0,0-.53-.3l-.26-.17-.83-.46c-18.27-9.91-71.93-37-114.15-31.36-7.6,1-21.62,12.34-33.8,16.27l3.58,6.67C483.67,150.05,495.34,139.59,510.9,134.73Z" transform="translate(-0.23 -0.19)" style="fill:#0d0d0d"/><path d="M241.71,130c-42.23-5.62-95.88,21.45-114.15,31.36l-.83.46-.25.16c-.18.09-.35.2-.53.31a2.69,2.69,0,0,1-.29.16,4.53,4.53,0,0,1-.46.3l-.28.18a3.74,3.74,0,0,1-.42.27l-.27.21-.4.27-.25.19a2.06,2.06,0,0,0-.37.29l-.25.17-.36.29-.23.19-.34.28-.2.19a2.36,2.36,0,0,0-.34.3l-.18.16-.33.32-.17.16a2.42,2.42,0,0,1-.32.32l-.12.16a2.73,2.73,0,0,0-.33.35l-.11.12c-.11.12-.22.25-.31.37l-.1.1-.31.41-.07.08c-.12.14-.21.29-.32.44l0,.05c-.12.15-.22.32-.33.47,0,0,97.63-41.94,121.91-34.36,15.53,4.87,27.21,15.32,32.78,18.21l3.42-6.33C264.16,143,249.55,131,241.71,130Z" transform="translate(-0.23 -0.19)" style="fill:#0d0d0d"/><path d="M273.63,153.2l.47.18Z" transform="translate(-0.23 -0.19)" style="fill:#1a1a1a"/><path d="M273.16,153c-5.58-2.88-17.25-13.35-32.8-18.22-24.19-7.55-121.23,34.07-121.9,34.35-5,7.43-2.21,15.32-10.83,22.95l-.06,0c33.14-17.87,99.1-38.09,118.67-34.31,9.12,1.75,19.9,12.07,31.07,24.74l15.84-29.56Z" transform="translate(-0.23 -0.19)" style="fill:#1a1a1a"/><path d="M273.16,153c.17.08.31.17.47.25C273.47,153.12,273.33,153,273.16,153Z" transform="translate(-0.23 -0.19)"/><path d="M258,183.31c.23.29.47.56.73.83l16.37-30.52,3.49-6.52c-.35-.07-.69-.13-1-.23s-.67-.19-1-.27l-3.42,6.34L257.31,182.5c.23.27.46.54.72.81" transform="translate(-0.23 -0.19)"/><path d="M478.08,152.94l-3.58-6.67c-.33.09-.66.21-1,.31l-1,.27,3.64,6.78,16.37,30.52c.23-.27.49-.54.72-.84l.73-.8Z" transform="translate(-0.23 -0.19)"/><path d="M357,169.38h0Z" transform="translate(-0.23 -0.19)" style="fill:#1a1a1a"/><path d="M549,5.66c-.4-.32-.8-.62-1.21-.9l-2.34,109.92,53.24,7.23C586.6,5.16,555.71,11,549,5.66Z" transform="translate(-0.23 -0.19)" style="fill:#1a1a1a"/><path d="M522,.33c-10.81.41-12.05,11.44-12.17,15.19v1.22a818.58,818.58,0,0,1,0,93c9.92,2.29,38.51,5.29,38.51,5.29s0-20.9.68-50.56c.81-37.48-1.21-59.75-1.21-59.75C541.35.28,534.2-.11,522,.33Z" transform="translate(-0.23 -0.19)" style="fill:#141414"/><path d="M201.1,5.66c.4-.32.81-.62,1.21-.9l2.32,109.92-53.21,7.23C163.48,5.16,194.35,11,201.1,5.66Z" transform="translate(-0.23 -0.19)" style="fill:#1a1a1a"/><path d="M228.11.33c10.83.41,12.06,11.44,12.19,15.19v1.22a818.58,818.58,0,0,0,0,93c-9.92,2.29-38.52,5.29-38.52,5.29s-.05-20.9-.68-50.56c-.81-37.48,1.21-59.75,1.21-59.75C208.73.28,215.87-.11,228.11.33Z" transform="translate(-0.23 -0.19)" style="fill:#141414"/><path d="M330.87,169.34h0l-.05.06-.07.07-.06.05h0l-.05.05h0l-.05,0h0l-.05,0h0l-.06,0h0l-.06,0h0l-.05.06h0l-.05,0h0l-.06,0h0l-.06.06v0l-.05.08h0l-.06.05h0l-.06.06v0l0,.07,0,0-.05.05v0l-.05.08,0,0,0,.08,0,0,0,.07h0l0,.06,0,0-.06.13v0l0,.08,0,.05,0,.07v.05l0,.13v.05l0,.13v0a3.69,3.69,0,0,0-.14,2.08,5,5,0,0,0,.2.62v0l0,.13v.05l0,.07,0,.05,0,.08a4.81,4.81,0,0,0,1.7,2.06l.08.05,0,0,.08,0h0l.06.05,0,0h0l.08.05h0l.08.05h0l.08.05h.05l.08.05h0l.08.05h0l.14,0h.06l.12,0h.06a4.76,4.76,0,0,0,.88.23,1.45,1.45,0,0,1,1.49,1.25c.07.27.12.53.17.8.4,1.87.79,3.73,1.18,5.6l1.32,6.34c.37,1.77.75,3.54,1.12,5.31l1.32,6.34c.44,2.07.86,4.13,1.3,6.19.16.73.36,1.45.53,2.18,0,.09.12.18.11.27-.05.42.21.42.5.4a8.53,8.53,0,0,0,1.1.15h63a9.21,9.21,0,0,0,1.16-.15c.24,0,.38,0,.41-.31a4,4,0,0,1,.11-.58c.2-.9.4-1.8.59-2.7.28-1.31.55-2.63.82-4,.23-1.12.47-2.23.7-3.35s.47-2.33.71-3.49.55-2.6.81-3.9c.34-1.63.67-3.27,1-4.9l1-4.61.87-4.22c.1-.51.18-1,.28-1.53l.11-.12a1.39,1.39,0,0,1,1.11-1.05l.66-.06a4.72,4.72,0,1,0-1.52-9.32,4.49,4.49,0,0,0-3.67,3.09,4.55,4.55,0,0,0,1,4.75,1.34,1.34,0,0,0,.05.3,1.22,1.22,0,0,1-.26,1.42c-.59.73-1.19,1.46-1.79,2.17-1.07,1.26-2.13,2.52-3.22,3.75-.89,1-1.78,2-2.73,3-1.68,1.68-3.39,3.32-5.12,5a27.58,27.58,0,0,1-4.24,3.28,12.3,12.3,0,0,1-3.06,1.46,3.46,3.46,0,0,1-3.18-.57,12.82,12.82,0,0,1-2.92-3.35c-.22-.33-.49-.64-.74-1h0l-.43-.72h0l-.05-.08v0l-.3-.55h0l-.06-.08v0a2.19,2.19,0,0,0-.1-.34c-.59-1.25-1.18-2.5-1.78-3.75-.13-.25-.28-.5-.42-.75v0l-.17-.39v0l-.3-.69v0a1.65,1.65,0,0,0-.06-.32c-.59-1.55-1.21-3.09-1.77-4.65-.71-2-1.38-4-2-6-.43-1.32-.82-2.64-1.2-4a1.12,1.12,0,0,1,.34-1.3l.17-.24h0l.12-.06h0l.08,0,0,0,.08-.05,0,0,.07-.05a4.73,4.73,0,0,0,.26-7.71,4.74,4.74,0,0,0-6.54.83l-.06.07-.12.17-.06.07h0l-.07.12h0l-.05.07,0,0-.05.07h0l0,.06,0,0-.18.38v0l-.11.26v.05a1.08,1.08,0,0,0-.15.28,4.89,4.89,0,0,0,.06,2.63l.15.21v0l.05.13,0,.05.22.45a4.24,4.24,0,0,0,1.59,1.69l.12.05h0l.18.22a1.31,1.31,0,0,1,.53,1.42c-.13.7-.28,1.39-.44,2.08a79.39,79.39,0,0,1-2.77,9.05,66.55,66.55,0,0,1-2.79,6.5c-.55,1.11-1.14,2.19-1.75,3.27a21.24,21.24,0,0,1-4.05,5.32,7,7,0,0,1-1.39.95,4.25,4.25,0,0,1-3.37.11,13.93,13.93,0,0,1-3.56-1.82,33.31,33.31,0,0,1-4.86-4c-1.53-1.52-3-3.11-4.46-4.69-.72-.78-1.42-1.58-2.09-2.4-1.18-1.46-2.34-2.94-3.5-4.42a13.81,13.81,0,0,1-1.05-1.49,1,1,0,0,1,.1-1.19,1.8,1.8,0,0,0,.17-.37h0l.17-.23v0l.11-.16v0l.17-.14a4.75,4.75,0,0,0,.29-4.14,4.12,4.12,0,0,0-.46-.74h0l-.11-.17v0l-.05-.06h0l-.12-.17h0l-.05-.06h0l-.06-.06h0l-.06-.07h0a.36.36,0,0,0-.36-.36h0l-.07-.06h0l-.06-.06h0l-.06-.05h0l-.23-.17h0l-.18-.12h0l-.3-.18h0l-.24-.11,0,0a1.79,1.79,0,0,0-.34-.22,4.78,4.78,0,0,0-2.62-.16,5.64,5.64,0,0,0-1,.38h-.05l-.08.05h0l-.08.05h0l-.08.05,0,0-.06.05h0l-.08,0,0,0-.08.05h-.05l-.05.06-.07.06-.08.05h0Z" transform="translate(-0.23 -0.19)" style="fill:#e8787c"/><path d="M342,223.42v.87c.78.13,65.42.12,65.9,0v-.84a1,1,0,0,0,.11-.31c0-1.6,0-3.19,0-4.78a1.47,1.47,0,0,0,0-.29v-.91h-.74a7,7,0,0,0-.92-.11H343.42a4,4,0,0,0-.68.11H342v.91a1.36,1.36,0,0,0-.06.29v4.79A1.5,1.5,0,0,0,342,223.42Z" transform="translate(-0.23 -0.19)" style="fill:#e8787c"/><path d="M329.35,174.51v0a9.76,9.76,0,0,1-.16-1.31,13.18,13.18,0,0,1,.1-1.39v0l0-.13v-.05l0-.13v-.05l0-.07,0-.05,0-.08v0l.06-.13,0,0,0-.06h0l0-.07,0,0,0-.08,0,0,.05-.08v0l.05-.05,0,0,0-.07v0l.06-.06h0l.06-.05h0l.05-.08v0l.06-.06h0l.06,0h0l.05,0h0l.05-.06h0l.06,0h0l.06,0h0l.05,0h0l.05,0h0l.05-.05h0l.06-.05.07-.07.05-.06h0l.06-.06h0l.08-.05.07-.06.05-.06h.05l.08-.05,0,0,.08,0h0l.06-.05,0,0,.08-.05h0l.08-.05h0l.08-.05h.05l.2-.05a4,4,0,0,1,2.19-.3c.52.09,1,.23,1.53.35l0,0,.24.11h0l.3.18h0l.18.12h0l.23.17h0l.06.05h0l.06.06h0l.07.06h0l.36.36h0l.06.07h0l.06.06h0l.05.06h0l.12.17h0l.05.06v0l.11.17h0c.06.12.1.24.16.36a4.27,4.27,0,0,1,.44,3,11.93,11.93,0,0,1-.6,1.67v0l-.11.16v0l-.17.23h0c-.27.25-.53.51-.81.74s-.19.23-.05.4c.3.37.58.76.88,1.14,1,1.29,2,2.58,3,3.85.89,1.09,1.81,2.16,2.74,3.23s1.69,1.95,2.59,2.88c1.14,1.18,2.33,2.32,3.51,3.46a16.91,16.91,0,0,0,1.26,1.13c.67.53,1.34,1.06,2,1.56a12.23,12.23,0,0,0,5.18,2.42,3.71,3.71,0,0,0,2.44-.4,8.84,8.84,0,0,0,2.21-1.83,25.36,25.36,0,0,0,2.86-3.92,45.28,45.28,0,0,0,3.12-6.08c.83-2,1.64-4,2.36-6,.64-1.8,1.19-3.64,1.69-5.48s.82-3.43,1.21-5.14l-1.11-.5h0l-.12-.05a4.24,4.24,0,0,1-1.59-1.69l-.22-.45,0-.05-.05-.13v0l0-.17a4.3,4.3,0,0,1-.2-1.88l.18-1.07v-.05l.11-.26v0l.18-.38,0,0,0-.06h0L371,161l0,0,.05-.07h0l.07-.12h0l.06-.07.12-.17.06-.07a4.74,4.74,0,0,1,6.54-.83,4.73,4.73,0,0,1-.26,7.71l-.07.05,0,0-.08.05,0,0-.08,0h0l-.12.06h0l-1,.38c.11.33.23.62.32.93.63,2,1.2,4.05,1.87,6.05.83,2.46,1.74,4.9,2.63,7.34.22.62.51,1.21.76,1.81v0l.3.69v0l.17.39v0l0,.15,2.13,4.5.14.19v0l.06.08h0l.3.55v0l.05.08h0l.43.72h0a4.37,4.37,0,0,0,.22.43,15.65,15.65,0,0,0,3.14,3.88,3.58,3.58,0,0,0,3.65.71,13.73,13.73,0,0,0,3.45-1.77,45.9,45.9,0,0,0,6.39-5.42c1.51-1.49,3-3,4.41-4.58.55-.58,1.08-1.18,1.6-1.78q1.54-1.8,3.07-3.61c.7-.84,1.39-1.71,2.09-2.57l-.81-.71a4.55,4.55,0,0,1-1-4.75,4.49,4.49,0,0,1,3.67-3.09,4.72,4.72,0,1,1,1.52,9.32l-.66.06-1-.11-.24,1.28c-.1.51-.18,1-.28,1.53l-.87,4.22-1,4.61c-.33,1.63-.66,3.27-1,4.9-.26,1.3-.54,2.6-.81,3.9s-.47,2.33-.71,3.49-.47,2.23-.7,3.35c-.27,1.32-.54,2.64-.82,4-.19.9-.39,1.8-.59,2.7a4,4,0,0,0-.11.58c0,.27-.17.35-.41.31H342.43c-.29,0-.55,0-.5-.4,0-.09-.07-.18-.11-.27a1.84,1.84,0,0,0,0-.33c-.16-.79-.34-1.57-.5-2.36-.27-1.26-.52-2.51-.79-3.77s-.57-2.73-.86-4.1l-.78-3.77c-.29-1.37-.58-2.73-.86-4.1s-.52-2.52-.79-3.77-.57-2.65-.85-4c-.21-1-.4-1.93-.59-2.89s-.34-1.67-.52-2.51-.34-1.71-.52-2.57a6.45,6.45,0,0,1-1,.08c-.42,0-.83-.11-1.25-.17h-.06l-.12,0h-.06l-.14,0h0l-.08-.05h0l-.08-.05h-.05l-.08-.05h0l-.08-.05h0l-.08-.05h0l0,0-.06-.05h0l-.08,0,0,0-.08-.05a4.81,4.81,0,0,1-1.7-2.06l0-.08,0-.05,0-.07v-.05ZM375,170l-.11,0a6.86,6.86,0,0,0-.68,1.63c-.47,1.68-.89,3.38-1.41,5a73.71,73.71,0,0,1-2.64,7.14,61.72,61.72,0,0,1-2.83,5.85,29.62,29.62,0,0,1-3.54,5.2,9.09,9.09,0,0,1-3.2,2.54,5.45,5.45,0,0,1-3.26.37,12.52,12.52,0,0,1-4.25-1.82,33.78,33.78,0,0,1-5.38-4.31c-1.37-1.31-2.67-2.69-4-4.08-.91-1-1.75-2-2.61-3s-1.63-2-2.47-3a5.74,5.74,0,0,0-1.06-1c-.36-.26-.68-.05-.65.41a16.88,16.88,0,0,0,.21,2.13c.29,1.51.62,3,.94,4.5.48,2.3.95,4.6,1.43,6.9.34,1.6.67,3.21,1,4.82s.67,3.19,1,4.79.72,3.41,1.07,5.12a2.32,2.32,0,0,0,2.4,2c9.85,0,19.7,0,29.56,0,.48,0,.43.05.43-.44V170Zm-37.71,3a7.38,7.38,0,0,0-.16-.92,3.35,3.35,0,1,0-5.1,3.71,11.15,11.15,0,0,0,3,1.28.64.64,0,0,0,.86-.36c.28-.57.57-1.14.82-1.72A4.84,4.84,0,0,0,337.24,173Zm37.62-4.64.08-.05v-8.21l-.13,0h-.16a3.41,3.41,0,0,0-2,1,3.34,3.34,0,0,0-.13,4.36c.62.79,1.26,1.55,1.89,2.33Z" transform="translate(-0.23 -0.19)" style="fill:#620c0d"/><path d="M342.43,212.46h65.29a9.21,9.21,0,0,1-1.16.15h-63A8.53,8.53,0,0,1,342.43,212.46Z" transform="translate(-0.23 -0.19)" style="fill:#961b1e"/><path d="M372.65,167.44l1.11.5c-.39,1.71-.74,3.44-1.21,5.14s-1.05,3.68-1.69,5.48c-.72,2-1.53,4-2.36,6a45.28,45.28,0,0,1-3.12,6.08,25.36,25.36,0,0,1-2.86,3.92,8.84,8.84,0,0,1-2.21,1.83,3.71,3.71,0,0,1-2.44.4,12.23,12.23,0,0,1-5.18-2.42c-.7-.5-1.37-1-2-1.56a16.91,16.91,0,0,1-1.26-1.13c-1.18-1.14-2.37-2.28-3.51-3.46-.9-.93-1.74-1.91-2.59-2.88s-1.85-2.14-2.74-3.23c-1-1.27-2-2.56-3-3.85-.3-.38-.58-.77-.88-1.14-.14-.17-.11-.27.05-.4s.54-.49.81-.74a1.8,1.8,0,0,1-.17.37,1,1,0,0,0-.1,1.19,13.81,13.81,0,0,0,1.05,1.49c1.16,1.48,2.32,3,3.5,4.42.67.82,1.37,1.62,2.09,2.4,1.47,1.58,2.93,3.17,4.46,4.69a33.31,33.31,0,0,0,4.86,4,13.93,13.93,0,0,0,3.56,1.82,4.25,4.25,0,0,0,3.37-.11,7,7,0,0,0,1.39-.95,21.24,21.24,0,0,0,4.05-5.32c.61-1.08,1.2-2.16,1.75-3.27a66.55,66.55,0,0,0,2.79-6.5,79.39,79.39,0,0,0,2.77-9.05c.16-.69.31-1.38.44-2.08a1.31,1.31,0,0,0-.53-1.42Z" transform="translate(-0.23 -0.19)" style="fill:#961b1e"/><path d="M412.64,176.21l.81.71c-.7.86-1.39,1.73-2.09,2.57q-1.53,1.81-3.07,3.61c-.52.6-1.05,1.2-1.6,1.78-1.46,1.54-2.9,3.09-4.41,4.58a45.9,45.9,0,0,1-6.39,5.42,13.73,13.73,0,0,1-3.45,1.77,3.58,3.58,0,0,1-3.65-.71,15.65,15.65,0,0,1-3.14-3.88,4.37,4.37,0,0,1-.22-.43c.25.32.52.63.74,1a12.82,12.82,0,0,0,2.92,3.35,3.46,3.46,0,0,0,3.18.57,12.3,12.3,0,0,0,3.06-1.46,27.58,27.58,0,0,0,4.24-3.28c1.73-1.63,3.44-3.27,5.12-5,.95-.95,1.84-2,2.73-3,1.09-1.23,2.15-2.49,3.22-3.75.6-.71,1.2-1.44,1.79-2.17a1.22,1.22,0,0,0,.26-1.42A1.34,1.34,0,0,1,412.64,176.21Z" transform="translate(-0.23 -0.19)" style="fill:#961b1e"/><path d="M340,203.42l-1.32-6.34c-.37-1.77-.75-3.54-1.12-5.31l-1.32-6.34c-.39-1.87-.78-3.73-1.18-5.6-.05-.27-.1-.53-.17-.8a1.45,1.45,0,0,0-1.49-1.25,4.76,4.76,0,0,1-.88-.23c.42.06.83.15,1.25.17a6.45,6.45,0,0,0,1-.08c.18.86.35,1.71.52,2.57s.35,1.67.52,2.51.38,1.93.59,2.89c.28,1.33.57,2.65.85,4s.52,2.51.79,3.77.57,2.73.86,4.1l.78,3.77c.29,1.37.58,2.73.86,4.1s.52,2.51.79,3.77c.16.79.34,1.57.5,2.36a1.84,1.84,0,0,1,0,.33c-.17-.73-.37-1.45-.53-2.18" transform="translate(-0.23 -0.19)" style="fill:#961b1e"/><path d="M381.77,184.08c-.25-.6-.54-1.19-.76-1.81-.89-2.44-1.8-4.88-2.63-7.34-.67-2-1.24-4-1.87-6.05-.09-.31-.21-.6-.32-.93l1-.38-.17.24a1.12,1.12,0,0,0-.34,1.3c.38,1.33.77,2.65,1.2,4,.66,2,1.33,4,2,6,.56,1.56,1.18,3.1,1.77,4.65A1.65,1.65,0,0,1,381.77,184.08Z" transform="translate(-0.23 -0.19)" style="fill:#961b1e"/><path d="M337.86,175.53a11.93,11.93,0,0,0,.6-1.67,4.27,4.27,0,0,0-.44-3c-.06-.12-.1-.24-.16-.36a4.12,4.12,0,0,1,.46.74,4.75,4.75,0,0,1-.29,4.14Z" transform="translate(-0.23 -0.19)" style="fill:#961b1e"/><path d="M384.57,190.11l-.14-.19-2.13-4.5,0-.15c.14.25.29.5.42.75.6,1.25,1.19,2.5,1.78,3.75A2.19,2.19,0,0,1,384.57,190.11Z" transform="translate(-0.23 -0.19)" style="fill:#961b1e"/><path d="M335.81,168.72c-.51-.12-1-.26-1.53-.35a4,4,0,0,0-2.19.3l-.2.05a5.64,5.64,0,0,1,1-.38,4.78,4.78,0,0,1,2.62.16A1.79,1.79,0,0,1,335.81,168.72Z" transform="translate(-0.23 -0.19)" style="fill:#961b1e"/><path d="M415,178.92l.24-1.28,1,.11a1.39,1.39,0,0,0-1.11,1.05Z" transform="translate(-0.23 -0.19)" style="fill:#961b1e"/><path d="M370.57,161.9l-.18,1.07a4.3,4.3,0,0,0,.2,1.88l0,.17-.15-.21a4.89,4.89,0,0,1-.06-2.63A1.08,1.08,0,0,1,370.57,161.9Z" transform="translate(-0.23 -0.19)" style="fill:#961b1e"/><path d="M329.28,171.76a13.18,13.18,0,0,0-.1,1.39,9.76,9.76,0,0,0,.16,1.31,5,5,0,0,1-.2-.62A3.69,3.69,0,0,1,329.28,171.76Z" transform="translate(-0.23 -0.19)" style="fill:#961b1e"/><path d="M385.43,191.62l-.43-.72Z" transform="translate(-0.23 -0.19)" style="fill:#961b1e"/><path d="M382.08,184.81l-.3-.69Z" transform="translate(-0.23 -0.19)" style="fill:#961b1e"/><path d="M384.94,190.78l-.3-.55Z" transform="translate(-0.23 -0.19)" style="fill:#961b1e"/><path d="M337.38,169.88l-.36-.36A.36.36,0,0,1,337.38,169.88Z" transform="translate(-0.23 -0.19)" style="fill:#961b1e"/><path d="M370.71,165.25l.22.45Z" transform="translate(-0.23 -0.19)" style="fill:#961b1e"/><path d="M370.88,161.17l-.18.38Z" transform="translate(-0.23 -0.19)" style="fill:#961b1e"/><path d="M382.26,185.24l-.17-.39Z" transform="translate(-0.23 -0.19)" style="fill:#961b1e"/><path d="M336.4,169l-.3-.18Z" transform="translate(-0.23 -0.19)" style="fill:#961b1e"/><path d="M336.82,169.34l-.23-.17Z" transform="translate(-0.23 -0.19)" style="fill:#961b1e"/><path d="M337.56,176l.17-.23Z" transform="translate(-0.23 -0.19)" style="fill:#961b1e"/><path d="M336.09,168.85l-.24-.11Z" transform="translate(-0.23 -0.19)" style="fill:#961b1e"/><path d="M370.69,161.59l-.11.26Z" transform="translate(-0.23 -0.19)" style="fill:#961b1e"/><path d="M336.58,169.16l-.18-.12Z" transform="translate(-0.23 -0.19)" style="fill:#961b1e"/><path d="M337.68,170.25l-.12-.17Z" transform="translate(-0.23 -0.19)" style="fill:#961b1e"/><path d="M337.85,170.5l-.11-.17Z" transform="translate(-0.23 -0.19)" style="fill:#961b1e"/><path d="M337.74,175.71l.11-.16Z" transform="translate(-0.23 -0.19)" style="fill:#961b1e"/><path d="M371.12,160.75l-.07.12Z" transform="translate(-0.23 -0.19)" style="fill:#961b1e"/><path d="M377.21,167.57l.12-.06Z" transform="translate(-0.23 -0.19)" style="fill:#961b1e"/><path d="M370.64,165.07l.05.13Z" transform="translate(-0.23 -0.19)" style="fill:#961b1e"/><path d="M372.52,167.39l.12.05Z" transform="translate(-0.23 -0.19)" style="fill:#961b1e"/><path d="M329.59,171l-.06.13Z" transform="translate(-0.23 -0.19)" style="fill:#961b1e"/><path d="M329.4,171.4l0,.13Z" transform="translate(-0.23 -0.19)" style="fill:#961b1e"/><path d="M329.34,171.58l0,.13Z" transform="translate(-0.23 -0.19)" style="fill:#961b1e"/><path d="M329.35,174.51l0,.13Z" transform="translate(-0.23 -0.19)" style="fill:#961b1e"/><path d="M332.13,177.44l.14,0Z" transform="translate(-0.23 -0.19)" style="fill:#961b1e"/><path d="M332.33,177.49l.12,0Z" transform="translate(-0.23 -0.19)" style="fill:#961b1e"/><path d="M331.6,168.85l-.08.05Z" transform="translate(-0.23 -0.19)" style="fill:#961b1e"/><path d="M377.57,167.37l.07-.05Z" transform="translate(-0.23 -0.19)" style="fill:#961b1e"/><path d="M331.48,168.92l-.06.05Z" transform="translate(-0.23 -0.19)" style="fill:#961b1e"/><path d="M331.42,169l-.08,0Z" transform="translate(-0.23 -0.19)" style="fill:#961b1e"/><path d="M331.3,169l-.08.05Z" transform="translate(-0.23 -0.19)" style="fill:#961b1e"/><path d="M331.17,169.1l-.05.06Z" transform="translate(-0.23 -0.19)" style="fill:#961b1e"/><path d="M331.05,169.22l-.08.05Z" transform="translate(-0.23 -0.19)" style="fill:#961b1e"/><path d="M330.2,170l-.06.06Z" transform="translate(-0.23 -0.19)" style="fill:#961b1e"/><path d="M337.55,170.07l-.05-.06Z" transform="translate(-0.23 -0.19)" style="fill:#961b1e"/><path d="M330.13,170.11l-.05.08Z" transform="translate(-0.23 -0.19)" style="fill:#961b1e"/><path d="M330.08,170.2l-.06.05Z" transform="translate(-0.23 -0.19)" style="fill:#961b1e"/><path d="M330,170.26l-.06.06Z" transform="translate(-0.23 -0.19)" style="fill:#961b1e"/><path d="M337.73,170.31l-.05-.06Z" transform="translate(-0.23 -0.19)" style="fill:#961b1e"/><path d="M330,170.36l0,.07Z" transform="translate(-0.23 -0.19)" style="fill:#961b1e"/><path d="M329.89,170.45l-.05.05Z" transform="translate(-0.23 -0.19)" style="fill:#961b1e"/><path d="M337.5,170l-.06-.06Z" transform="translate(-0.23 -0.19)" style="fill:#961b1e"/><path d="M329.83,170.54l-.05.08Z" transform="translate(-0.23 -0.19)" style="fill:#961b1e"/><path d="M329.76,170.66l0,.08Z" transform="translate(-0.23 -0.19)" style="fill:#961b1e"/><path d="M329.7,170.79l0,.07Z" transform="translate(-0.23 -0.19)" style="fill:#961b1e"/><path d="M329.65,170.87l0,.06Z" transform="translate(-0.23 -0.19)" style="fill:#961b1e"/><path d="M371.18,160.68l-.06.07Z" transform="translate(-0.23 -0.19)" style="fill:#961b1e"/><path d="M329.52,171.15l0,.08Z" transform="translate(-0.23 -0.19)" style="fill:#961b1e"/><path d="M329.46,171.28l0,.07Z" transform="translate(-0.23 -0.19)" style="fill:#961b1e"/><path d="M371.06,160.87l-.05.07Z" transform="translate(-0.23 -0.19)" style="fill:#961b1e"/><path d="M371,161l-.05.07Z" transform="translate(-0.23 -0.19)" style="fill:#961b1e"/><path d="M330.26,170l-.06,0Z" transform="translate(-0.23 -0.19)" style="fill:#961b1e"/><path d="M370.94,161.06l0,.06Z" transform="translate(-0.23 -0.19)" style="fill:#961b1e"/><path d="M329.41,174.69l0,.07Z" transform="translate(-0.23 -0.19)" style="fill:#961b1e"/><path d="M329.48,174.81l0,.08Z" transform="translate(-0.23 -0.19)" style="fill:#961b1e"/><path d="M371.36,160.44l-.06.07Z" transform="translate(-0.23 -0.19)" style="fill:#961b1e"/><path d="M377.45,167.44l.08-.05Z" transform="translate(-0.23 -0.19)" style="fill:#961b1e"/><path d="M337.44,170l-.06-.07Z" transform="translate(-0.23 -0.19)" style="fill:#961b1e"/><path d="M331.22,177l.08.05Z" transform="translate(-0.23 -0.19)" style="fill:#961b1e"/><path d="M331.34,177l.08,0Z" transform="translate(-0.23 -0.19)" style="fill:#961b1e"/><path d="M331.42,177.07l.06.05Z" transform="translate(-0.23 -0.19)" style="fill:#961b1e"/><path d="M331.52,177.14l.08.05Z" transform="translate(-0.23 -0.19)" style="fill:#961b1e"/><path d="M331.64,177.2l.08.05Z" transform="translate(-0.23 -0.19)" style="fill:#961b1e"/><path d="M331.76,177.26l.08.05Z" transform="translate(-0.23 -0.19)" style="fill:#961b1e"/><path d="M331.89,177.32l.08.05Z" transform="translate(-0.23 -0.19)" style="fill:#961b1e"/><path d="M332,177.38l.08.05Z" transform="translate(-0.23 -0.19)" style="fill:#961b1e"/><path d="M377.33,167.51l.08,0Z" transform="translate(-0.23 -0.19)" style="fill:#961b1e"/><path d="M331.84,168.73l-.08.05Z" transform="translate(-0.23 -0.19)" style="fill:#961b1e"/><path d="M330.32,169.9l-.05,0Z" transform="translate(-0.23 -0.19)" style="fill:#961b1e"/><path d="M330.38,169.83l-.05.06Z" transform="translate(-0.23 -0.19)" style="fill:#961b1e"/><path d="M337,169.52l-.07-.06Z" transform="translate(-0.23 -0.19)" style="fill:#961b1e"/><path d="M331.72,168.79l-.08.05Z" transform="translate(-0.23 -0.19)" style="fill:#961b1e"/><path d="M330.44,169.77l-.06,0Z" transform="translate(-0.23 -0.19)" style="fill:#961b1e"/><path d="M384.64,190.22l-.06-.08Z" transform="translate(-0.23 -0.19)" style="fill:#961b1e"/><path d="M330.5,169.71l-.06,0Z" transform="translate(-0.23 -0.19)" style="fill:#961b1e"/><path d="M385,190.89l-.05-.08Z" transform="translate(-0.23 -0.19)" style="fill:#961b1e"/><path d="M330.56,169.65l-.05,0Z" transform="translate(-0.23 -0.19)" style="fill:#961b1e"/><path d="M330.62,169.59l-.05,0Z" transform="translate(-0.23 -0.19)" style="fill:#961b1e"/><path d="M330.68,169.53l-.05.05Z" transform="translate(-0.23 -0.19)" style="fill:#961b1e"/><path d="M330.75,169.47l-.06.05Z" transform="translate(-0.23 -0.19)" style="fill:#961b1e"/><path d="M337,169.46l-.06-.06Z" transform="translate(-0.23 -0.19)" style="fill:#961b1e"/><path d="M336.89,169.4l-.06-.05Z" transform="translate(-0.23 -0.19)" style="fill:#961b1e"/><path d="M330.87,169.34l-.05.06Z" transform="translate(-0.23 -0.19)" style="fill:#961b1e"/><path d="M330.93,169.28l-.06.06Z" transform="translate(-0.23 -0.19)" style="fill:#961b1e"/><path d="M407.23,217.14H408v.91l-.06.26v6c-.48.14-65.12.15-65.9,0v-7.15h65.22Zm-47.34,6h14.67c.39,0,.39,0,.39-.4v-4c0-.39,0-.39-.39-.39H345.51a4.43,4.43,0,0,0-.81.07,1.65,1.65,0,0,0-1.06.64,1.79,1.79,0,0,0-.38,1.13,7,7,0,0,0,.1,1.65,1.71,1.71,0,0,0,1.85,1.26Z" transform="translate(-0.23 -0.19)" style="fill:#620c0d"/><path d="M407.23,217.14H342.74a4,4,0,0,1,.68-.11h62.89A7,7,0,0,1,407.23,217.14Z" transform="translate(-0.23 -0.19)" style="fill:#961b1e"/><path d="M407.91,223.43v-5.12l.06-.26a1.47,1.47,0,0,1,0,.29c0,1.59,0,3.18,0,4.78A1,1,0,0,1,407.91,223.43Z" transform="translate(-0.23 -0.19)" style="fill:#961b1e"/><path d="M342,218.05v5.37a1.5,1.5,0,0,1-.06-.29v-4.79A1.36,1.36,0,0,1,342,218.05Z" transform="translate(-0.23 -0.19)" style="fill:#961b1e"/><path d="M375,170v40.81c0,.49.05.44-.43.44-9.86,0-19.71,0-29.56,0a2.32,2.32,0,0,1-2.4-2c-.35-1.71-.71-3.41-1.07-5.12s-.67-3.19-1-4.79-.67-3.22-1-4.82c-.48-2.3-1-4.6-1.43-6.9-.32-1.5-.65-3-.94-4.5a16.88,16.88,0,0,1-.21-2.13c0-.46.29-.67.65-.41a5.74,5.74,0,0,1,1.06,1c.84,1,1.64,2,2.47,3s1.7,2.05,2.61,3c1.29,1.39,2.59,2.77,4,4.08a33.78,33.78,0,0,0,5.38,4.31,12.52,12.52,0,0,0,4.25,1.82,5.45,5.45,0,0,0,3.26-.37,9.09,9.09,0,0,0,3.2-2.54,29.62,29.62,0,0,0,3.54-5.2,61.72,61.72,0,0,0,2.83-5.85,73.71,73.71,0,0,0,2.64-7.14c.52-1.67.94-3.37,1.41-5a6.86,6.86,0,0,1,.68-1.63Z" transform="translate(-0.23 -0.19)" style="fill:#961b1e"/><path d="M337.24,173a4.84,4.84,0,0,1-.54,2c-.25.58-.54,1.15-.82,1.72a.64.64,0,0,1-.86.36,11.15,11.15,0,0,1-3-1.28,3.33,3.33,0,0,1-.76-4.84,3.35,3.35,0,0,1,5.86,1.13A7.38,7.38,0,0,1,337.24,173Z" transform="translate(-0.23 -0.19)" style="fill:#961b1e"/><path d="M374.86,168.37l-.49-.56c-.63-.78-1.27-1.54-1.89-2.33a3.34,3.34,0,0,1,.13-4.36,3.41,3.41,0,0,1,2-1h.16l.13,0v8.21Z" transform="translate(-0.23 -0.19)" style="fill:#961b1e"/><path d="M359.89,223.11H345.21a1.71,1.71,0,0,1-1.85-1.26,7,7,0,0,1-.1-1.65,1.79,1.79,0,0,1,.38-1.13,1.65,1.65,0,0,1,1.06-.64,4.43,4.43,0,0,1,.81-.07h29.05c.39,0,.39,0,.39.39v4c0,.4,0,.4-.39.4Z" transform="translate(-0.23 -0.19)" style="fill:#961b1e"/></svg>