<svg id="Layer_1" data-name="Layer 1" xmlns="http://www.w3.org/2000/svg" xmlns:xlink="http://www.w3.org/1999/xlink" width="750" height="630.46" viewBox="0 0 750 630.46"><defs><linearGradient id="linear-gradient" y1="379.79" x2="750" y2="379.79" gradientUnits="userSpaceOnUse"><stop offset="0" stop-color="#620c0d"/><stop offset="1"/></linearGradient><linearGradient id="linear-gradient-2" x1="509.86" y1="60.9" x2="598.79" y2="60.9" xlink:href="#linear-gradient"/><linearGradient id="linear-gradient-3" x1="151.28" y1="60.9" x2="240.21" y2="60.9" xlink:href="#linear-gradient"/></defs><path d="M664.37,214c-6.72-16.68-20.54-20.88-21.82-22-11.7-10.34-2.47-21.22-19.95-30.7-18.28-9.91-72-37-114.22-31.37-9.22,1.23-27.83,17.6-41.21,17.6H282.84c-13.38,0-32-16.37-41.22-17.6-42.24-5.63-95.93,21.46-114.22,31.37-17.47,9.48-8.24,20.36-19.94,30.7-1.28,1.12-15.1,5.32-21.82,22C22.89,370-1.74,469.11.1,529.13,3,623.55,76.67,630.46,76.67,630.46c37-8.62,111.55-129.14,168.54-129.14H504.8c57,0,131.5,120.52,168.54,129.14,0,0,73.68-6.91,76.56-101.33,1.87-60-22.81-159.15-85.53-315.17Z" transform="translate(0 0)" style="fill:url(#linear-gradient)"/><path d="M548.36,115l50.43,6.84C586.73,5,555.82,10.76,549.08,5.47c-.4-.32-.81-.62-1.21-.9C541.45.09,534.3-.31,522,.14,511.22.54,510,11.58,509.86,15.33v1.23a819.45,819.45,0,0,1,0,93.09C519.65,111.91,547.58,114.86,548.36,115Z" transform="translate(0 0)" style="fill:url(#linear-gradient-2)"/><path d="M201.68,115s28.61-3,38.53-5.3a819.45,819.45,0,0,1,0-93.09V15.33C240.09,11.58,238.85.54,228,.14c-12.25-.45-19.4-.05-25.81,4.43-.41.28-.81.58-1.21.89-6.76,5.3-37.65-.49-49.72,116.33l50.4-6.84Z" transform="translate(0 0)" style="fill:url(#linear-gradient-3)"/><path d="M232.18,442.38v3.47c3.12.54,261.9.49,263.82-.05v-3.38a4,4,0,0,0,.44-1.26c0-6.37,0-12.74,0-19.11a6,6,0,0,0-.22-1.17v-3.64H493.3a31.31,31.31,0,0,0-3.7-.43q-115.28,0-230.57,0c-7.06,0-14.13,0-21.2,0a17,17,0,0,0-2.71.45h-2.94v3.62A5.86,5.86,0,0,0,232,422q0,9.6,0,19.2A5.86,5.86,0,0,0,232.18,442.38Z" transform="translate(0 0)" style="fill:#e8787c"/><path d="M181.51,246.58a.22.22,0,0,1,0-.19,49.37,49.37,0,0,1-.65-5.26,54.15,54.15,0,0,1,.42-5.53.18.18,0,0,1,0-.2c.07-.18.13-.36.19-.55a.2.2,0,0,1,0-.18c.07-.19.13-.37.19-.55a.2.2,0,0,1,.06-.18,3,3,0,0,1,.2-.29.24.24,0,0,1,0-.2l.18-.32a.18.18,0,0,1,.05-.17c.07-.17.15-.33.23-.5a.28.28,0,0,1,.06-.22l.19-.22,0,0,.18-.3a.28.28,0,0,1,.07-.17c.06-.11.11-.22.16-.33a.18.18,0,0,1,.06-.17l.2-.3a.2.2,0,0,1,.06-.18l.21-.2.05-.06c.06-.1.11-.2.16-.3a.19.19,0,0,1,.06-.17l.21-.25h0l.23-.22,0,0c.06-.1.12-.2.19-.3a.18.18,0,0,1,.06-.17l.22-.24h0l.23-.19,0,0,.2-.22,0,0c.06-.08.13-.15.2-.23l0,0,.23-.23h0l.23-.23v0l.23-.23h0l.23-.23h0l.23-.23,0,0,.24-.2.29-.27.18-.24h0l.24-.23a.18.18,0,0,1,.17-.06l.32-.17.25-.27.24-.23a.16.16,0,0,1,.17-.05l.31-.2a.17.17,0,0,1,.16-.06l.32-.17,0,0a2.39,2.39,0,0,0,.22-.23.19.19,0,0,1,.18,0l.31-.2a.16.16,0,0,1,.17,0l.32-.2a.21.21,0,0,1,.17,0l.32-.19a.14.14,0,0,1,.16-.05,6.86,6.86,0,0,0,.81-.21c2.85-1,5.74-1.78,8.78-1.21,2.06.38,4.08.95,6.11,1.43a.28.28,0,0,1,.18.06l1,.47,0,0,1.19.7,0,0,.69.46,0,0,.94.71,0,0,.24.2v0l.25.22h0l.25.23h0l1.47,1.46h0l.23.25h0l.22.24,0,0,.19.23,0,.05.49.67v0l.19.24,0,0,.45.68,0,.06c.22.47.41,1,.66,1.42A17.41,17.41,0,0,1,218,244a49.94,49.94,0,0,1-2.4,6.69l0,.06-.44.67,0,.06-.68.93,0,.05c-1.07,1-2.1,2-3.22,2.94-.64.53-.76.92-.22,1.6,1.21,1.5,2.34,3.06,3.52,4.59,4,5.13,7.88,10.33,12,15.38,3.55,4.4,7.25,8.68,10.95,12.94,3.4,3.9,6.78,7.83,10.37,11.55,4.58,4.72,9.34,9.26,14.05,13.84,1.62,1.57,3.29,3.1,5,4.52,2.66,2.14,5.38,4.24,8.16,6.23,6.3,4.54,12.93,8.47,20.75,9.69a14.73,14.73,0,0,0,9.78-1.59,35.77,35.77,0,0,0,8.84-7.33,102.31,102.31,0,0,0,11.44-15.7,182.5,182.5,0,0,0,12.5-24.33c3.31-7.92,6.57-15.88,9.44-24,2.57-7.21,4.75-14.56,6.76-21.94,1.86-6.81,3.26-13.75,4.86-20.59l-4.46-2h0l-.51-.22a17.07,17.07,0,0,1-6.36-6.75c-.29-.61-.57-1.21-.86-1.81a.33.33,0,0,1-.08-.2l-.21-.53a.26.26,0,0,1-.05-.17c-.05-.24-.09-.47-.15-.7a17.2,17.2,0,0,1-.8-7.53c.24-1.43.47-2.86.71-4.29a.29.29,0,0,1,.05-.18c.14-.35.28-.71.43-1.06a.19.19,0,0,1,0-.16c.24-.5.48-1,.71-1.5a.35.35,0,0,1,.1-.2l.15-.26h0l.21-.31a.2.2,0,0,1,.06-.15,2.83,2.83,0,0,1,.2-.28h0l.27-.46v0l.23-.27.49-.69.24-.28c6-7.95,18.3-9.49,26.15-3.31a18.4,18.4,0,0,1,7.48,14.79c.07,6.81-2.9,12.19-8.52,16.07l-.28.2a.25.25,0,0,1-.16.08l-.32.21a.19.19,0,0,1-.14,0l-.32.21h0l-.48.26h0l-4.1,1.49c.46,1.32.93,2.52,1.31,3.74,2.49,8.08,4.79,16.22,7.48,24.22,3.32,9.86,6.95,19.61,10.5,29.38.9,2.47,2,4.84,3.07,7.25a.18.18,0,0,1,0,.14c.39.93.79,1.86,1.18,2.78a.15.15,0,0,1,0,.14l.69,1.57a.15.15,0,0,1,0,.14,2.59,2.59,0,0,0,.12.58q4.25,9,8.52,18a5.1,5.1,0,0,0,.58.76.15.15,0,0,1,.05.13c.06.11.13.21.2.32v0l1.2,2.21a.15.15,0,0,1,0,.13l.21.32h0c.56,1,1.12,1.94,1.69,2.91v0c.29.58.53,1.18.87,1.72,3.56,5.68,7.35,11.17,12.57,15.53a14.37,14.37,0,0,0,14.64,2.86,55.33,55.33,0,0,0,13.8-7.1,184.32,184.32,0,0,0,25.57-21.67c6-6,11.8-12.18,17.65-18.33,2.2-2.32,4.31-4.73,6.4-7.16q6.19-7.18,12.29-14.44c2.82-3.38,5.56-6.83,8.38-10.3l-3.24-2.81c-4.9-5.6-6.31-12-3.89-19s7.51-11.1,14.7-12.39a18.91,18.91,0,1,1,6.08,37.32c-.87.13-1.75.17-2.63.25l-3.93-.45c-.34,1.79-.66,3.46-1,5.13-.37,2-.71,4.09-1.13,6.12q-1.71,8.46-3.48,16.92c-1.27,6.14-2.56,12.28-3.82,18.43-1.34,6.54-2.65,13.08-4,19.62-1.07,5.21-2.18,10.41-3.25,15.61-1,4.66-1.88,9.33-2.84,14-.92,4.46-1.87,8.91-2.8,13.38-1.1,5.28-2.17,10.57-3.29,15.84-.76,3.6-1.57,7.19-2.35,10.78a17.42,17.42,0,0,0-.46,2.35c-.1,1.07-.66,1.37-1.62,1.22-.36,0-.73,0-1.09,0H237.9l-4,0c-1.16.11-2.2.1-2-1.58,0-.35-.27-.73-.42-1.1a11.18,11.18,0,0,0-.13-1.31c-.67-3.15-1.37-6.29-2-9.43-1.06-5-2.08-10.08-3.13-15.11-1.14-5.47-2.31-10.93-3.46-16.4-1-5-2.08-10.08-3.13-15.11-1.14-5.47-2.31-10.93-3.45-16.4C215.07,317,214,312,213,306.94c-1.12-5.31-2.29-10.61-3.41-15.92-.82-3.85-1.57-7.72-2.36-11.57q-1-5-2-10.05t-2.09-10.28a26,26,0,0,1-3.88.33c-1.68-.09-3.34-.44-5-.68l-.24-.07-.51-.17a.3.3,0,0,1-.22-.06l-.55-.15a.23.23,0,0,1-.18-.05l-.3-.2h-.1L192,258l-.31-.19h-.09l-.08,0-.32-.2a.18.18,0,0,1-.17,0l-.32-.2a.18.18,0,0,1-.17,0l-.31-.2h-.09l-.09-.05-.21-.23,0,0-.32-.17a.17.17,0,0,1-.16-.06l-.3-.2a19.62,19.62,0,0,1-6.81-8.25c-.06-.11-.11-.22-.17-.32a.24.24,0,0,1-.06-.2l-.2-.28a.18.18,0,0,1,0-.19Zm182.56-18.14-.44-.07a25.87,25.87,0,0,0-2.73,6.53c-1.87,6.74-3.59,13.52-5.67,20.2a295.08,295.08,0,0,1-10.53,28.6,249.83,249.83,0,0,1-11.36,23.4A120.26,120.26,0,0,1,319.2,328c-3.66,4.19-7.66,7.9-12.84,10.16a21.86,21.86,0,0,1-13,1.46c-6.21-1.15-11.7-4-17-7.27A131.86,131.86,0,0,1,254.77,315c-5.48-5.24-10.69-10.76-15.86-16.32-3.63-3.9-7-8-10.45-12.11s-6.5-8-9.86-12a23.82,23.82,0,0,0-4.27-3.88c-1.44-1-2.7-.2-2.59,1.64a69.41,69.41,0,0,0,.85,8.53c1.13,6,2.49,12,3.74,18q2.88,13.81,5.74,27.61,2,9.66,4,19.31t4,19.19c1.42,6.83,2.87,13.66,4.27,20.5.91,4.45,4,8.12,9.6,8.11,39.45-.11,78.9-.06,118.35-.06,1.94,0,1.74.2,1.74-1.78V228.44Zm-151,12.16a32.63,32.63,0,0,0-.61-3.69,13.42,13.42,0,1,0-20.42,14.83c3.71,2.49,7.92,3.85,12.14,5.13a2.55,2.55,0,0,0,3.44-1.43c1.16-2.27,2.31-4.55,3.29-6.9C212,246,213.19,243.49,213.08,240.6ZM363.7,222l.3-.19V189a4,4,0,0,0-.52-.12,2.49,2.49,0,0,0-.61,0,13.29,13.29,0,0,0-8.71,21.63c2.48,3.13,5,6.2,7.58,9.29C362.37,220.52,363,221.24,363.7,222Z" transform="translate(0 0)" style="fill:#620c0d"/><path d="M233.88,398.49l4,0H494.16c.36,0,.73,0,1.09,0a35.43,35.43,0,0,1-4.66.62q-126.15,0-252.3,0A30.41,30.41,0,0,1,233.88,398.49Z" transform="translate(0 0)" style="fill:#961b1e"/><path d="M257.71,310.71a131.07,131.07,0,0,0,19.45,16.08,56.17,56.17,0,0,0,14.24,7.27c4.51,1.41,9.11,1.87,13.48-.44a27.43,27.43,0,0,0,5.58-3.82c6.73-6.07,11.74-13.49,16.2-21.29q3.69-6.45,7-13.08a272.85,272.85,0,0,0,11.17-26,314,314,0,0,0,11.07-36.23c.67-2.75,1.27-5.52,1.78-8.3a5.28,5.28,0,0,0-2.13-5.7,3.84,3.84,0,0,1-.72-.87l4.46,2c-1.6,6.84-3,13.78-4.86,20.59-2,7.38-4.19,14.73-6.76,21.94-2.87,8.09-6.13,16.05-9.44,24a182.5,182.5,0,0,1-12.5,24.33,102.31,102.31,0,0,1-11.44,15.7,35.77,35.77,0,0,1-8.84,7.33,14.73,14.73,0,0,1-9.78,1.59c-7.82-1.22-14.45-5.15-20.75-9.69-2.78-2-5.5-4.09-8.16-6.23-1.76-1.42-3.43-2.95-5-4.52-4.71-4.58-9.47-9.12-14.05-13.84-3.59-3.72-7-7.65-10.37-11.55-3.7-4.26-7.4-8.54-10.95-12.94-4.07-5.05-8-10.25-12-15.38-1.18-1.53-2.31-3.09-3.52-4.59-.54-.68-.42-1.07.22-1.6,1.12-.92,2.15-2,3.22-2.94a6.51,6.51,0,0,1-.67,1.49,3.93,3.93,0,0,0-.4,4.76,62.38,62.38,0,0,0,4.19,5.94c4.63,5.93,9.28,11.85,14,17.69" transform="translate(0 0)" style="fill:#961b1e"/><path d="M514.94,253.41l3.24,2.81c-2.82,3.47-5.56,6.92-8.38,10.3q-6.09,7.26-12.29,14.44c-2.09,2.43-4.2,4.84-6.4,7.16-5.85,6.15-11.62,12.37-17.65,18.33a184.32,184.32,0,0,1-25.57,21.67,55.33,55.33,0,0,1-13.8,7.1,14.37,14.37,0,0,1-14.64-2.86c-5.22-4.36-9-9.85-12.57-15.53-.34-.54-.58-1.14-.87-1.72,1,1.29,2.07,2.52,3,3.87,3.32,5,6.8,9.79,11.69,13.38a13.78,13.78,0,0,0,12.74,2.31,49.4,49.4,0,0,0,12.23-5.87,112,112,0,0,0,17-13.13q10.36-9.75,20.47-19.79c3.82-3.8,7.39-7.84,11-11.89,4.36-4.94,8.61-10,12.87-15q3.64-4.29,7.18-8.68c1.35-1.68,2.17-3.51,1-5.69A3.81,3.81,0,0,1,514.94,253.41Z" transform="translate(0 0)" style="fill:#961b1e"/><path d="M194.17,258.77c1.67.24,3.33.59,5,.68a26,26,0,0,0,3.88-.33q1,5.16,2.09,10.28t2,10.05c.79,3.85,1.54,7.72,2.36,11.57,1.12,5.31,2.29,10.61,3.41,15.92,1.07,5,2.1,10.08,3.15,15.11,1.14,5.47,2.31,10.93,3.45,16.4,1.05,5,2.08,10.07,3.13,15.11,1.15,5.47,2.32,10.93,3.46,16.4,1.05,5,2.07,10.07,3.13,15.11.66,3.14,1.36,6.28,2,9.43a11.18,11.18,0,0,1,.13,1.31c-.72-2.9-1.51-5.78-2.14-8.69-1.77-8.26-3.46-16.53-5.19-24.8l-5.31-25.39q-2.22-10.62-4.46-21.23-2.65-12.69-5.29-25.39-2.35-11.22-4.72-22.42c-.22-1.07-.42-2.14-.67-3.2-.81-3.35-2.54-4.7-6-5A20.29,20.29,0,0,1,194.17,258.77Z" transform="translate(0 0)" style="fill:#961b1e"/><path d="M391.37,284.9c-1-2.41-2.17-4.78-3.07-7.25-3.55-9.77-7.18-19.52-10.5-29.38-2.69-8-5-16.14-7.48-24.22-.38-1.22-.85-2.42-1.31-3.74l4.1-1.49a3.92,3.92,0,0,1-.67,1c-1.8,1.38-1.9,3.28-1.37,5.17,1.52,5.33,3.08,10.65,4.8,15.91C378.5,248.94,381.19,257,384,265c2.22,6.25,4.71,12.4,7.07,18.6A7,7,0,0,1,391.37,284.9Z" transform="translate(0 0)" style="fill:#961b1e"/><path d="M215.58,250.67A49.94,49.94,0,0,0,218,244a17.41,17.41,0,0,0-1.74-12c-.25-.46-.44-1-.66-1.42a17.74,17.74,0,0,1,1.83,3,19,19,0,0,1-1.16,16.56C216.12,250.34,215.81,250.48,215.58,250.67Z" transform="translate(0 0)" style="fill:#961b1e"/><path d="M402.58,309a5.1,5.1,0,0,1-.58-.76q-4.28-9-8.52-18a2.59,2.59,0,0,1-.12-.58c.56,1,1.17,2,1.66,3q3.6,7.49,7.14,15A9.78,9.78,0,0,1,402.58,309Z" transform="translate(0 0)" style="fill:#961b1e"/><path d="M207.36,223.42c-2-.48-4.05-1-6.11-1.43-3-.57-5.93.19-8.78,1.21a6.86,6.86,0,0,1-.81.21,23.73,23.73,0,0,1,3.85-1.53,19.35,19.35,0,0,1,10.5.64A6.62,6.62,0,0,1,207.36,223.42Z" transform="translate(0 0)" style="fill:#961b1e"/><path d="M524.29,264.24c.32-1.67.64-3.34,1-5.13l3.93.45a5.57,5.57,0,0,0-4.45,4.19C524.71,263.94,524.45,264.08,524.29,264.24Z" transform="translate(0 0)" style="fill:#961b1e"/><path d="M346.51,196.09c-.24,1.43-.47,2.86-.71,4.29a17.2,17.2,0,0,0,.8,7.53c.06.23.1.46.15.7a3.52,3.52,0,0,1-.57-.85,19.48,19.48,0,0,1-.27-10.52A5.49,5.49,0,0,1,346.51,196.09Z" transform="translate(0 0)" style="fill:#961b1e"/><path d="M181.23,235.6a54.15,54.15,0,0,0-.42,5.53,49.37,49.37,0,0,0,.65,5.26,17.48,17.48,0,0,1-.78-2.49A14.69,14.69,0,0,1,181.23,235.6Z" transform="translate(0 0)" style="fill:#961b1e"/><path d="M406,315.09c-.57-1-1.13-1.94-1.69-2.91C404.87,313.15,405.43,314.12,406,315.09Z" transform="translate(0 0)" style="fill:#961b1e"/><path d="M392.59,287.82c-.39-.92-.79-1.85-1.18-2.78C391.8,286,392.2,286.9,392.59,287.82Z" transform="translate(0 0)" style="fill:#961b1e"/><path d="M404,311.72l-1.2-2.21Z" transform="translate(0 0)" style="fill:#961b1e"/><path d="M213.67,228.06l-1.47-1.46A1.48,1.48,0,0,1,213.67,228.06Z" transform="translate(0 0)" style="fill:#961b1e"/><path d="M347.09,209.51c.29.6.57,1.2.86,1.81C347.66,210.72,347.38,210.12,347.09,209.51Z" transform="translate(0 0)" style="fill:#961b1e"/><path d="M347.74,193.19c-.23.5-.47,1-.71,1.5C347.27,194.19,347.51,193.69,347.74,193.19Z" transform="translate(0 0)" style="fill:#961b1e"/><path d="M393.32,289.53l-.69-1.57Z" transform="translate(0 0)" style="fill:#961b1e"/><path d="M209.72,224.67l-1.19-.7Z" transform="translate(0 0)" style="fill:#961b1e"/><path d="M211.42,225.9l-.94-.71Z" transform="translate(0 0)" style="fill:#961b1e"/><path d="M214.37,252.39l.68-.93Z" transform="translate(0 0)" style="fill:#961b1e"/><path d="M208.49,224l-1-.47Z" transform="translate(0 0)" style="fill:#961b1e"/><path d="M347,194.85c-.15.35-.29.71-.43,1.06C346.7,195.56,346.84,195.2,347,194.85Z" transform="translate(0 0)" style="fill:#961b1e"/><path d="M210.44,225.16l-.69-.46Z" transform="translate(0 0)" style="fill:#961b1e"/><path d="M214.86,229.53l-.49-.67Z" transform="translate(0 0)" style="fill:#961b1e"/><path d="M215.55,230.51l-.45-.68Z" transform="translate(0 0)" style="fill:#961b1e"/><path d="M215.1,251.4l.44-.67Z" transform="translate(0 0)" style="fill:#961b1e"/><path d="M348.73,191.52l-.27.46Z" transform="translate(0 0)" style="fill:#961b1e"/><path d="M373.11,218.82l.48-.26Z" transform="translate(0 0)" style="fill:#961b1e"/><path d="M346.8,208.78l.21.53Z" transform="translate(0 0)" style="fill:#961b1e"/><path d="M354.31,218.07l.51.22Z" transform="translate(0 0)" style="fill:#961b1e"/><path d="M182.47,232.46c-.08.17-.16.33-.23.5C182.31,232.79,182.39,232.63,182.47,232.46Z" transform="translate(0 0)" style="fill:#961b1e"/><path d="M181.7,234.12c-.06.18-.12.36-.19.55C181.58,234.48,181.64,234.3,181.7,234.12Z" transform="translate(0 0)" style="fill:#961b1e"/><path d="M181.46,234.85c-.06.19-.12.37-.19.55C181.34,235.22,181.4,235,181.46,234.85Z" transform="translate(0 0)" style="fill:#961b1e"/><path d="M181.51,246.58l.2.54Z" transform="translate(0 0)" style="fill:#961b1e"/><path d="M192.65,258.32l.55.15Z" transform="translate(0 0)" style="fill:#961b1e"/><path d="M193.42,258.53l.51.17Z" transform="translate(0 0)" style="fill:#961b1e"/><path d="M190.52,224l-.31.2Z" transform="translate(0 0)" style="fill:#961b1e"/><path d="M374.53,218l.28-.2Z" transform="translate(0 0)" style="fill:#961b1e"/><path d="M190,224.19a2.39,2.39,0,0,1-.22.23A2.39,2.39,0,0,0,190,224.19Z" transform="translate(0 0)" style="fill:#961b1e"/><path d="M189.78,224.45l-.32.17Z" transform="translate(0 0)" style="fill:#961b1e"/><path d="M189.3,224.68l-.31.2Z" transform="translate(0 0)" style="fill:#961b1e"/><path d="M188.82,224.93l-.24.23Z" transform="translate(0 0)" style="fill:#961b1e"/><path d="M188.33,225.43l-.32.17Z" transform="translate(0 0)" style="fill:#961b1e"/><path d="M184.91,228.58l-.22.24Z" transform="translate(0 0)" style="fill:#961b1e"/><path d="M214.33,228.81l-.19-.23Z" transform="translate(0 0)" style="fill:#961b1e"/><path d="M184.63,229c-.07.1-.13.2-.19.3Z" transform="translate(0 0)" style="fill:#961b1e"/><path d="M184.42,229.32l-.23.22Z" transform="translate(0 0)" style="fill:#961b1e"/><path d="M184.17,229.55l-.21.25Z" transform="translate(0 0)" style="fill:#961b1e"/><path d="M215.06,229.79l-.19-.24Z" transform="translate(0 0)" style="fill:#961b1e"/><path d="M183.9,230c-.05.1-.1.2-.16.3C183.8,230.17,183.85,230.07,183.9,230Z" transform="translate(0 0)" style="fill:#961b1e"/><path d="M183.69,230.33l-.21.2Z" transform="translate(0 0)" style="fill:#961b1e"/><path d="M214.12,228.56l-.22-.24Z" transform="translate(0 0)" style="fill:#961b1e"/><path d="M183.42,230.71l-.2.3Z" transform="translate(0 0)" style="fill:#961b1e"/><path d="M183.16,231.18c0,.11-.1.22-.16.33C183.06,231.4,183.11,231.29,183.16,231.18Z" transform="translate(0 0)" style="fill:#961b1e"/><path d="M182.93,231.68l-.18.3Z" transform="translate(0 0)" style="fill:#961b1e"/><path d="M182.72,232l-.19.22Z" transform="translate(0 0)" style="fill:#961b1e"/><path d="M349,191.23l-.23.27Z" transform="translate(0 0)" style="fill:#961b1e"/><path d="M182.19,233.13l-.18.32Z" transform="translate(0 0)" style="fill:#961b1e"/><path d="M182,233.65a3,3,0,0,0-.2.29A3,3,0,0,1,182,233.65Z" transform="translate(0 0)" style="fill:#961b1e"/><path d="M348.47,192a2.83,2.83,0,0,0-.2.28A2.83,2.83,0,0,1,348.47,192Z" transform="translate(0 0)" style="fill:#961b1e"/><path d="M348.21,192.41l-.21.31Z" transform="translate(0 0)" style="fill:#961b1e"/><path d="M185.15,228.38l-.23.19Z" transform="translate(0 0)" style="fill:#961b1e"/><path d="M348,192.73l-.15.26Z" transform="translate(0 0)" style="fill:#961b1e"/><path d="M181.76,247.31l.2.28Z" transform="translate(0 0)" style="fill:#961b1e"/><path d="M182,247.79c.06.1.11.21.17.32C182.13,248,182.08,247.89,182,247.79Z" transform="translate(0 0)" style="fill:#961b1e"/><path d="M349.7,190.26l-.24.28Z" transform="translate(0 0)" style="fill:#961b1e"/><path d="M374.05,218.3l.32-.21Z" transform="translate(0 0)" style="fill:#961b1e"/><path d="M213.9,228.31l-.23-.25Z" transform="translate(0 0)" style="fill:#961b1e"/><path d="M189,256.36l.3.2Z" transform="translate(0 0)" style="fill:#961b1e"/><path d="M189.46,256.62l.32.17Z" transform="translate(0 0)" style="fill:#961b1e"/><path d="M189.82,256.82l.21.23Z" transform="translate(0 0)" style="fill:#961b1e"/><path d="M190.21,257.1l.31.2Z" transform="translate(0 0)" style="fill:#961b1e"/><path d="M190.69,257.34l.32.2Z" transform="translate(0 0)" style="fill:#961b1e"/><path d="M191.18,257.59l.32.2Z" transform="translate(0 0)" style="fill:#961b1e"/><path d="M191.67,257.83l.31.19Z" transform="translate(0 0)" style="fill:#961b1e"/><path d="M192.17,258.07l.3.2Z" transform="translate(0 0)" style="fill:#961b1e"/><path d="M373.59,218.56l.32-.21Z" transform="translate(0 0)" style="fill:#961b1e"/><path d="M191.5,223.46l-.32.19Z" transform="translate(0 0)" style="fill:#961b1e"/><path d="M185.4,228.11l-.2.22Z" transform="translate(0 0)" style="fill:#961b1e"/><path d="M185.63,227.85c-.07.08-.14.15-.2.23Z" transform="translate(0 0)" style="fill:#961b1e"/><path d="M212.2,226.6l-.25-.23Z" transform="translate(0 0)" style="fill:#961b1e"/><path d="M191,223.7l-.32.2Z" transform="translate(0 0)" style="fill:#961b1e"/><path d="M185.88,227.6l-.23.23Z" transform="translate(0 0)" style="fill:#961b1e"/><path d="M402.83,309.49c-.07-.11-.14-.21-.2-.32C402.69,309.28,402.76,309.38,402.83,309.49Z" transform="translate(0 0)" style="fill:#961b1e"/><path d="M186.12,227.36l-.23.23Z" transform="translate(0 0)" style="fill:#961b1e"/><path d="M404.3,312.17l-.21-.32Z" transform="translate(0 0)" style="fill:#961b1e"/><path d="M186.36,227.11l-.23.23Z" transform="translate(0 0)" style="fill:#961b1e"/><path d="M186.61,226.87l-.23.23Z" transform="translate(0 0)" style="fill:#961b1e"/><path d="M186.85,226.63l-.23.23Z" transform="translate(0 0)" style="fill:#961b1e"/><path d="M187.12,226.41l-.24.2Z" transform="translate(0 0)" style="fill:#961b1e"/><path d="M212,226.36l-.25-.22Z" transform="translate(0 0)" style="fill:#961b1e"/><path d="M211.69,226.12l-.24-.2Z" transform="translate(0 0)" style="fill:#961b1e"/><path d="M187.59,225.9l-.18.24Z" transform="translate(0 0)" style="fill:#961b1e"/><path d="M187.84,225.66l-.24.23Z" transform="translate(0 0)" style="fill:#961b1e"/><path d="M493.3,417.24h2.93v3.64a4.87,4.87,0,0,0-.22,1q0,10.26,0,20.51v3.38c-1.92.54-260.7.59-263.82.05V417.26h2.94l1,0H489.52Zm-189.54,23.9h58.75c1.56,0,1.56,0,1.56-1.6V423.7c0-1.58,0-1.58-1.58-1.58H246.22a17.79,17.79,0,0,0-3.26.28A6.84,6.84,0,0,0,238.7,425a7.21,7.21,0,0,0-1.5,4.52,26.92,26.92,0,0,0,.41,6.61c.84,3.37,3.6,5.05,7.4,5.05Z" transform="translate(0 0)" style="fill:#620c0d"/><path d="M493.3,417.24l-3.78,0H236.09l-1,0a17,17,0,0,1,2.71-.45c7.07,0,14.14,0,21.2,0q115.29,0,230.57,0A31.31,31.31,0,0,1,493.3,417.24Z" transform="translate(0 0)" style="fill:#961b1e"/><path d="M496,442.42q0-10.25,0-20.51a4.87,4.87,0,0,1,.22-1,6,6,0,0,1,.22,1.17c0,6.37,0,12.74,0,19.11A4,4,0,0,1,496,442.42Z" transform="translate(0 0)" style="fill:#961b1e"/><path d="M232.18,420.88v21.5a5.86,5.86,0,0,1-.23-1.15q0-9.6,0-19.2A5.86,5.86,0,0,1,232.18,420.88Z" transform="translate(0 0)" style="fill:#961b1e"/><path d="M364.07,228.44V391.82c0,2,.2,1.78-1.74,1.78-39.45,0-78.9-.05-118.35.06-5.65,0-8.69-3.66-9.6-8.11-1.4-6.84-2.85-13.67-4.27-20.5q-2-9.6-4-19.19t-4-19.31q-2.88-13.8-5.74-27.61c-1.25-6-2.61-12-3.74-18a69.41,69.41,0,0,1-.85-8.53c-.11-1.84,1.15-2.66,2.59-1.64a23.82,23.82,0,0,1,4.27,3.88c3.36,3.93,6.54,8,9.86,12s6.82,8.21,10.45,12.11c5.17,5.56,10.38,11.08,15.86,16.32a131.86,131.86,0,0,0,21.56,17.26c5.29,3.28,10.78,6.12,17,7.27a21.86,21.86,0,0,0,13-1.46c5.18-2.26,9.18-6,12.84-10.16a120.26,120.26,0,0,0,14.14-20.85,249.83,249.83,0,0,0,11.36-23.4,295.08,295.08,0,0,0,10.53-28.6c2.08-6.68,3.8-13.46,5.67-20.2a25.87,25.87,0,0,1,2.73-6.53Z" transform="translate(0 0)" style="fill:#961b1e"/><path d="M213.08,240.6c.11,2.89-1.1,5.42-2.16,7.94-1,2.35-2.13,4.63-3.29,6.9a2.55,2.55,0,0,1-3.44,1.43c-4.22-1.28-8.43-2.64-12.14-5.13a13.41,13.41,0,1,1,20.42-14.83A32.63,32.63,0,0,1,213.08,240.6Z" transform="translate(0 0)" style="fill:#961b1e"/><path d="M363.7,222c-.66-.75-1.33-1.47-2-2.24-2.54-3.09-5.1-6.16-7.58-9.29a13.29,13.29,0,0,1,8.71-21.63,2.49,2.49,0,0,1,.61,0,4,4,0,0,1,.52.12V221.8Z" transform="translate(0 0)" style="fill:#961b1e"/><path d="M303.76,441.14H245c-3.8,0-6.56-1.68-7.4-5.05a26.92,26.92,0,0,1-.41-6.61,7.21,7.21,0,0,1,1.5-4.52,6.84,6.84,0,0,1,4.26-2.55,17.79,17.79,0,0,1,3.26-.28H362.49c1.57,0,1.58,0,1.58,1.58v15.84c0,1.6,0,1.6-1.56,1.6Z" transform="translate(0 0)" style="fill:#961b1e"/><path d="M184.22,353.41V308.6h12.94q24.78,0,24.78,21.84,0,10.38-6.88,16.67t-18.44,6.3Zm7.4-38.5v32.22h5.94q7.84,0,12.21-4.31t4.35-12.19q0-15.72-16.28-15.72Z" transform="translate(0 0)" style="fill:#fff"/><path d="M233,314.69a4.37,4.37,0,0,1-3.05-1.15,3.83,3.83,0,0,1-1.26-2.94,3.91,3.91,0,0,1,1.26-3,4.32,4.32,0,0,1,3.05-1.19,4.42,4.42,0,0,1,3.12,1.19,3.86,3.86,0,0,1,1.29,3,3.82,3.82,0,0,1-1.29,2.89A4.38,4.38,0,0,1,233,314.69Zm3.59,38.72h-7.25v-32h7.25Z" transform="translate(0 0)" style="fill:#fff"/><path d="M244,352.41v-6.72a14.43,14.43,0,0,0,9,3.1c4.38,0,6.56-1.3,6.56-3.88a3,3,0,0,0-.56-1.86,5.47,5.47,0,0,0-1.52-1.36,11.8,11.8,0,0,0-2.25-1.06l-2.89-1.06a30.92,30.92,0,0,1-3.54-1.66,10.54,10.54,0,0,1-2.63-2,7.55,7.55,0,0,1-1.58-2.52,9.36,9.36,0,0,1-.53-3.28,7.6,7.6,0,0,1,1.1-4.08,9.53,9.53,0,0,1,2.93-3,14.29,14.29,0,0,1,4.19-1.81,19.07,19.07,0,0,1,4.85-.61,21.91,21.91,0,0,1,7.93,1.35v6.34a13.38,13.38,0,0,0-7.75-2.31,10,10,0,0,0-2.48.28,6.55,6.55,0,0,0-1.89.78,3.78,3.78,0,0,0-1.22,1.2,2.91,2.91,0,0,0-.44,1.55,3.32,3.32,0,0,0,.44,1.75,3.84,3.84,0,0,0,1.3,1.26,10.69,10.69,0,0,0,2.06,1c.8.31,1.72.63,2.77,1a38.16,38.16,0,0,1,3.7,1.72,12.47,12.47,0,0,1,2.8,2,7.92,7.92,0,0,1,1.78,2.56,8.84,8.84,0,0,1,.62,3.46,7.91,7.91,0,0,1-1.12,4.25,9.34,9.34,0,0,1-3,3,14,14,0,0,1-4.33,1.76,22.26,22.26,0,0,1-5.17.58A21.73,21.73,0,0,1,244,352.41Z" transform="translate(0 0)" style="fill:#fff"/><path d="M296.53,351.94a17.85,17.85,0,0,1-9.09,2.22q-7.12,0-11.5-4.45a15.77,15.77,0,0,1-4.38-11.55q0-7.91,4.71-12.7t12.57-4.8a18.37,18.37,0,0,1,7.72,1.53v6.75a11.66,11.66,0,0,0-7.12-2.5,9.89,9.89,0,0,0-7.53,3.11,11.36,11.36,0,0,0-2.94,8.14,10.88,10.88,0,0,0,2.76,7.85,9.86,9.86,0,0,0,7.43,2.87,11.61,11.61,0,0,0,7.37-2.78Z" transform="translate(0 0)" style="fill:#fff"/><path d="M317.91,354.16q-7.41,0-11.83-4.48t-4.42-11.89q0-8.07,4.61-12.6t12.42-4.53q7.5,0,11.69,4.41t4.18,12.22q0,7.65-4.51,12.26T317.91,354.16Zm.34-27.72a8.29,8.29,0,0,0-6.72,3c-1.64,2-2.47,4.71-2.47,8.19a11.75,11.75,0,0,0,2.5,7.92,8.4,8.4,0,0,0,6.69,2.89,8,8,0,0,0,6.58-2.84q2.3-2.85,2.29-8.1t-2.29-8.15A7.93,7.93,0,0,0,318.25,326.44Z" transform="translate(0 0)" style="fill:#fff"/><path d="M370.44,353.41h-7.25v-18q0-9-6.35-9a6.9,6.9,0,0,0-5.46,2.49,9.18,9.18,0,0,0-2.16,6.26v18.25h-7.28v-32h7.28v5.31h.12a11.42,11.42,0,0,1,10.38-6.06c3.48,0,6.13,1.13,8,3.39s2.75,5.53,2.75,9.8Z" transform="translate(0 0)" style="fill:#fff"/><path d="M407.78,353.41h-7.25v-18q0-9-6.34-9a6.92,6.92,0,0,0-5.47,2.49,9.18,9.18,0,0,0-2.16,6.26v18.25h-7.28v-32h7.28v5.31h.13a11.39,11.39,0,0,1,10.37-6.06q5.22,0,8,3.39t2.75,9.8Z" transform="translate(0 0)" style="fill:#fff"/><path d="M443.72,339.38H421.91a9.19,9.19,0,0,0,2.73,6.84,10.15,10.15,0,0,0,7.17,2.41,15.84,15.84,0,0,0,9.41-3.06v5.84q-4.38,2.74-11.56,2.75t-11.08-4.36q-4-4.35-4-12.26,0-7.47,4.42-12.18a14.49,14.49,0,0,1,11-4.7q6.55,0,10.15,4.22t3.6,11.72v2.78Zm-7-5.12a9.36,9.36,0,0,0-1.84-6.08,6.16,6.16,0,0,0-5-2.17,7,7,0,0,0-5.3,2.28,10.38,10.38,0,0,0-2.67,6Z" transform="translate(0 0)" style="fill:#fff"/><path d="M473.53,351.94a17.85,17.85,0,0,1-9.09,2.22q-7.12,0-11.5-4.45a15.77,15.77,0,0,1-4.38-11.55q0-7.91,4.71-12.7t12.57-4.8a18.37,18.37,0,0,1,7.72,1.53v6.75a11.66,11.66,0,0,0-7.12-2.5,9.89,9.89,0,0,0-7.53,3.11,11.36,11.36,0,0,0-2.94,8.14,10.88,10.88,0,0,0,2.76,7.85,9.86,9.86,0,0,0,7.43,2.87,11.61,11.61,0,0,0,7.37-2.78Z" transform="translate(0 0)" style="fill:#fff"/><path d="M497.59,353.07a12.65,12.65,0,0,1-5.59,1.06q-9.31,0-9.31-8.94V327.1h-5.35v-5.69h5.35V314l7.25-2.06v9.47h7.65v5.69h-7.65v16a6.29,6.29,0,0,0,1,4.06,4.29,4.29,0,0,0,3.44,1.22,4.94,4.94,0,0,0,3.18-1.06Z" transform="translate(0 0)" style="fill:#fff"/><path d="M530.56,339.38H508.75a9.19,9.19,0,0,0,2.73,6.84,10.16,10.16,0,0,0,7.18,2.41,15.81,15.81,0,0,0,9.4-3.06v5.84q-4.37,2.74-11.56,2.75t-11.08-4.36q-4-4.35-4-12.26,0-7.47,4.42-12.18a14.48,14.48,0,0,1,11-4.7q6.57,0,10.16,4.22t3.59,11.72v2.78Zm-7-5.12a9.31,9.31,0,0,0-1.84-6.08,6.16,6.16,0,0,0-5-2.17,7.05,7.05,0,0,0-5.3,2.28,10.38,10.38,0,0,0-2.67,6Z" transform="translate(0 0)" style="fill:#fff"/><path d="M566.56,353.41h-7.25V348h-.12A12.51,12.51,0,0,1,539,349.86q-3.54-4.29-3.54-11.7,0-7.94,3.92-12.72a12.82,12.82,0,0,1,10.45-4.78q6.47,0,9.41,5.19h.12V306h7.25Zm-7.15-14.62V334.6a8.15,8.15,0,0,0-2.22-5.78,7.39,7.39,0,0,0-5.66-2.38,7.61,7.61,0,0,0-6.39,3c-1.55,2-2.33,4.83-2.33,8.41a12.08,12.08,0,0,0,2.24,7.7,7.25,7.25,0,0,0,6,2.83,7.52,7.52,0,0,0,6-2.73A10.28,10.28,0,0,0,559.41,338.79Z" transform="translate(0 0)" style="fill:#fff"/></svg>