<?xml version="1.0" encoding="utf-8"?>
<!-- Generator: Adobe Illustrator 25.4.1, SVG Export Plug-In . SVG Version: 6.00 Build 0)  -->
<svg version="1.1" id="Layer_1" xmlns="http://www.w3.org/2000/svg" xmlns:xlink="http://www.w3.org/1999/xlink" x="0px" y="0px"
	 viewBox="0 0 750 630.5" style="enable-background:new 0 0 750 630.5;" xml:space="preserve">
<style type="text/css">
	.st0{display:none;fill:url(#svgEditorBackground_00000117671212311530124530000016760610856179882128_);}
	.st1{fill:url(#SVGID_1_);}
	.st2{fill:url(#SVGID_00000066484235555774040120000008038546756715818656_);}
	.st3{fill:url(#SVGID_00000005249493451362552290000005311486114996000902_);}
	.st4{fill:#E8787C;}
	.st5{fill:#620C0D;}
	.st6{fill:#961B1E;}
	.st7{fill:#FFFFFF;}
</style>
<linearGradient id="svgEditorBackground_00000030446737044511045920000007690818752256495233_" gradientUnits="userSpaceOnUse" x1="0" y1="315.2275" x2="750" y2="315.2275">
	<stop  offset="0" style="stop-color:#620C0D"/>
	<stop  offset="1" style="stop-color:#000000"/>
</linearGradient>
<rect id="svgEditorBackground" style="display:none;fill:url(#svgEditorBackground_00000030446737044511045920000007690818752256495233_);" width="750" height="630.5"/>
<g>
	<linearGradient id="SVGID_1_" gradientUnits="userSpaceOnUse" x1="-4.372306e-05" y1="379.791" x2="750.0007" y2="379.791">
		<stop  offset="0" style="stop-color:#620C0D"/>
		<stop  offset="1" style="stop-color:#000000"/>
	</linearGradient>
	<path class="st1" d="M664.4,214c-6.7-16.7-20.5-20.9-21.8-22c-11.7-10.3-2.5-21.2-19.9-30.7c-18.3-9.9-72-37-114.2-31.4
		c-9.2,1.2-27.8,17.6-41.2,17.6c-21.9,0-92.2,0-92.2,0s-70.3,0-92.2,0c-13.4,0-32-16.4-41.2-17.6c-42.2-5.6-95.9,21.5-114.2,31.4
		c-17.5,9.5-8.2,20.4-19.9,30.7c-1.3,1.1-15.1,5.3-21.8,22C22.9,370-1.7,469.1,0.1,529.1C3,623.5,76.7,630.5,76.7,630.5
		c37-8.6,111.6-129.1,168.5-129.1c31.2,0,129.8,0,129.8,0s98.6,0,129.8,0c57,0,131.5,120.5,168.5,129.1c0,0,73.7-6.9,76.6-101.3
		C751.8,469.1,727.1,370,664.4,214L664.4,214z"/>
	
		<linearGradient id="SVGID_00000040572645261322630740000004465180648559535745_" gradientUnits="userSpaceOnUse" x1="509.861" y1="60.8976" x2="598.7939" y2="60.8976">
		<stop  offset="0" style="stop-color:#620C0D"/>
		<stop  offset="1" style="stop-color:#000000"/>
	</linearGradient>
	<path style="fill:url(#SVGID_00000040572645261322630740000004465180648559535745_);" d="M548.4,114.9l50.4,6.8
		C586.7,5,555.8,10.8,549.1,5.5c-0.4-0.3-0.8-0.6-1.2-0.9c-6.4-4.5-13.6-4.9-25.8-4.4c-10.8,0.4-12.1,11.4-12.2,15.2v1.2
		c0,0,2.9,40.7,0,93.1C519.6,111.9,547.6,114.9,548.4,114.9z"/>
	
		<linearGradient id="SVGID_00000067953414056058822780000009504091340583199370_" gradientUnits="userSpaceOnUse" x1="151.281" y1="60.8966" x2="240.215" y2="60.8966">
		<stop  offset="0" style="stop-color:#620C0D"/>
		<stop  offset="1" style="stop-color:#000000"/>
	</linearGradient>
	<path style="fill:url(#SVGID_00000067953414056058822780000009504091340583199370_);" d="M201.7,114.9c0,0,28.6-3,38.5-5.3
		c-2.9-52.4,0-93.1,0-93.1v-1.2c-0.1-3.8-1.4-14.8-12.2-15.2c-12.2-0.4-19.4-0.1-25.8,4.4c-0.4,0.3-0.8,0.6-1.2,0.9
		c-6.8,5.3-37.6-0.5-49.7,116.3L201.7,114.9L201.7,114.9L201.7,114.9z"/>
</g>
<g>
	<path class="st4" d="M232.2,442.4c0,1.2,0,2.3,0,3.5c3.1,0.5,261.9,0.5,263.8,0c0-1.1,0-2.2,0-3.4c0.2-0.4,0.4-0.8,0.4-1.3
		c0-6.4,0-12.7,0-19.1c0-0.4-0.1-0.8-0.2-1.2c0-1.2,0-2.3,0-3.6c-1.1,0-2,0-2.9,0c-1.2-0.2-2.5-0.4-3.7-0.4c-76.9,0-153.7,0-230.6,0
		c-7.1,0-14.1,0-21.2,0c-0.9,0-1.8,0.3-2.7,0.4c-0.9,0-1.9,0-2.9,0c0,1.4,0,2.5,0,3.6c-0.1,0.4-0.2,0.8-0.2,1.2c0,6.4,0,12.8,0,19.2
		C232,441.6,232.1,442,232.2,442.4z"/>
	<path class="st5" d="M181.5,246.6c-0.1-0.1-0.1-0.1-0.1-0.2c-0.2-1.8-0.6-3.5-0.6-5.3c0-1.8,0.3-3.7,0.4-5.5c0-0.1,0-0.1,0-0.2
		c0.1-0.2,0.1-0.4,0.2-0.5c0-0.1,0-0.1,0.1-0.2c0.1-0.2,0.1-0.4,0.2-0.5c0-0.1,0-0.1,0.1-0.2c0.1-0.1,0.1-0.2,0.2-0.3
		c0-0.1,0-0.1,0.1-0.2c0.1-0.1,0.1-0.2,0.2-0.3c0-0.1,0-0.1,0-0.2c0.1-0.2,0.2-0.3,0.2-0.5c0-0.1,0-0.2,0.1-0.2
		c0.1-0.1,0.1-0.1,0.2-0.2c0,0,0,0,0,0c0.1-0.1,0.1-0.2,0.2-0.3c0-0.1,0-0.1,0.1-0.2c0.1-0.1,0.1-0.2,0.2-0.3c0-0.1,0-0.1,0.1-0.2
		c0.1-0.1,0.1-0.2,0.2-0.3c0-0.1,0-0.1,0.1-0.2c0.1-0.1,0.1-0.1,0.2-0.2c0,0,0.1-0.1,0.1-0.1c0.1-0.1,0.1-0.2,0.2-0.3
		c0-0.1,0-0.1,0.1-0.2c0.1-0.1,0.1-0.2,0.2-0.2c0,0,0,0,0,0c0.1-0.1,0.2-0.1,0.2-0.2c0,0,0,0,0,0c0.1-0.1,0.1-0.2,0.2-0.3
		c0-0.1,0-0.1,0.1-0.2c0.1-0.1,0.1-0.2,0.2-0.2c0,0,0,0,0,0c0.1-0.1,0.2-0.1,0.2-0.2c0,0,0.1-0.1,0.1-0.1c0.1-0.1,0.1-0.1,0.2-0.2
		c0,0,0,0,0,0c0.1-0.1,0.1-0.2,0.2-0.2c0,0,0,0,0,0c0.1-0.1,0.2-0.2,0.2-0.2c0,0,0,0,0,0c0.1-0.1,0.2-0.2,0.2-0.2c0,0,0,0,0,0
		c0.1-0.1,0.2-0.2,0.2-0.2c0,0,0,0,0,0c0.1-0.1,0.2-0.2,0.2-0.2c0,0,0,0,0,0c0.1-0.1,0.2-0.1,0.2-0.2c0,0,0,0,0,0
		c0.1-0.1,0.2-0.1,0.2-0.2c0.1-0.1,0.2-0.2,0.3-0.3c0.1-0.1,0.1-0.2,0.2-0.2c0,0,0,0,0,0c0.1-0.1,0.2-0.1,0.2-0.2
		c0,0,0.1-0.1,0.2-0.1c0.1-0.1,0.2-0.1,0.3-0.2c0.1-0.1,0.2-0.2,0.2-0.3c0.1-0.1,0.2-0.2,0.2-0.2c0.1-0.1,0.1-0.1,0.2,0
		c0.1-0.1,0.2-0.1,0.3-0.2c0,0,0.1-0.1,0.2-0.1c0.1-0.1,0.2-0.1,0.3-0.2c0,0,0,0,0,0c0.1-0.1,0.1-0.2,0.2-0.2c0,0,0.1-0.1,0.2,0
		c0.1-0.1,0.2-0.1,0.3-0.2c0,0,0.1-0.1,0.2-0.1c0.1-0.1,0.2-0.1,0.3-0.2c0,0,0.1-0.1,0.2,0c0.1-0.1,0.2-0.1,0.3-0.2
		c0,0,0.1-0.1,0.2,0c0.3-0.1,0.5-0.1,0.8-0.2c2.8-1,5.7-1.8,8.8-1.2c2.1,0.4,4.1,0.9,6.1,1.4c0.1,0,0.1,0,0.2,0.1
		c0.3,0.2,0.6,0.3,0.9,0.5c0,0,0,0,0,0c0.4,0.2,0.8,0.5,1.2,0.7c0,0,0,0,0,0c0.2,0.2,0.5,0.3,0.7,0.5c0,0,0,0,0,0
		c0.3,0.2,0.6,0.5,0.9,0.7c0,0,0,0,0,0c0.1,0.1,0.2,0.1,0.2,0.2c0,0,0,0,0,0c0.1,0.1,0.2,0.1,0.2,0.2c0,0,0,0,0,0
		c0.1,0.1,0.2,0.2,0.3,0.2c0,0,0,0,0,0c0.5,0.5,1,1,1.5,1.5c0,0,0,0,0,0c0.1,0.1,0.2,0.2,0.2,0.3c0,0,0,0,0,0
		c0.1,0.1,0.1,0.2,0.2,0.2c0,0,0,0,0,0c0.1,0.1,0.1,0.2,0.2,0.2c0,0,0,0,0,0c0.2,0.2,0.3,0.4,0.5,0.7c0,0,0,0,0,0
		c0.1,0.1,0.1,0.2,0.2,0.2c0,0,0,0,0,0c0.2,0.2,0.3,0.5,0.5,0.7c0,0,0,0.1,0,0.1c0.2,0.5,0.4,1,0.7,1.4c2,3.8,2.6,7.8,1.7,12
		c-0.5,2.3-1.6,4.5-2.4,6.7c0,0,0,0.1,0,0.1c-0.1,0.2-0.3,0.4-0.4,0.7c0,0,0,0.1,0,0.1c-0.2,0.3-0.5,0.6-0.7,0.9c0,0,0,0,0,0
		c-1.1,1-2.1,2-3.2,2.9c-0.6,0.5-0.8,0.9-0.2,1.6c1.2,1.5,2.3,3.1,3.5,4.6c4,5.1,7.9,10.3,11.9,15.4c3.5,4.4,7.2,8.7,11,12.9
		c3.4,3.9,6.8,7.8,10.4,11.5c4.6,4.7,9.3,9.3,14,13.8c1.6,1.6,3.3,3.1,5,4.5c2.7,2.1,5.4,4.2,8.2,6.2c6.3,4.5,12.9,8.5,20.8,9.7
		c3.4,0.5,6.7,0.1,9.8-1.6c3.4-1.9,6.2-4.5,8.8-7.3c4.4-4.8,8.1-10.2,11.4-15.7c4.8-7.8,9-15.9,12.5-24.3c3.3-7.9,6.6-15.9,9.4-24
		c2.6-7.2,4.7-14.6,6.8-21.9c1.9-6.8,3.3-13.7,4.9-20.6c-1.6-0.7-3-1.3-4.5-2c0,0,0,0,0,0c-0.2-0.1-0.3-0.1-0.5-0.2
		c-2.7-1.7-4.9-3.9-6.4-6.8c-0.3-0.6-0.6-1.2-0.9-1.8c0-0.1-0.1-0.1-0.1-0.2c-0.1-0.2-0.1-0.4-0.2-0.5c0-0.1-0.1-0.1,0-0.2
		c-0.1-0.2-0.1-0.5-0.2-0.7c-0.7-2.5-1.2-4.9-0.8-7.5c0.2-1.4,0.5-2.9,0.7-4.3c0-0.1,0-0.1,0-0.2c0.1-0.4,0.3-0.7,0.4-1.1
		c0-0.1,0-0.1,0-0.2c0.2-0.5,0.5-1,0.7-1.5c0-0.1,0-0.1,0.1-0.2c0.1-0.1,0.1-0.2,0.2-0.3c0,0,0,0,0,0c0.1-0.1,0.1-0.2,0.2-0.3
		c0-0.1,0-0.1,0.1-0.2c0.1-0.1,0.1-0.2,0.2-0.3c0,0,0,0,0,0c0.1-0.2,0.2-0.3,0.3-0.5c0,0,0,0,0,0c0.1-0.1,0.2-0.2,0.2-0.3
		c0.2-0.2,0.3-0.5,0.5-0.7c0.1-0.1,0.2-0.2,0.2-0.3c6-7.9,18.3-9.5,26.2-3.3c4.8,3.8,7.4,8.7,7.5,14.8c0.1,6.8-2.9,12.2-8.5,16.1
		c-0.1,0.1-0.2,0.1-0.3,0.2c0,0-0.1,0.1-0.2,0.1c-0.1,0.1-0.2,0.1-0.3,0.2c0,0-0.1,0.1-0.1,0c-0.1,0.1-0.2,0.1-0.3,0.2c0,0,0,0,0,0
		c-0.2,0.1-0.3,0.2-0.5,0.3c0,0,0,0,0,0c-1.4,0.5-2.8,1-4.1,1.5c0.5,1.3,0.9,2.5,1.3,3.7c2.5,8.1,4.8,16.2,7.5,24.2
		c3.3,9.9,6.9,19.6,10.5,29.4c0.9,2.5,2,4.8,3.1,7.2c0,0,0.1,0.1,0,0.1c0.4,0.9,0.8,1.9,1.2,2.8c0,0,0.1,0.1,0,0.1
		c0.2,0.5,0.5,1,0.7,1.6c0,0,0.1,0.1,0,0.1c0,0.2,0,0.4,0.1,0.6c2.8,6,5.7,12,8.5,18c0.1,0.3,0.4,0.5,0.6,0.8c0,0,0.1,0.1,0,0.1
		c0.1,0.1,0.1,0.2,0.2,0.3c0,0,0,0,0,0c0.4,0.7,0.8,1.5,1.2,2.2c0,0,0.1,0.1,0.1,0.1c0.1,0.1,0.1,0.2,0.2,0.3c0,0,0,0,0,0
		c0.6,1,1.1,1.9,1.7,2.9c0,0,0,0,0,0c0.3,0.6,0.5,1.2,0.9,1.7c3.6,5.7,7.4,11.2,12.6,15.5c4.4,3.7,9.2,4.7,14.6,2.9
		c5-1.6,9.5-4.2,13.8-7.1c9.3-6.3,17.6-13.8,25.6-21.7c6-6,11.8-12.2,17.6-18.3c2.2-2.3,4.3-4.7,6.4-7.2c4.1-4.8,8.2-9.6,12.3-14.4
		c2.8-3.4,5.6-6.8,8.4-10.3c-1.1-1-2.2-1.9-3.2-2.8c-4.9-5.6-6.3-12-3.9-19c2.4-6.9,7.5-11.1,14.7-12.4c10.4-1.9,20.3,5.5,21.8,16
		c1.4,10.2-5.5,19.7-15.7,21.3c-0.9,0.1-1.7,0.2-2.6,0.3c-1.4-0.2-2.7-0.3-3.9-0.4c-0.3,1.8-0.7,3.5-1,5.1c-0.4,2-0.7,4.1-1.1,6.1
		c-1.1,5.6-2.3,11.3-3.5,16.9c-1.3,6.1-2.6,12.3-3.8,18.4c-1.3,6.5-2.7,13.1-4,19.6c-1.1,5.2-2.2,10.4-3.3,15.6
		c-1,4.7-1.9,9.3-2.8,14c-0.9,4.5-1.9,8.9-2.8,13.4c-1.1,5.3-2.2,10.6-3.3,15.8c-0.8,3.6-1.6,7.2-2.4,10.8c-0.2,0.8-0.4,1.6-0.5,2.3
		c-0.1,1.1-0.7,1.4-1.6,1.2c-0.4,0-0.7,0-1.1,0c-85.4,0-170.8,0-256.3,0c-1.3,0-2.7,0-4,0c-1.2,0.1-2.2,0.1-2-1.6
		c0-0.3-0.3-0.7-0.4-1.1c0-0.4,0-0.9-0.1-1.3c-0.7-3.1-1.4-6.3-2-9.4c-1.1-5-2.1-10.1-3.1-15.1c-1.1-5.5-2.3-10.9-3.5-16.4
		c-1.1-5-2.1-10.1-3.1-15.1c-1.1-5.5-2.3-10.9-3.4-16.4c-1.1-5-2.1-10.1-3.1-15.1c-1.1-5.3-2.3-10.6-3.4-15.9
		c-0.8-3.9-1.6-7.7-2.4-11.6c-0.7-3.3-1.4-6.7-2.1-10c-0.7-3.4-1.4-6.8-2.1-10.3c-1.3,0.1-2.6,0.4-3.9,0.3c-1.7-0.1-3.3-0.4-5-0.7
		c-0.1,0-0.2,0-0.2-0.1c-0.2-0.1-0.3-0.1-0.5-0.2c-0.1,0-0.2,0-0.2-0.1c-0.2,0-0.4-0.1-0.5-0.1c-0.1,0-0.1,0-0.2-0.1
		c-0.1-0.1-0.2-0.1-0.3-0.2l-0.1,0c0,0-0.1,0-0.1,0c-0.1-0.1-0.2-0.1-0.3-0.2l-0.1,0c0,0-0.1,0-0.1,0c-0.1-0.1-0.2-0.1-0.3-0.2
		c-0.1,0-0.1,0-0.2,0c-0.1-0.1-0.2-0.1-0.3-0.2c-0.1,0-0.1,0-0.2,0c-0.1-0.1-0.2-0.1-0.3-0.2l-0.1,0c0,0-0.1,0-0.1,0
		c-0.1-0.1-0.1-0.2-0.2-0.2c0,0,0,0,0,0c-0.1-0.1-0.2-0.1-0.3-0.2c-0.1,0-0.1,0-0.2-0.1c-0.1-0.1-0.2-0.1-0.3-0.2
		c-3-2.2-5.4-4.8-6.8-8.3c-0.1-0.1-0.1-0.2-0.2-0.3c0-0.1-0.1-0.1-0.1-0.2c-0.1-0.1-0.1-0.2-0.2-0.3c-0.1-0.1-0.1-0.1,0-0.2
		C181.6,246.9,181.6,246.8,181.5,246.6z M364.1,228.4c-0.1,0-0.3-0.1-0.4-0.1c-1.2,2-2.1,4.2-2.7,6.5c-1.9,6.7-3.6,13.5-5.7,20.2
		c-3,9.7-6.5,19.2-10.5,28.6c-3.4,8-7.1,15.8-11.4,23.4c-4.1,7.4-8.6,14.5-14.1,20.8c-3.7,4.2-7.7,7.9-12.8,10.2
		c-4.2,1.8-8.5,2.3-13,1.5c-6.2-1.2-11.7-4-17-7.3c-7.9-4.9-14.9-10.9-21.6-17.3c-5.5-5.2-10.7-10.8-15.9-16.3
		c-3.6-3.9-7-8-10.5-12.1c-3.3-4-6.5-8-9.9-12c-1.2-1.5-2.7-2.8-4.3-3.9c-1.4-1-2.7-0.2-2.6,1.6c0.2,2.9,0.3,5.7,0.9,8.5
		c1.1,6,2.5,12,3.7,18c1.9,9.2,3.8,18.4,5.7,27.6c1.3,6.4,2.7,12.9,4,19.3c1.3,6.4,2.7,12.8,4,19.2c1.4,6.8,2.9,13.7,4.3,20.5
		c0.9,4.5,4,8.1,9.6,8.1c39.4-0.1,78.9-0.1,118.3-0.1c1.9,0,1.7,0.2,1.7-1.8c0-54,0-108.1,0-162.1
		C364.1,229.3,364.1,228.9,364.1,228.4z M213.1,240.6c-0.2-1.2-0.3-2.5-0.6-3.7c-1.6-5.7-7.3-10.4-14.3-9.6
		c-3.8,0.4-6.8,2.1-9.2,5.1c-4.8,6-3.5,15,3.1,19.4c3.7,2.5,7.9,3.8,12.1,5.1c1.6,0.5,2.7,0,3.4-1.4c1.2-2.3,2.3-4.6,3.3-6.9
		C212,246,213.2,243.5,213.1,240.6z M363.7,222c0.1-0.1,0.2-0.1,0.3-0.2c0-10.9,0-21.9,0-32.9c-0.2-0.1-0.4-0.1-0.5-0.1
		c-0.2,0-0.4,0-0.6,0c-3.2,0.5-6,1.8-8.2,4.1c-4.5,5-4.7,12.2-0.5,17.5c2.5,3.1,5,6.2,7.6,9.3C362.4,220.5,363,221.2,363.7,222z"/>
	<path class="st6" d="M233.9,398.5c1.3,0,2.7,0,4,0c85.4,0,170.8,0,256.3,0c0.4,0,0.7,0,1.1,0c-1.6,0.2-3.1,0.6-4.7,0.6
		c-84.1,0-168.2,0-252.3,0C236.8,399.1,235.4,398.7,233.9,398.5z"/>
	<path class="st6" d="M257.7,310.7c6,5.9,12.4,11.4,19.4,16.1c4.5,3,9.1,5.7,14.2,7.3c4.5,1.4,9.1,1.9,13.5-0.4c2-1,3.9-2.3,5.6-3.8
		c6.7-6.1,11.7-13.5,16.2-21.3c2.5-4.3,4.8-8.7,7-13.1c4.2-8.5,7.9-17.2,11.2-26c4.4-11.9,8.1-23.9,11.1-36.2
		c0.7-2.7,1.3-5.5,1.8-8.3c0.4-2.3-0.1-4.3-2.1-5.7c-0.3-0.2-0.5-0.6-0.7-0.9c1.4,0.6,2.9,1.3,4.5,2c-1.6,6.8-3,13.8-4.9,20.6
		c-2,7.4-4.2,14.7-6.8,21.9c-2.9,8.1-6.1,16-9.4,24c-3.5,8.4-7.7,16.5-12.5,24.3c-3.4,5.5-7.1,10.9-11.4,15.7
		c-2.6,2.9-5.5,5.4-8.8,7.3c-3.1,1.7-6.4,2.1-9.8,1.6c-7.8-1.2-14.5-5.2-20.8-9.7c-2.8-2-5.5-4.1-8.2-6.2c-1.8-1.4-3.4-2.9-5-4.5
		c-4.7-4.6-9.5-9.1-14-13.8c-3.6-3.7-7-7.6-10.4-11.5c-3.7-4.3-7.4-8.5-11-12.9c-4.1-5.1-8-10.2-11.9-15.4c-1.2-1.5-2.3-3.1-3.5-4.6
		c-0.5-0.7-0.4-1.1,0.2-1.6c1.1-0.9,2.2-2,3.2-2.9c-0.2,0.5-0.3,1.1-0.7,1.5c-1.2,1.5-1.4,3.2-0.4,4.8c1.3,2.1,2.7,4,4.2,5.9
		c4.6,5.9,9.3,11.8,14,17.7"/>
	<path class="st6" d="M514.9,253.4c1.1,0.9,2.1,1.8,3.2,2.8c-2.8,3.5-5.6,6.9-8.4,10.3c-4.1,4.8-8.2,9.7-12.3,14.4
		c-2.1,2.4-4.2,4.8-6.4,7.2c-5.8,6.1-11.6,12.4-17.6,18.3c-8,7.9-16.3,15.4-25.6,21.7c-4.3,2.9-8.8,5.5-13.8,7.1
		c-5.4,1.8-10.3,0.8-14.6-2.9c-5.2-4.4-9-9.8-12.6-15.5c-0.3-0.5-0.6-1.1-0.9-1.7c1,1.3,2.1,2.5,3,3.9c3.3,5,6.8,9.8,11.7,13.4
		c3.9,2.8,8.1,3.7,12.7,2.3c4.4-1.3,8.4-3.4,12.2-5.9c6.1-3.8,11.8-8.2,17-13.1c6.9-6.5,13.8-13.1,20.5-19.8
		c3.8-3.8,7.4-7.8,10.9-11.9c4.4-4.9,8.6-10,12.9-15c2.4-2.9,4.8-5.8,7.2-8.7c1.3-1.7,2.2-3.5,1-5.7
		C515,254.3,515,253.8,514.9,253.4z"/>
	<path class="st6" d="M194.2,258.8c1.7,0.2,3.3,0.6,5,0.7c1.3,0.1,2.6-0.2,3.9-0.3c0.7,3.4,1.4,6.9,2.1,10.3c0.7,3.3,1.4,6.7,2.1,10
		c0.8,3.9,1.5,7.7,2.4,11.6c1.1,5.3,2.3,10.6,3.4,15.9c1.1,5,2.1,10.1,3.1,15.1c1.1,5.5,2.3,10.9,3.4,16.4c1.1,5,2.1,10.1,3.1,15.1
		c1.1,5.5,2.3,10.9,3.5,16.4c1.1,5,2.1,10.1,3.1,15.1c0.7,3.1,1.4,6.3,2,9.4c0.1,0.4,0.1,0.9,0.1,1.3c-0.7-2.9-1.5-5.8-2.1-8.7
		c-1.8-8.3-3.5-16.5-5.2-24.8c-1.8-8.5-3.5-16.9-5.3-25.4c-1.5-7.1-3-14.2-4.5-21.2c-1.8-8.5-3.5-16.9-5.3-25.4
		c-1.6-7.5-3.1-14.9-4.7-22.4c-0.2-1.1-0.4-2.1-0.7-3.2c-0.8-3.3-2.5-4.7-6-5C196.5,259.6,195.3,259.1,194.2,258.8z"/>
	<path class="st6" d="M391.4,284.9c-1-2.4-2.2-4.8-3.1-7.2c-3.6-9.8-7.2-19.5-10.5-29.4c-2.7-8-5-16.1-7.5-24.2
		c-0.4-1.2-0.8-2.4-1.3-3.7c1.3-0.5,2.7-1,4.1-1.5c-0.2,0.3-0.4,0.7-0.7,1c-1.8,1.4-1.9,3.3-1.4,5.2c1.5,5.3,3.1,10.6,4.8,15.9
		c2.6,8.1,5.3,16.1,8.2,24.2c2.2,6.2,4.7,12.4,7.1,18.6C391.3,284,391.3,284.5,391.4,284.9z"/>
	<path class="st6" d="M215.6,250.7c0.8-2.2,1.9-4.4,2.4-6.7c0.9-4.1,0.3-8.2-1.7-12c-0.2-0.5-0.4-1-0.7-1.4c0.6,1,1.4,1.9,1.8,3
		c2.1,5.7,1.8,11.2-1.2,16.6C216.1,250.3,215.8,250.5,215.6,250.7z"/>
	<path class="st6" d="M402.6,309c-0.2-0.3-0.4-0.5-0.6-0.8c-2.9-6-5.7-12-8.5-18c-0.1-0.2-0.1-0.4-0.1-0.6c0.6,1,1.2,2,1.7,3
		c2.4,5,4.8,10,7.1,15C402.4,308.1,402.4,308.6,402.6,309z"/>
	<path class="st6" d="M207.4,223.4c-2-0.5-4.1-1-6.1-1.4c-3-0.6-5.9,0.2-8.8,1.2c-0.3,0.1-0.5,0.1-0.8,0.2c1.3-0.5,2.5-1.2,3.8-1.5
		c3.5-0.7,7.1-0.6,10.5,0.6C206.5,222.7,206.9,223.1,207.4,223.4z"/>
	<path class="st6" d="M524.3,264.2c0.3-1.7,0.6-3.3,1-5.1c1.2,0.1,2.6,0.3,3.9,0.4c-2.2,0.6-3.9,1.8-4.4,4.2
		C524.7,263.9,524.5,264.1,524.3,264.2z"/>
	<path class="st6" d="M346.5,196.1c-0.2,1.4-0.5,2.9-0.7,4.3c-0.4,2.6,0.1,5.1,0.8,7.5c0.1,0.2,0.1,0.5,0.2,0.7
		c-0.2-0.3-0.5-0.5-0.6-0.8c-1-3.5-1.1-7-0.3-10.5C346,196.8,346.3,196.5,346.5,196.1z"/>
	<path class="st6" d="M181.2,235.6c-0.2,1.8-0.4,3.7-0.4,5.5c0,1.8,0.4,3.5,0.6,5.3c-0.3-0.8-0.6-1.6-0.8-2.5
		C180.2,241.1,180.1,238.3,181.2,235.6z"/>
	<path class="st6" d="M406,315.1c-0.6-1-1.1-1.9-1.7-2.9C404.9,313.2,405.4,314.1,406,315.1z"/>
	<path class="st6" d="M392.6,287.8c-0.4-0.9-0.8-1.9-1.2-2.8C391.8,286,392.2,286.9,392.6,287.8z"/>
	<path class="st6" d="M404,311.7c-0.4-0.7-0.8-1.5-1.2-2.2C403.2,310.2,403.6,311,404,311.7z"/>
	<path class="st6" d="M213.7,228.1c-0.5-0.5-1-1-1.5-1.5C213.1,226.7,213.6,227.2,213.7,228.1z"/>
	<path class="st6" d="M347.1,209.5c0.3,0.6,0.6,1.2,0.9,1.8C347.7,210.7,347.4,210.1,347.1,209.5z"/>
	<path class="st6" d="M347.7,193.2c-0.2,0.5-0.5,1-0.7,1.5C347.3,194.2,347.5,193.7,347.7,193.2z"/>
	<path class="st6" d="M393.3,289.5c-0.2-0.5-0.5-1-0.7-1.6C392.9,288.5,393.1,289,393.3,289.5z"/>
	<path class="st6" d="M209.7,224.7c-0.4-0.2-0.8-0.5-1.2-0.7C208.9,224.2,209.3,224.4,209.7,224.7z"/>
	<path class="st6" d="M211.4,225.9c-0.3-0.2-0.6-0.5-0.9-0.7C210.8,225.4,211.1,225.7,211.4,225.9z"/>
	<path class="st6" d="M214.4,252.4c0.2-0.3,0.5-0.6,0.7-0.9C214.8,251.8,214.6,252.1,214.4,252.4z"/>
	<path class="st6" d="M208.5,223.9c-0.3-0.2-0.6-0.3-0.9-0.5C207.9,223.6,208.2,223.8,208.5,223.9z"/>
	<path class="st6" d="M347,194.9c-0.1,0.4-0.3,0.7-0.4,1.1C346.7,195.6,346.8,195.2,347,194.9z"/>
	<path class="st6" d="M210.4,225.2c-0.2-0.2-0.5-0.3-0.7-0.5C210,224.9,210.2,225,210.4,225.2z"/>
	<path class="st6" d="M214.9,229.5c-0.2-0.2-0.3-0.5-0.5-0.7C214.5,229.1,214.7,229.3,214.9,229.5z"/>
	<path class="st6" d="M215.5,230.5c-0.2-0.2-0.3-0.5-0.5-0.7C215.2,230.1,215.4,230.3,215.5,230.5z"/>
	<path class="st6" d="M215.1,251.4c0.1-0.2,0.3-0.4,0.4-0.7C215.4,251,215.2,251.2,215.1,251.4z"/>
	<path class="st6" d="M348.7,191.5c-0.1,0.2-0.2,0.3-0.3,0.5C348.6,191.8,348.6,191.7,348.7,191.5z"/>
	<path class="st6" d="M373.1,218.8c0.2-0.1,0.3-0.2,0.5-0.3C373.4,218.6,373.3,218.7,373.1,218.8z"/>
	<path class="st6" d="M346.8,208.8c0.1,0.2,0.1,0.4,0.2,0.5C346.9,209.1,346.9,209,346.8,208.8z"/>
	<path class="st6" d="M354.3,218.1c0.2,0.1,0.3,0.1,0.5,0.2C354.6,218.2,354.5,218.1,354.3,218.1z"/>
	<path class="st6" d="M182.5,232.5c-0.1,0.2-0.2,0.3-0.2,0.5C182.3,232.8,182.4,232.6,182.5,232.5z"/>
	<path class="st6" d="M181.7,234.1c-0.1,0.2-0.1,0.4-0.2,0.5C181.6,234.5,181.6,234.3,181.7,234.1z"/>
	<path class="st6" d="M181.5,234.9c-0.1,0.2-0.1,0.4-0.2,0.5C181.3,235.2,181.4,235,181.5,234.9z"/>
	<path class="st6" d="M181.5,246.6c0.1,0.2,0.1,0.4,0.2,0.5C181.6,246.9,181.6,246.8,181.5,246.6z"/>
	<path class="st6" d="M192.7,258.3c0.2,0,0.4,0.1,0.5,0.1C193,258.4,192.8,258.4,192.7,258.3z"/>
	<path class="st6" d="M193.4,258.5c0.2,0.1,0.3,0.1,0.5,0.2C193.8,258.6,193.6,258.6,193.4,258.5z"/>
	<path class="st6" d="M190.5,223.9c-0.1,0.1-0.2,0.1-0.3,0.2C190.3,224.1,190.4,224,190.5,223.9z"/>
	<path class="st6" d="M374.5,218c0.1-0.1,0.2-0.1,0.3-0.2C374.7,217.9,374.6,217.9,374.5,218z"/>
	<path class="st6" d="M190,224.2c-0.1,0.1-0.1,0.2-0.2,0.2C189.9,224.3,190,224.3,190,224.2z"/>
	<path class="st6" d="M189.8,224.4c-0.1,0.1-0.2,0.1-0.3,0.2C189.6,224.6,189.7,224.5,189.8,224.4z"/>
	<path class="st6" d="M189.3,224.7c-0.1,0.1-0.2,0.1-0.3,0.2C189.1,224.8,189.2,224.7,189.3,224.7z"/>
	<path class="st6" d="M188.8,224.9c-0.1,0.1-0.2,0.2-0.2,0.2C188.7,225.1,188.7,225,188.8,224.9z"/>
	<path class="st6" d="M188.3,225.4c-0.1,0.1-0.2,0.1-0.3,0.2C188.1,225.5,188.2,225.5,188.3,225.4z"/>
	<path class="st6" d="M184.9,228.6c-0.1,0.1-0.1,0.2-0.2,0.2C184.8,228.7,184.8,228.7,184.9,228.6z"/>
	<path class="st6" d="M214.3,228.8c-0.1-0.1-0.1-0.2-0.2-0.2C214.2,228.7,214.3,228.7,214.3,228.8z"/>
	<path class="st6" d="M184.6,229c-0.1,0.1-0.1,0.2-0.2,0.3C184.5,229.2,184.6,229.1,184.6,229z"/>
	<path class="st6" d="M184.4,229.3c-0.1,0.1-0.2,0.1-0.2,0.2C184.3,229.5,184.3,229.4,184.4,229.3z"/>
	<path class="st6" d="M184.2,229.6c-0.1,0.1-0.1,0.2-0.2,0.2C184,229.7,184.1,229.6,184.2,229.6z"/>
	<path class="st6" d="M215.1,229.8c-0.1-0.1-0.1-0.2-0.2-0.2C214.9,229.6,215,229.7,215.1,229.8z"/>
	<path class="st6" d="M183.9,230c-0.1,0.1-0.1,0.2-0.2,0.3C183.8,230.2,183.8,230.1,183.9,230z"/>
	<path class="st6" d="M183.7,230.3c-0.1,0.1-0.1,0.1-0.2,0.2C183.5,230.5,183.6,230.4,183.7,230.3z"/>
	<path class="st6" d="M214.1,228.6c-0.1-0.1-0.1-0.2-0.2-0.2C214,228.4,214,228.5,214.1,228.6z"/>
	<path class="st6" d="M183.4,230.7c-0.1,0.1-0.1,0.2-0.2,0.3C183.3,230.9,183.4,230.8,183.4,230.7z"/>
	<path class="st6" d="M183.2,231.2c-0.1,0.1-0.1,0.2-0.2,0.3C183.1,231.4,183.1,231.3,183.2,231.2z"/>
	<path class="st6" d="M182.9,231.7c-0.1,0.1-0.1,0.2-0.2,0.3C182.8,231.9,182.9,231.8,182.9,231.7z"/>
	<path class="st6" d="M182.7,232c-0.1,0.1-0.1,0.1-0.2,0.2C182.6,232.2,182.7,232.1,182.7,232z"/>
	<path class="st6" d="M349,191.2c-0.1,0.1-0.2,0.2-0.2,0.3C348.8,191.4,348.9,191.3,349,191.2z"/>
	<path class="st6" d="M182.2,233.1c-0.1,0.1-0.1,0.2-0.2,0.3C182.1,233.3,182.1,233.2,182.2,233.1z"/>
	<path class="st6" d="M182,233.6c-0.1,0.1-0.1,0.2-0.2,0.3C181.8,233.8,181.9,233.7,182,233.6z"/>
	<path class="st6" d="M348.5,192c-0.1,0.1-0.1,0.2-0.2,0.3C348.3,192.2,348.4,192.1,348.5,192z"/>
	<path class="st6" d="M348.2,192.4c-0.1,0.1-0.1,0.2-0.2,0.3C348.1,192.6,348.1,192.5,348.2,192.4z"/>
	<path class="st6" d="M185.2,228.4c-0.1,0.1-0.2,0.1-0.2,0.2C185,228.5,185.1,228.4,185.2,228.4z"/>
	<path class="st6" d="M348,192.7c-0.1,0.1-0.1,0.2-0.2,0.3C347.9,192.9,347.9,192.8,348,192.7z"/>
	<path class="st6" d="M181.8,247.3c0.1,0.1,0.1,0.2,0.2,0.3C181.9,247.5,181.8,247.4,181.8,247.3z"/>
	<path class="st6" d="M182,247.8c0.1,0.1,0.1,0.2,0.2,0.3C182.1,248,182.1,247.9,182,247.8z"/>
	<path class="st6" d="M349.7,190.3c-0.1,0.1-0.2,0.2-0.2,0.3C349.5,190.4,349.6,190.4,349.7,190.3z"/>
	<path class="st6" d="M374,218.3c0.1-0.1,0.2-0.1,0.3-0.2C374.3,218.2,374.2,218.2,374,218.3z"/>
	<path class="st6" d="M213.9,228.3c-0.1-0.1-0.2-0.2-0.2-0.3C213.7,228.1,213.8,228.2,213.9,228.3z"/>
	<path class="st6" d="M189,256.4c0.1,0.1,0.2,0.1,0.3,0.2C189.2,256.5,189.1,256.4,189,256.4z"/>
	<path class="st6" d="M189.5,256.6c0.1,0.1,0.2,0.1,0.3,0.2C189.7,256.7,189.6,256.7,189.5,256.6z"/>
	<path class="st6" d="M189.8,256.8c0.1,0.1,0.1,0.2,0.2,0.2C190,257,189.9,256.9,189.8,256.8z"/>
	<path class="st6" d="M190.2,257.1c0.1,0.1,0.2,0.1,0.3,0.2C190.4,257.2,190.3,257.2,190.2,257.1z"/>
	<path class="st6" d="M190.7,257.3c0.1,0.1,0.2,0.1,0.3,0.2C190.9,257.5,190.8,257.4,190.7,257.3z"/>
	<path class="st6" d="M191.2,257.6c0.1,0.1,0.2,0.1,0.3,0.2C191.4,257.7,191.3,257.7,191.2,257.6z"/>
	<path class="st6" d="M191.7,257.8c0.1,0.1,0.2,0.1,0.3,0.2C191.9,258,191.8,257.9,191.7,257.8z"/>
	<path class="st6" d="M192.2,258.1c0.1,0.1,0.2,0.1,0.3,0.2C192.4,258.2,192.3,258.1,192.2,258.1z"/>
	<path class="st6" d="M373.6,218.6c0.1-0.1,0.2-0.1,0.3-0.2C373.8,218.4,373.7,218.5,373.6,218.6z"/>
	<path class="st6" d="M191.5,223.5c-0.1,0.1-0.2,0.1-0.3,0.2C191.3,223.6,191.4,223.5,191.5,223.5z"/>
	<path class="st6" d="M185.4,228.1c-0.1,0.1-0.1,0.1-0.2,0.2C185.3,228.3,185.3,228.2,185.4,228.1z"/>
	<path class="st6" d="M185.6,227.8c-0.1,0.1-0.1,0.2-0.2,0.2C185.5,228,185.6,227.9,185.6,227.8z"/>
	<path class="st6" d="M212.2,226.6c-0.1-0.1-0.2-0.2-0.3-0.2C212,226.4,212.1,226.5,212.2,226.6z"/>
	<path class="st6" d="M191,223.7c-0.1,0.1-0.2,0.1-0.3,0.2C190.8,223.8,190.9,223.8,191,223.7z"/>
	<path class="st6" d="M185.9,227.6c-0.1,0.1-0.2,0.2-0.2,0.2C185.7,227.8,185.8,227.7,185.9,227.6z"/>
	<path class="st6" d="M402.8,309.5c-0.1-0.1-0.1-0.2-0.2-0.3C402.7,309.3,402.8,309.4,402.8,309.5z"/>
	<path class="st6" d="M186.1,227.4c-0.1,0.1-0.2,0.2-0.2,0.2C186,227.5,186,227.4,186.1,227.4z"/>
	<path class="st6" d="M404.3,312.2c-0.1-0.1-0.1-0.2-0.2-0.3C404.2,312,404.2,312.1,404.3,312.2z"/>
	<path class="st6" d="M186.4,227.1c-0.1,0.1-0.2,0.2-0.2,0.2C186.2,227.3,186.3,227.2,186.4,227.1z"/>
	<path class="st6" d="M186.6,226.9c-0.1,0.1-0.2,0.2-0.2,0.2C186.5,227,186.5,226.9,186.6,226.9z"/>
	<path class="st6" d="M186.9,226.6c-0.1,0.1-0.2,0.1-0.2,0.2C186.7,226.8,186.8,226.7,186.9,226.6z"/>
	<path class="st6" d="M187.1,226.4c-0.1,0.1-0.2,0.1-0.2,0.2C187,226.5,187,226.5,187.1,226.4z"/>
	<path class="st6" d="M211.9,226.4c-0.1-0.1-0.2-0.1-0.2-0.2C211.8,226.2,211.9,226.3,211.9,226.4z"/>
	<path class="st6" d="M211.7,226.1c-0.1-0.1-0.2-0.1-0.2-0.2C211.5,226,211.6,226.1,211.7,226.1z"/>
	<path class="st6" d="M187.6,225.9c-0.1,0.1-0.1,0.2-0.2,0.2C187.5,226.1,187.5,226,187.6,225.9z"/>
	<path class="st6" d="M187.8,225.7c-0.1,0.1-0.2,0.1-0.2,0.2C187.7,225.8,187.8,225.7,187.8,225.7z"/>
	<path class="st5" d="M493.3,417.2c0.9,0,1.8,0,2.9,0c0,1.3,0,2.5,0,3.6c-0.1,0.3-0.2,0.7-0.2,1c0,6.8,0,13.7,0,20.5
		c0,1.1,0,2.3,0,3.4c-1.9,0.5-260.7,0.6-263.8,0c0-1.1,0-2.3,0-3.5c0-7.2,0-14.3,0-21.5c0-1.1,0-2.2,0-3.6c1,0,2,0,2.9,0
		c0.3,0,0.6,0,1,0c84.5,0,169,0,253.4,0C490.8,417.3,492,417.3,493.3,417.2z M303.8,441.1c19.6,0,39.2,0,58.7,0c1.6,0,1.6,0,1.6-1.6
		c0-5.3,0-10.6,0-15.8c0-1.6,0-1.6-1.6-1.6c-38.8,0-77.5,0-116.3,0c-1.1,0-2.2,0.1-3.3,0.3c-1.7,0.3-3.1,1.1-4.3,2.5
		c-1.1,1.4-1.5,2.9-1.5,4.5c0,2.2-0.1,4.5,0.4,6.6c0.8,3.4,3.6,5.1,7.4,5.1C264.6,441.1,284.2,441.1,303.8,441.1z"/>
	<path class="st6" d="M493.3,417.2c-1.3,0-2.5,0-3.8,0c-84.5,0-169,0-253.4,0c-0.3,0-0.6,0-1,0c0.9-0.2,1.8-0.4,2.7-0.4
		c7.1,0,14.1,0,21.2,0c76.9,0,153.7,0,230.6,0C490.8,416.8,492.1,417.1,493.3,417.2z"/>
	<path class="st6" d="M496,442.4c0-6.8,0-13.7,0-20.5c0-0.3,0.1-0.7,0.2-1c0.1,0.4,0.2,0.8,0.2,1.2c0,6.4,0,12.7,0,19.1
		C496.4,441.6,496.2,442,496,442.4z"/>
	<path class="st6" d="M232.2,420.9c0,7.2,0,14.3,0,21.5c-0.1-0.4-0.2-0.8-0.2-1.2c0-6.4,0-12.8,0-19.2
		C232,421.6,232.1,421.3,232.2,420.9z"/>
	<path class="st6" d="M364.1,228.4c0,0.4,0,0.8,0,1.3c0,54,0,108.1,0,162.1c0,2,0.2,1.8-1.7,1.8c-39.4,0-78.9,0-118.3,0.1
		c-5.7,0-8.7-3.7-9.6-8.1c-1.4-6.8-2.8-13.7-4.3-20.5c-1.3-6.4-2.7-12.8-4-19.2c-1.3-6.4-2.7-12.9-4-19.3
		c-1.9-9.2-3.8-18.4-5.7-27.6c-1.3-6-2.6-12-3.7-18c-0.5-2.8-0.7-5.7-0.9-8.5c-0.1-1.8,1.1-2.7,2.6-1.6c1.6,1.1,3,2.4,4.3,3.9
		c3.4,3.9,6.5,8,9.9,12c3.4,4.1,6.8,8.2,10.5,12.1c5.2,5.6,10.4,11.1,15.9,16.3c6.7,6.4,13.7,12.4,21.6,17.3
		c5.3,3.3,10.8,6.1,17,7.3c4.5,0.8,8.8,0.4,13-1.5c5.2-2.3,9.2-6,12.8-10.2c5.6-6.4,10-13.5,14.1-20.8c4.2-7.6,7.9-15.4,11.4-23.4
		c4-9.4,7.5-18.9,10.5-28.6c2.1-6.7,3.8-13.5,5.7-20.2c0.6-2.3,1.5-4.5,2.7-6.5C363.8,228.4,363.9,228.4,364.1,228.4z"/>
	<path class="st6" d="M213.1,240.6c0.1,2.9-1.1,5.4-2.2,7.9c-1,2.3-2.1,4.6-3.3,6.9c-0.8,1.5-1.8,1.9-3.4,1.4
		c-4.2-1.3-8.4-2.6-12.1-5.1c-6.6-4.4-7.9-13.4-3.1-19.4c2.4-3,5.4-4.6,9.2-5.1c7-0.8,12.7,3.9,14.3,9.6
		C212.8,238.1,212.9,239.4,213.1,240.6z"/>
	<path class="st6" d="M363.7,222c-0.7-0.7-1.3-1.5-2-2.2c-2.5-3.1-5.1-6.2-7.6-9.3c-4.2-5.3-4-12.5,0.5-17.5c2.2-2.4,5-3.6,8.2-4.1
		c0.2,0,0.4,0,0.6,0c0.2,0,0.3,0.1,0.5,0.1c0,11,0,21.9,0,32.9C363.9,221.9,363.8,221.9,363.7,222z"/>
	<path class="st6" d="M303.8,441.1c-19.6,0-39.2,0-58.7,0c-3.8,0-6.6-1.7-7.4-5.1c-0.5-2.1-0.4-4.4-0.4-6.6c0-1.6,0.4-3.2,1.5-4.5
		c1.1-1.4,2.6-2.2,4.3-2.5c1.1-0.2,2.2-0.3,3.3-0.3c38.8,0,77.5,0,116.3,0c1.6,0,1.6,0,1.6,1.6c0,5.3,0,10.6,0,15.8
		c0,1.6,0,1.6-1.6,1.6C342.9,441.1,323.3,441.1,303.8,441.1z"/>
</g>
<g>
	<path class="st7" d="M184.2,353.4v-44.8h12.9c16.5,0,24.8,7.3,24.8,21.8c0,6.9-2.3,12.5-6.9,16.7s-10.7,6.3-18.4,6.3H184.2z
		 M191.6,314.9v32.2h5.9c5.2,0,9.3-1.4,12.2-4.3s4.4-6.9,4.4-12.2c0-10.5-5.4-15.7-16.3-15.7L191.6,314.9L191.6,314.9z"/>
	<path class="st7" d="M233,314.7c-1.2,0-2.2-0.4-3-1.2s-1.3-1.8-1.3-2.9s0.4-2.2,1.3-3c0.8-0.8,1.9-1.2,3-1.2c1.2,0,2.3,0.4,3.1,1.2
		s1.3,1.8,1.3,3c0,1.1-0.4,2.1-1.3,2.9C235.2,314.3,234.2,314.7,233,314.7z M236.6,353.4h-7.2v-32h7.2V353.4z"/>
	<path class="st7" d="M244,352.4v-6.7c2.7,2.1,5.7,3.1,9,3.1c4.4,0,6.6-1.3,6.6-3.9c0-0.7-0.2-1.3-0.6-1.9s-0.9-1-1.5-1.4
		s-1.4-0.8-2.2-1.1c-0.9-0.3-1.8-0.7-2.9-1.1c-1.3-0.5-2.5-1.1-3.5-1.7s-1.9-1.2-2.6-2s-1.2-1.6-1.6-2.5s-0.5-2-0.5-3.3
		c0-1.5,0.4-2.9,1.1-4.1c0.7-1.2,1.7-2.2,2.9-3c1.2-0.8,2.6-1.4,4.2-1.8s3.2-0.6,4.8-0.6c3,0,5.6,0.4,7.9,1.3v6.3
		c-2.2-1.5-4.8-2.3-7.8-2.3c-0.9,0-1.7,0.1-2.5,0.3c-0.7,0.2-1.4,0.4-1.9,0.8c-0.5,0.3-0.9,0.7-1.2,1.2c-0.3,0.5-0.4,1-0.4,1.5
		c0,0.7,0.1,1.3,0.4,1.8s0.7,0.9,1.3,1.3s1.3,0.7,2.1,1c0.8,0.3,1.7,0.6,2.8,1c1.4,0.6,2.6,1.1,3.7,1.7s2,1.2,2.8,2
		c0.8,0.7,1.4,1.6,1.8,2.6s0.6,2.1,0.6,3.5c0,1.6-0.4,3-1.1,4.2s-1.8,2.2-3,3s-2.7,1.4-4.3,1.8c-1.6,0.4-3.4,0.6-5.2,0.6
		C249.6,354.2,246.6,353.6,244,352.4z"/>
	<path class="st7" d="M296.5,351.9c-2.6,1.5-5.6,2.2-9.1,2.2c-4.8,0-8.6-1.5-11.5-4.5s-4.4-6.8-4.4-11.5c0-5.3,1.6-9.5,4.7-12.7
		c3.1-3.2,7.3-4.8,12.6-4.8c2.9,0,5.5,0.5,7.7,1.5v6.8c-2.2-1.7-4.6-2.5-7.1-2.5c-3.1,0-5.6,1-7.5,3.1c-2,2.1-2.9,4.8-2.9,8.1
		c0,3.3,0.9,5.9,2.8,7.8s4.3,2.9,7.4,2.9c2.6,0,5.1-0.9,7.4-2.8V351.9z"/>
	<path class="st7" d="M317.9,354.2c-4.9,0-8.9-1.5-11.8-4.5s-4.4-7-4.4-11.9c0-5.4,1.5-9.6,4.6-12.6s7.2-4.5,12.4-4.5
		c5,0,8.9,1.5,11.7,4.4c2.8,2.9,4.2,7,4.2,12.2c0,5.1-1.5,9.2-4.5,12.3S323,354.2,317.9,354.2z M318.2,326.4c-2.8,0-5.1,1-6.7,3
		s-2.5,4.7-2.5,8.2c0,3.4,0.8,6,2.5,7.9s3.9,2.9,6.7,2.9c2.9,0,5-0.9,6.6-2.8s2.3-4.6,2.3-8.1c0-3.5-0.8-6.2-2.3-8.2
		C323.3,327.4,321.1,326.4,318.2,326.4z"/>
	<path class="st7" d="M370.4,353.4h-7.2v-18c0-6-2.1-9-6.3-9c-2.2,0-4,0.8-5.5,2.5s-2.2,3.7-2.2,6.3v18.2h-7.3v-32h7.3v5.3h0.1
		c2.4-4,5.9-6.1,10.4-6.1c3.5,0,6.1,1.1,8,3.4c1.8,2.3,2.8,5.5,2.8,9.8V353.4z"/>
	<path class="st7" d="M407.8,353.4h-7.2v-18c0-6-2.1-9-6.3-9c-2.2,0-4,0.8-5.5,2.5s-2.2,3.7-2.2,6.3v18.2h-7.3v-32h7.3v5.3h0.1
		c2.4-4,5.9-6.1,10.4-6.1c3.5,0,6.1,1.1,8,3.4c1.8,2.3,2.8,5.5,2.8,9.8V353.4z"/>
	<path class="st7" d="M443.7,339.4h-21.8c0.1,3,1,5.2,2.7,6.8s4.1,2.4,7.2,2.4c3.4,0,6.6-1,9.4-3.1v5.8c-2.9,1.8-6.8,2.8-11.6,2.8
		c-4.7,0-8.4-1.5-11.1-4.4s-4-7-4-12.3c0-5,1.5-9,4.4-12.2c2.9-3.1,6.6-4.7,11-4.7s7.8,1.4,10.2,4.2s3.6,6.7,3.6,11.7L443.7,339.4
		L443.7,339.4z M436.7,334.3c0-2.6-0.6-4.6-1.8-6.1s-2.9-2.2-5-2.2c-2.1,0-3.8,0.8-5.3,2.3c-1.4,1.5-2.3,3.5-2.7,6H436.7z"/>
	<path class="st7" d="M473.5,351.9c-2.6,1.5-5.6,2.2-9.1,2.2c-4.8,0-8.6-1.5-11.5-4.5s-4.4-6.8-4.4-11.5c0-5.3,1.6-9.5,4.7-12.7
		c3.1-3.2,7.3-4.8,12.6-4.8c2.9,0,5.5,0.5,7.7,1.5v6.8c-2.2-1.7-4.6-2.5-7.1-2.5c-3.1,0-5.6,1-7.5,3.1c-2,2.1-2.9,4.8-2.9,8.1
		c0,3.3,0.9,5.9,2.8,7.8s4.3,2.9,7.4,2.9c2.6,0,5.1-0.9,7.4-2.8V351.9z"/>
	<path class="st7" d="M497.6,353.1c-1.4,0.7-3.3,1.1-5.6,1.1c-6.2,0-9.3-3-9.3-8.9v-18.1h-5.3v-5.7h5.3V314l7.2-2.1v9.5h7.7v5.7
		h-7.7v16c0,1.9,0.3,3.2,1,4.1s1.8,1.2,3.4,1.2c1.2,0,2.3-0.4,3.2-1.1V353.1z"/>
	<path class="st7" d="M530.6,339.4h-21.8c0.1,3,1,5.2,2.7,6.8s4.1,2.4,7.2,2.4c3.4,0,6.6-1,9.4-3.1v5.8c-2.9,1.8-6.8,2.8-11.6,2.8
		c-4.7,0-8.4-1.5-11.1-4.4s-4-7-4-12.3c0-5,1.5-9,4.4-12.2c2.9-3.1,6.6-4.7,11-4.7s7.8,1.4,10.2,4.2s3.6,6.7,3.6,11.7L530.6,339.4
		L530.6,339.4z M523.6,334.3c0-2.6-0.6-4.6-1.8-6.1s-2.9-2.2-5-2.2c-2.1,0-3.8,0.8-5.3,2.3c-1.4,1.5-2.3,3.5-2.7,6H523.6z"/>
	<path class="st7" d="M566.6,353.4h-7.2V348h-0.1c-2.3,4.1-5.9,6.2-10.8,6.2c-3.9,0-7.1-1.4-9.5-4.3c-2.4-2.9-3.5-6.8-3.5-11.7
		c0-5.3,1.3-9.5,3.9-12.7c2.6-3.2,6.1-4.8,10.5-4.8c4.3,0,7.4,1.7,9.4,5.2h0.1V306h7.2V353.4z M559.4,338.8v-4.2
		c0-2.3-0.7-4.2-2.2-5.8s-3.4-2.4-5.7-2.4c-2.7,0-4.8,1-6.4,3c-1.6,2-2.3,4.8-2.3,8.4c0,3.2,0.7,5.8,2.2,7.7c1.5,1.9,3.5,2.8,6,2.8
		c2.5,0,4.5-0.9,6-2.7C558.6,343.9,559.4,341.6,559.4,338.8z"/>
</g>
</svg>
